<svg xmlns="http://www.w3.org/2000/svg" viewBox="0 0 2619.65 1749.82"><defs><style>.cls-1{fill:#daebe8;}.cls-2{fill:#b8d5dc;}.cls-2,.cls-36{opacity:0.5;}.cls-3{fill:#ccd39c;}.cls-4{fill:#c2c68e;}.cls-18,.cls-5{opacity:0.7;}.cls-6{fill:#acc9c5;}.cls-7{opacity:0.4;}.cls-8{fill:#68a1bf;}.cls-9{fill:#92bcb5;}.cls-10{fill:#5c305d;}.cls-11{fill:#331832;}.cls-12{fill:#764678;}.cls-13{fill:#e4f1ef;}.cls-14{fill:#366f90;}.cls-15{fill:#42c5c0;}.cls-16,.cls-17,.cls-34,.cls-41{fill:#fff;}.cls-16{opacity:0.2;}.cls-18{fill:#66a6a3;}.cls-19,.cls-34{opacity:0.6;}.cls-20{fill:#db6046;}.cls-21{fill:#ef8062;}.cls-22{fill:#ffb27d;}.cls-23{fill:#e9845c;}.cls-24{fill:#020202;}.cls-25{fill:#6da49a;}.cls-26{fill:#080435;}.cls-27{fill:#58a1c7;}.cls-28{fill:#e9633e;}.cls-29{fill:#613962;}.cls-30{fill:#dde2a2;}.cls-31{fill:#b7bc74;}.cls-32{fill:#bcc480;}.cls-33{fill:#ec865c;}.cls-35{fill:#f4a26f;}.cls-37{fill:#e6f1ef;}.cls-38{fill:#1f5873;}.cls-39{fill:#4d857c;}.cls-40{fill:#7a4a7f;}.cls-41{opacity:0.3;}</style></defs><g id="Capa_2" data-name="Capa 2"><g id="_Layer_" data-name="&lt;Layer&gt;"><path class="cls-1" d="M2619.65,328.1V1417.6c0,174.71-154.66,292.55-341.52,316.33-169.38,21.56-340.79,17.39-513.27,9.52-235.38-10.77-419.25-26.74-504-26.74-276.37-5.22-694.35,15.36-919.35,17.22C152.92,1735.49,0,1592.31,0,1417.6V328.1C0,153.39,153.24,1.49,341.53,11.77,516.39,21.31,773.58,59.09,1041.69,36c318.88-27.51,924.13-50.89,1236.44-24.18C2466,27.82,2619.65,153.39,2619.65,328.1Z"/><ellipse class="cls-2" cx="1358.78" cy="1429.74" rx="1133.66" ry="143.05"/><path class="cls-3" d="M1748.89,712.62s247.68-368,365.66-294.33-231.91,208.34-299.92,317.84Z"/><path class="cls-4" d="M1783,724.59c25.29-42.43,76.54-109.25,177-186.61,60.07-46.25,110-74.72,110.47-75l1.14,2c-.5.28-50.29,28.68-110.23,74.84C1861.25,617,1810.2,683.52,1785,725.77Z"/><g class="cls-5"><path class="cls-3" d="M1439.32,731.12s120.4-426.93,255.48-393.79-155.27,270.33-185.68,395.59Z"/><path class="cls-4" d="M1475.5,731.83c10.78-48.21,38.6-127.69,109.91-232.56,42.62-62.69,81.14-105.31,81.53-105.74l1.7,1.55c-.38.42-38.82,42.94-81.35,105.51-71.09,104.56-98.81,183.74-109.55,231.74Z"/></g><path class="cls-6" d="M2154.23,746c-64.37,31.72-27.34,131.9-109.65,132.15-76.35.2-77.43-5.44-100.22,28a49.78,49.78,0,0,0-7.25,16.3c-3,12.4-11.6,36-34.43,41.59-98.19,24.06-97.94-26.06-193.18-72.33-26.66-13-44.77-29.79-67.22-42.81,1.43-17.7-18.81-72.34,34.94-102.38,10.46-5.85,20-15.54,34.22-21.54,77-32.51,111.17-2,150.71-112.16s159.06,3.8,211.6-14.39,95.89-46.12,152,.36S2218.61,714.35,2154.23,746Z"/><g class="cls-7"><path class="cls-8" d="M1748.67,867.81l-3.5-3.16c1.39-1.54,143.43-155.7,494.24-252l1.25,4.56C1891.17,713.14,1750.06,866.28,1748.67,867.81Z"/><path class="cls-8" d="M1934.21,676.74c-57-30.27-73.5-61.48-74.17-62.79l4.2-2.16c.16.31,16.64,31.29,72.18,60.78Z"/><path class="cls-8" d="M1954.6,724.13c-18.83-19.78-25.88-53.3-20.4-96.94a315.52,315.52,0,0,1,14-60.2l4.44,1.6c-.38,1.06-37.88,106.8,5.41,152.29Z"/><path class="cls-8" d="M2045.48,693c-6.7-3.25-10.44-5.52-10.61-5.62l2.47-4c.79.49,79.73,48.11,172.19,22l1.28,4.54C2136.31,730.93,2070.43,705.1,2045.48,693Z"/><path class="cls-8" d="M2117.67,787.45c-27.18-18.42-39.16-40.61-44.43-56-5.73-16.73-5-29-5-29.5l4.71.31c0,.47-2.44,47.55,47.33,81.26Z"/><path class="cls-8" d="M1928.19,884.24c-63.23-30.72-90.21-91.84-90.5-92.53l4.33-1.87c.33.76,33.78,76.39,113.47,99.95l-1.34,4.52A168.3,168.3,0,0,1,1928.19,884.24Z"/><path class="cls-8" d="M1872.36,839.48l-2.51-4c22.43-14.07,65-26.91,140.55-8.21a466.27,466.27,0,0,1,81.24,28.62l-2.07,4.25C2088.16,859.45,1947.64,792.24,1872.36,839.48Z"/></g><path class="cls-6" d="M882.48,715S836.62,419.76,757,435.22s74.58,191,85.21,277.41Z"/><path class="cls-9" d="M880.86,710S741.12,392.77,640.23,433.15,789.85,625.36,827.05,719Z"/><path class="cls-8" d="M850.8,715.25c-24.52-65.1-73.33-126.86-110-167.2-39.72-43.74-74.05-72.41-74.39-72.7l1.78-2.13c.34.28,34.82,29.08,74.67,73,36.79,40.52,85.83,102.58,110.5,168.09Z"/><path class="cls-3" d="M551.62,760.26c67.8,36.67,24,142.68,112.31,146.31s83.06-3.68,112.31,43.65c0,0,5.38,39.1,36.5,54.37,122.77,60.28,355.22-79.66,250.88-224.29-7.54-10.44-20.87-17.49-35.86-24.52-81.34-38-119.24-6.64-157.2-126.53S699.68,626.84,644,605.18s-101-53.42-163.14-5.81S483.81,723.64,551.62,760.26Z"/><path class="cls-4" d="M982,907.52l3.88-3.25c-1.43-1.72-147.6-173-520.23-290.69l-1.53,4.84C835.33,735.69,980.55,905.81,982,907.52Z"/><path class="cls-4" d="M790.62,694.86c62.42-30.17,81.39-63,82.17-64.38L868.37,628c-.18.32-19.14,32.9-80,62.29Z"/><path class="cls-4" d="M766.8,744.89c21-20.46,30-56.16,25.84-103.21a338.05,338.05,0,0,0-12.54-65.2L775.27,578c.37,1.16,36.31,116.18-12,163.24Z"/><path class="cls-4" d="M670.52,707.76c7.32-3.22,11.43-5.5,11.62-5.61l-2.5-4.41c-.86.49-87.54,48.39-185.72,16.65l-1.56,4.82C571.48,744.79,643.24,719.75,670.52,707.76Z"/><path class="cls-4" d="M589.18,806.21c29.92-18.66,43.69-42,50-58.27,6.83-17.73,6.54-30.91,6.53-31.47l-5.07.14c0,.51.67,51.14-54.12,85.3Z"/><path class="cls-6" d="M844,698.93l-2.44-.93c.14-.38,14.44-38.39,17.68-99.14,3-56.06-3.12-143.49-49.11-241.69l2.37-1.11c46.25,98.74,52.36,186.68,49.34,243.05C858.56,660.24,844.14,698.55,844,698.93Z"/><path class="cls-6" d="M825.32,422.94c-25.56-7.32-41.21-25.64-41.39-25.85l2-1.68c.2.23,20.27,23.67,51.9,27.38l-.31,2.6A76.8,76.8,0,0,1,825.32,422.94Z"/><path class="cls-6" d="M812.45,342.66c9.88,15.82,9.09,22.85,4.49,25.72s-11.26.49-21.13-15.32c-18-28.82-18.36-47.94-18.36-47.94S794.2,313.43,812.45,342.66Z"/><path class="cls-6" d="M793,390.89c14.18,12.1,15.55,19,12,23.17s-10.59,3.86-24.77-8.24c-25.84-22.05-32-40.17-32-40.17S766.79,368.52,793,390.89Z"/><path class="cls-6" d="M862.52,390.22c-.67,13.81-5.26,17.71-10.67,17.44s-9.6-4.58-8.93-18.39c1.22-25.16,11.61-36.84,11.61-36.84S863.76,364.7,862.52,390.22Z"/><path class="cls-10" d="M1491.54,1319V1158.74H1168.23V1319c0,41.66-27.72,75.42-61.91,75.42h-13v20.7h473.19v-20.7h-13C1519.26,1394.44,1491.54,1360.68,1491.54,1319Z"/><path class="cls-11" d="M1563.84,1415.14H1095.93a10.35,10.35,0,0,1-10.35-10.35h0a10.35,10.35,0,0,1,10.35-10.35h467.91a10.35,10.35,0,0,1,10.35,10.35h0A10.35,10.35,0,0,1,1563.84,1415.14Z"/><path class="cls-12" d="M1880.62,1257.15,787.27,1244.6A42.73,42.73,0,0,1,745,1201.87V534.55a42.73,42.73,0,0,1,42.07-42.72L1866.35,475.3a42.73,42.73,0,0,1,43.38,41.86l14.1,696.39A42.73,42.73,0,0,1,1880.62,1257.15Z"/><rect class="cls-13" x="787.4" y="542.52" width="1079.1" height="582.28" rx="22.92"/><path class="cls-14" d="M1465,481.48a249.51,249.51,0,0,0-31.66-79.84c-1.28-2.13-2.61-4.25-4-6.36a295.06,295.06,0,0,0-44.87-54l0,0a315.88,315.88,0,0,0-39.43-31.87q-5.36-3.66-10.79-7.07-5.73-3.59-11.57-6.9l-1.56-.87q-11-6.16-22.21-11.27h0c-35-15.93-71.66-24.34-108.26-24.84h0q-9.95-.13-19.87.51-7.24.46-14.47,1.36a250.71,250.71,0,0,0-26.08,4.61c-1.32.33-2.63.62-4,.94-2.63.65-5.24,1.32-7.86,2q-9.81,2.67-19.42,5.91t-18.93,7l-1.86.77q-6.51,2.67-12.86,5.62-8.4,3.88-16.55,8.2-6.13,3.25-12.11,6.74l-2,1.16c-45.11,26.74-83,63.49-108.16,106.32a238,238,0,0,0-25.17,59.9q-2,7.53-3.41,15.09-1.83,9.63-2.72,19.28a194.28,194.28,0,0,0,5.83,69.34,0,0,0,0,0,0,0l.28,1c.1.35.18.69.29,1q3.12,11.33,6.62,22,5.06,15.42,10.86,29.39c.25.6.5,1.2.76,1.8,1,2.48,2.1,4.91,3.18,7.31h0c1,2.31,2.09,4.59,3.17,6.84q3.57,7.5,7.39,14.53c.33.62.67,1.24,1,1.86,1.86,3.35,3.75,6.63,5.7,9.83l.61,1c.18.31.37.63.58.94s.46.75.69,1.13c1,1.58,2,3.15,3,4.7.59.91,1.19,1.8,1.79,2.67,1.12,1.67,2.26,3.32,3.42,4.93a201.53,201.53,0,0,0,36.71,39.57A178.78,178.78,0,0,0,1038.33,753c1.22.46,3.44,1.35,6.46,2.66a276.82,276.82,0,0,1,34,17.81c.7.42,1.4.85,2.12,1.31,4.91,3.07,10,6.48,15.21,10.24,17.32,12.54,35.43,28.91,49.67,49.41a153.54,153.54,0,0,1,17.29,32.28,140.53,140.53,0,0,1,6.76,23.11,1.24,1.24,0,0,0,1.48,1l19.94-4.63,113.52-26.36h0a1.24,1.24,0,0,0,.78-.59,1.25,1.25,0,0,0,.19-1c-.08-.38-2.9-15.33-1.21-37.6,2.69-35.54,16.87-89.74,72-133.19,39.29-28.81,66.54-63.3,80.83-101.36C1469.66,553.38,1472.4,518.09,1465,481.48Zm-89.89,203.87c-56.09,44.18-70.42,99.35-73.1,135.46a164.91,164.91,0,0,0,1,36.71l-112.38,26.09L1172,887.94a141.55,141.55,0,0,0-7.06-23.37,156.68,156.68,0,0,0-18.3-33.36c-14.7-20.61-33.18-37-50.71-49.51-5.23-3.73-10.39-7.12-15.32-10.17l-2.18-1.32a279.15,279.15,0,0,0-32.25-16.8c-3.27-1.43-5.66-2.38-6.94-2.87a175.82,175.82,0,0,1-51-29.2,191.66,191.66,0,0,1-25-24.74q-4.89-5.79-9.49-12.11c-1.2-1.63-2.37-3.29-3.53-5-.22-.29-.43-.6-.64-.93-1.53-2.22-3-4.51-4.52-6.84l-.71-1.12-1.2-1.93c-1.49-2.42-3-4.9-4.4-7.42q-2-3.39-3.82-6.9-3-5.64-5.89-11.6-2-4.1-3.88-8.34-1.47-3.3-2.9-6.68c-.26-.59-.51-1.19-.76-1.8a434.13,434.13,0,0,1-17.14-50l-.36-1.28c-.07-.28-.16-.56-.23-.84l-.33-1.19c0-.06,0-.12,0-.18a191.85,191.85,0,0,1-6.8-50.83A198.07,198.07,0,0,1,901,481q1.35-6.47,3.14-12.91a238.25,238.25,0,0,1,24.56-57.22c24.57-41.82,61.39-77.79,105.23-104.2l2-1.22q6.22-3.69,12.62-7.12,9-4.82,18.3-9.09,6.4-3,12.95-5.63l1.85-.75q7.11-2.86,14.4-5.41,9.75-3.44,19.72-6.23,5.45-1.55,11-2.89c1.3-.32,2.62-.63,3.93-.92q11.86-2.76,23.88-4.32c1.4-.2,2.8-.37,4.2-.52h0q5.13-.6,10.28-1a260.64,260.64,0,0,1,109.29,16l.15,0a286.64,286.64,0,0,1,40.57,18.71l1.58.88q5.86,3.3,11.63,6.9t11.35,7.4a306.28,306.28,0,0,1,52.5,45.49l0,0a297.2,297.2,0,0,1,29.87,38.35c1.47,2.23,2.9,4.49,4.29,6.76,15.61,25.41,26.71,52.57,32.2,79.92,7.3,36.25,4.55,71.22-7.7,103.56C1440.7,623.07,1413.83,657,1375.13,685.35Z"/><path class="cls-15" d="M1151,264.27c153-35.5,306.38,81.75,333.35,215.64,16.94,84.15-20.1,154.84-87.93,204.57-91.45,72-71.34,172.15-71.34,172.15l-133.47,31c-18.31-90.94-119.38-132.75-132.25-137.73C998,727.16,950.68,673.21,922.8,571,886.94,439.48,998,299.76,1151,264.27Z"/><path class="cls-12" d="M1180.25,853.87s-40.83,16.1-21,61.58c0,0-23.24,39.29,10.35,59.66,0,0-17.22,39.46,12.61,67s199-27.4,208.91-48.48-1.06-40.44-16.57-42.05c0,0,17.18-21,7.71-40S1361.31,891,1361.31,891s13.69-12.57,9.71-39.81S1330.16,796.28,1180.25,853.87Z"/><path class="cls-11" d="M1169.75,978.14a2.94,2.94,0,0,0,1.34-.46c.15-.09,14.7-9.36,37.91-17.65,21.35-7.64,54.62-16,91.87-12.44a3.1,3.1,0,0,0,3.31-2.76,2.92,2.92,0,0,0-2.59-3.31c-38.39-3.66-72.63,5-94.59,12.81-23.8,8.53-38.36,17.81-39,18.21a3.14,3.14,0,0,0-1,4.21A2.86,2.86,0,0,0,1169.75,978.14Z"/><path class="cls-16" d="M1370,325.72c-37.25-35.41-87.39-53.73-138.78-52.68-42.51.86-95.16,12.27-124.22,57.5-54.09,84.22,168.33,210.07,245.2,197.11s78.93-58.79,66.64-116C1411.78,378.91,1395.5,350,1370,325.72Z"/><path class="cls-11" d="M1159.39,918.49a3.11,3.11,0,0,0,1.08-.32,389.91,389.91,0,0,1,47.86-19.44c25.1-8.35,61.46-17.4,92.08-13.14a3.09,3.09,0,0,0,3.42-2.61,2.93,2.93,0,0,0-2.45-3.43c-31.76-4.42-69.1,4.85-94.83,13.41a397.29,397.29,0,0,0-48.61,19.76,3.15,3.15,0,0,0-1.43,4.1A2.87,2.87,0,0,0,1159.39,918.49Z"/><g class="cls-5"><path class="cls-17" d="M1257.25,683.39a93.33,93.33,0,0,0,33.88-21.71c17.06-17.43,21.78-40.74,12.61-62.33-7-16.56-20.39-27-33.27-25.94-6.38.52-18,4.49-24.32,25.12-5.42,17.76-4.87,46.05-1.49,76.76a117.2,117.2,0,0,1-24.51,4.19c-2.64-17.17-6-32.19-10.21-42.77-2.6-6.52-5.55-11.36-8.87-14-17.71-13.83-41-9.6-54.84,1.68-12,9.76-16,24-10.58,37.1,5.34,12.93,23.49,23.37,48.56,28,1.84.34,3.75.64,5.69.9a145.9,145.9,0,0,0,20.22,1.33c5.57,44.28,8.13,103.87,8.37,146.82l5.75-.21h0l5.77-.22c0-.5,0-1,0-1.59h0c-.15-22.15-1.19-91.18-8.19-145.29a134.84,134.84,0,0,0,24.27-4.19c8.06,62.18,25.72,129.73,27.93,138.05.07.27.13.48.17.62l5.48-1.72h0l5.6-1.75C1285,821.12,1265.57,748.06,1257.25,683.39Zm-63.28-4.5q-3.85-.46-7.44-1.12c-20.39-3.71-36.57-12.23-40.27-21.18-4.81-11.62,3.26-19.9,7-22.92a34.61,34.61,0,0,1,13.61-6.65c8.84-2.17,18.94-1.1,27.13,5.29,3.58,2.8,6.73,10.3,9.46,21.07,1.88,7.42,3.58,16.39,5.07,26.46A136.53,136.53,0,0,1,1194,678.89Zm63.17-77.11c2-6.68,5.8-14.65,12.34-16.25a10.3,10.3,0,0,1,1.57-.27c7.84-.64,17.15,7.41,22.12,19.12,2.7,6.33,9.92,28.59-10,49a80.72,80.72,0,0,1-27.31,18.07C1252.78,643.14,1252.32,617.55,1257.14,601.78Z"/></g><path class="cls-18" d="M946.35,520.62S959.37,672,1035.89,704s128.87,99.06,145.72,86.11-10-96.92-85.23-132.51S960.14,459.58,946.35,520.62Z"/><g class="cls-19"><path class="cls-17" d="M1212.5,363.89c28.86,11.19,58.72,7.08,111.41,54.06s78.57.5,46.94-53.49-101.35-78.91-132.91-75.58C1174.51,295.57,1163.26,344.79,1212.5,363.89Z"/></g><polygon class="cls-20" points="1491.52 1124.84 1012.22 1124.84 1012.22 930.09 1176.16 934.78 1491.52 1124.84"/><polygon class="cls-21" points="1660.69 1124.84 1181.38 1124.84 1176.16 934.78 1660.69 955.67 1660.69 1124.84"/><polygon class="cls-20" points="1176.16 947.32 1247.69 1094.55 1660.69 1036.08 1660.69 1015.19 1176.16 934.78 1176.16 947.32"/><polygon class="cls-21" points="1176.16 934.78 1251.87 1071.58 1749.45 1022.5 1690.06 918.08 1176.16 934.78"/><polygon class="cls-21" points="1176.16 934.78 1130.74 1071.58 971.14 1027.46 1012.22 930.09 1176.16 934.78"/><path class="cls-22" d="M1481.46,773.17l9.8-35.82c-.2.81-22.06,1.92-55.14,51.73-3.26,4.9-19.2-61.64-25.31-65.7-3.75-2.48-14.18,5.84-14.18,5.84-.06,7.63-1,23.6,1.93,46.57,1.77,13.92,3.89,25.16,6.32,33.42a55.83,55.83,0,0,0,5.84,13.91c5.84,9.32,13.46,10.74,17.48,10.74C1462,833.86,1481.42,773.33,1481.46,773.17Z"/><path class="cls-22" d="M1398.62,748.12s-14.82,5.16-22.26.76-13.61-15.64-8.42-13.89a57.07,57.07,0,0,1,11.2,5.81s-12.44-9.28-9-11.25,14.17,6.21,14.17,6.21-13.92-12.23-10.07-13,14.35,8.55,14.35,8.55-12.5-11.89-8-12.73,10.26,9.9,13.69,7.93,16.88-9.15,19.52,1.2Z"/><path class="cls-23" d="M1385,743.78h0c-2.8.53-6-2.62-6.09-2.76a.32.32,0,1,1,.46-.44s3.05,3,5.51,2.58a.31.31,0,0,1,.37.25A.31.31,0,0,1,1385,743.78Z"/><path class="cls-23" d="M1391.3,739.25l-.08,0a11.18,11.18,0,0,1-7.14-3.29.32.32,0,0,1,0-.46.31.31,0,0,1,.44,0s3,3.05,6.7,3.1a.31.31,0,0,1,.31.32A.3.3,0,0,1,1391.3,739.25Z"/><path class="cls-23" d="M1395.11,734.59c-2.92.75-6.6-2.93-6.76-3.09a.33.33,0,0,1,0-.45.29.29,0,0,1,.45,0s3.59,3.58,6.16,2.93h0a.33.33,0,0,1,.39.22A.37.37,0,0,1,1395.11,734.59Z"/><path class="cls-11" d="M1417.15,1037.13s-2.64,17.12-9.68,25.85c-4.64,5.75-17.44,17.14-8.34,20.94,7.27,3,21.27-10.47,25.81-13.83s11.4-9.71,9.88-15.13c-3.15-11.22-2.11-25.33-2.11-25.33Z"/><path class="cls-11" d="M1452.3,1023.85s3.52,17,0,27.57c-2.34,7-10.35,22.1-.48,22.52,7.88.33,16.27-17.15,19.35-21.87s7.28-13,4-17.6c-6.88-9.43-10.85-23-10.85-23Z"/><path class="cls-14" d="M1447.37,1035.83c-94.36-62.45-89.7-117.17-76.62-138.57,15.18-24.85,39.23-44.5,76.08-53.27a205.1,205.1,0,0,1,27-4.46,18.81,18.81,0,0,1,20.76,19.12l-.85,31.87h.08c-15.75-.33-63.51,4.43-76,29.69-2.6,5.25,60.91,79.28,58.54,92.57C1473.65,1027.8,1456.59,1041.94,1447.37,1035.83Z"/><path class="cls-14" d="M1410.78,1045.19a18.71,18.71,0,0,1-18.86-19.74c1.42-23.9,5.89-64.57,19.92-95.3,8-17.43,20.59-33.28,37.58-47.1A210.23,210.23,0,0,1,1495,855.36c29-13.23,49.85-11.38,49.85-11.38l29.58,25c-.21,0,4.89,35.08-31.92,55.45-37.69,20.87-66.47,5.35-81.75,35-10.91,21.19-15.07,49.27-16.46,68.9a18.06,18.06,0,0,1-18,16.71Z"/><path class="cls-24" d="M1395.5,992.49l-.58,0a260.63,260.63,0,0,1,8.18-45.78c6.16-22.35,18.1-51.72,40.05-64.76l.3.5c-21.79,12.94-33.67,42.17-39.79,64.41A259.47,259.47,0,0,0,1395.5,992.49Z"/><path class="cls-24" d="M1443.59,1033.11H1443a168.3,168.3,0,0,1,11.32-59.23l.53.23A168,168,0,0,0,1443.59,1033.11Z"/><path class="cls-25" d="M1561.09,756s-9.91-26.09-46.72-24.13-45.17,9.3-67.54,112.14c0,0,31,30.39,107.55,35,11.32.69,25,4.56,25.66-6.68C1581.29,849.94,1576.65,807.18,1561.09,756Z"/><path class="cls-25" d="M1587.28,764.74l-26.2,5.88s-66.95,7.78-84.8,4.94-22.94-16.85-22.94-16.85S1472,737.22,1504.11,731a91.29,91.29,0,0,1,9.4-1.33c5.46-.47,10.71-1,16.07-.41C1581.94,734.69,1587.28,764.74,1587.28,764.74Z"/><path class="cls-22" d="M1529.58,729.24c-3.25,6.42-14,13.12-20.91,11.73-5.51-1.12-2.16-7-1.64-7.91,1.27-2.36,2.57-3.14,2.16-5.44l-.58-3.33,0-.07-1-5.46-.93-5.27-3.18-17.88,9.49,16.61,1.61,2.83,1.48,2.59,4.06,7.1C1521.94,727.88,1529.55,729.24,1529.58,729.24Z"/><path class="cls-22" d="M1482.68,875.73s-15.77.61-21.64,7.69-8,20.53-3.4,16.91a60.36,60.36,0,0,0,9.14-9.86s-9.11,13.77-5,14.49,12-11.33,12-11.33-9.53,17.24-5.37,16.66,11.3-13.73,11.3-13.73-8.21,16.39-3.4,15.6,6.7-13.59,10.87-12.87,21,2.18,24.4-9.07Z"/><path class="cls-23" d="M1467.09,890.61l-.62-.28c.09-.19,2.11-4.46,5.11-5l.11.68C1469.05,886.48,1467.11,890.57,1467.09,890.61Z"/><path class="cls-23" d="M1474.12,893.77l-.62-.27c.08-.18,2-4.37,6-5.88l.24.63C1476,889.67,1474.14,893.73,1474.12,893.77Z"/><path class="cls-23" d="M1480.05,896.7l-.61-.28c.1-.23,2.48-5.3,5.72-5.55l0,.68C1482.37,891.78,1480.08,896.65,1480.05,896.7Z"/><path class="cls-11" d="M1539,771.38c.48,3.39,11.68,4.66,25,2.82s23.77-6.06,23.3-9.46-11.67-4.65-25-2.82S1538.49,768,1539,771.38Z"/><path class="cls-22" d="M1506.83,896.56c50-20.83,69.05-48.18,74.57-73.18,7.14-32.35.66-55.41.33-56.57,0,0-2.74-3.36-19.58-.31-15,2.72-15.88,6.25-15.88,6.25a92,92,0,0,1,.66,44.38c-7.23,30.79-27.62,46.57-64.25,58.6C1482.68,875.73,1497.77,900.32,1506.83,896.56Z"/><path class="cls-11" d="M1539,771.61a.23.23,0,0,1-.21-.18c0-.11-2.58-11-1.26-18.86,0-.13.17-.23.26-.18a.21.21,0,0,1,.18.25c-1.31,7.78,1.22,18.58,1.25,18.69a.22.22,0,0,1-.17.26Z"/><path class="cls-23" d="M1562.63,851.21a1.77,1.77,0,0,1-1-.25,2.08,2.08,0,0,1-1-1.35c-.42-1.53.14-3.89,1.46-6.17,1.9-3.28,4.65-5.18,6.32-4.17a2.17,2.17,0,0,1,1,1.36c.41,1.53-.15,3.89-1.47,6.15C1566.41,849.49,1564.25,851.21,1562.63,851.21Zm4.87-11.29c-1.15,0-3.07,1.43-4.56,4-1.18,2-1.72,4.18-1.37,5.47a1.24,1.24,0,0,0,.55.81c1,.52,3.34-.85,5.08-3.85,1.18-2,1.72-4.18,1.38-5.47a1.31,1.31,0,0,0-.56-.82A1.17,1.17,0,0,0,1567.5,839.92Z"/><path class="cls-11" d="M1516.09,717.64s-2.66,5.09-7.48,6.65l0-.07-1-5.46Z"/><path class="cls-10" d="M1487.73,692a23.69,23.69,0,0,0,2.14,9.72c2.32,5.16,4.94-9.33,4.94-9.33Z"/><path class="cls-22" d="M1489.55,703.45c-.92-10.75,5.62-20.08,14.6-20.84s17,7.34,17.94,18.1-5.62,20.08-14.6,20.84S1490.47,714.2,1489.55,703.45Z"/><path class="cls-11" d="M1521.28,695.16l-7.89.88a5.78,5.78,0,0,1-4.72-1.61c-2.13-2.11-4.31-3-11.45-1.13-9,2.32-16.26-1.77-18.28-6.29s1.87-8.9,7-7.59,1.87-3.92,6.15-5.47c8-2.91,10.91,3,17.6,1.39,8.78-2.19,26.08,1,22,18.1Z"/><path class="cls-26" d="M1504.81,701.46a.32.32,0,0,1-.21-.21.33.33,0,0,1,.22-.41,3.61,3.61,0,0,1,4.19,1.29.34.34,0,0,1,0,.47.37.37,0,0,1-.46-.05,5.64,5.64,0,0,0-3.48-1.08A.37.37,0,0,1,1504.81,701.46Z"/><path class="cls-26" d="M1507.12,705.27c0,.78-.54,1.4-1.11,1.37s-1-.69-1-1.47.54-1.4,1.11-1.37S1507.16,704.49,1507.12,705.27Z"/><path class="cls-26" d="M1492.64,703.1a.21.21,0,0,1-.21-.12.39.39,0,0,1,0-.46,2.33,2.33,0,0,1,3.38-.34.37.37,0,0,1,.11.44.25.25,0,0,1-.35.13,3.48,3.48,0,0,0-2.8.28A.21.21,0,0,1,1492.64,703.1Z"/><path class="cls-26" d="M1496.31,705.75a1.27,1.27,0,0,1-.5,1.68c-.54.19-1.2-.25-1.46-1a1.27,1.27,0,0,1,.5-1.68C1495.39,704.57,1496,705,1496.31,705.75Z"/><path class="cls-10" d="M1531.62,693.44s-2.81,12.58-10.19,15.06c0,0,4.2-10-9.86-12.54C1511.57,696,1523,691.55,1531.62,693.44Z"/><path class="cls-22" d="M1522.35,702.06a3.41,3.41,0,0,1-4.76.25,3.34,3.34,0,0,1,.29-4.72,3.39,3.39,0,0,1,4.76-.25A3.34,3.34,0,0,1,1522.35,702.06Z"/><path class="cls-17" d="M1496.17,712.46a33.65,33.65,0,0,0,10.58-1.44s.31,5.16-5.41,5.36C1498,716.5,1496.17,712.46,1496.17,712.46Z"/><path class="cls-11" d="M1486.57,678.47l-.07-.43a2,2,0,0,0,1.92-2.17l.44,0A2.45,2.45,0,0,1,1486.57,678.47Z"/><path class="cls-17" d="M1494.08,691.34c-.43,0-10.59-.77-12.13-5.79-.45-1.44-.4-2.5.12-3.2.73-1,2.21-1.08,3.67-1.08.53,0,1,0,1.49,0v.23h-1.49c-1.41,0-2.83.11-3.49,1-.48.64-.51,1.62-.09,3,1.49,4.89,11.83,5.64,11.93,5.64Z"/><path class="cls-17" d="M1506.92,677.57a14.42,14.42,0,0,1-8.27-2.31l.13-.18s5.82,4.32,15,1l.08.2A20.19,20.19,0,0,1,1506.92,677.57Z"/><path class="cls-23" d="M1440.8,812.09h0a.53.53,0,0,1-.51-.54c.26-13.5-6.79-24.31-6.86-24.42a.54.54,0,0,1,.14-.73.57.57,0,0,1,.73.15c.07.12,7.3,11.19,7,25A.53.53,0,0,1,1440.8,812.09Z"/><path class="cls-23" d="M1396.44,749.32a.53.53,0,0,1-.51-.43.52.52,0,0,1,.41-.61c.08,0,8.06-1.67,11.55-7.4a.5.5,0,0,1,.72-.16.52.52,0,0,1,.18.72c-3.74,6.11-11.9,7.79-12.25,7.87Z"/><path class="cls-22" d="M1870.49,995.37c-.42-4-3-11.87-3.54-15.88-.22-1.74-1.35-7.56-3.08-7.72-1.51-.14-2.77,4.72-3.09,7.14-9.35-11.41-25.54-22.85-7.86.82l0,0c-1.67-1.92-13.45-16.43-15.76-13.1-1.69,2.43,8.35,14.09,11.06,17.28l-.07.08c-3-3-11.66-12.63-13.4-10.39-2.28,2.94,9.24,15,9.24,15s-9.32-10.21-10.44-6c-.63,2.4,5.07,8.28,8.67,11.89h0c.75.75,1.42,1.41,1.91,1.92a7.11,7.11,0,0,0,1.21,1,66.14,66.14,0,0,0,11.32,8.35s5.33,4.12,10.56-.31C1870.52,1002.68,1870.68,997.11,1870.49,995.37Z"/><path class="cls-22" d="M1954.92,1074.87a433.54,433.54,0,0,0-9.22,80.93l33.68-115.74s-22.71-6.16-51.32-14.55c-20.51-6-55.6-33.68-59.47-36-4.17-2.45-19.07,15.68-19.07,15.68C1846.2,1011.14,1899.47,1061.46,1954.92,1074.87Z"/><path class="cls-27" d="M2033.07,1071.4s-9.41-23.8-42.79-25.81c-50.91-3.06-57.39,58.26-64.28,128.46,0,0,53.3,1.81,119.19,24.13C2045.19,1198.18,2056,1077.87,2033.07,1071.4Z"/><path class="cls-27" d="M2053.29,1063.48l-20.43,21.82s-73.84,3.32-81.6-11.29c-11.85-22.32,5.41-40.11,5.41-40.11s14.51,2.32,45.42,7.94C2035.07,1047.84,2053.29,1063.48,2053.29,1063.48Z"/><path class="cls-11" d="M2006.21,1091.47c2.06,3.86,14.38.89,27.52-6.62s22.13-16.72,20.07-20.58-14.38-.88-27.52,6.63S2004.15,1087.62,2006.21,1091.47Z"/><path class="cls-22" d="M2009,1038.83l.38-10.71.12-3.46.7-20.31-6.85,18.08-4.11,10.86-1.17,3.09a5.12,5.12,0,0,1-6.17,3.17h0c-2.23,1.49-2,7,1.31,9,6.1,3.74,14.24.07,20.49-4C2013.6,1044.45,2008.83,1042.63,2009,1038.83Z"/><path class="cls-11" d="M2009.49,1027.84l-.15.28c-3,5.44-10.12,5.22-10.12,5.22l0,0,4.11-10.86c2.11.2,5,.75,6.15,2.23A2.79,2.79,0,0,1,2009.49,1027.84Z"/><ellipse class="cls-22" cx="2008.1" cy="1006.77" rx="22.34" ry="17.82" transform="translate(299.09 2464.61) rotate(-67.09)"/><path class="cls-21" d="M1992,1024.62a.35.35,0,0,0,0-.69s-5.13-.64-7.87-4.7c-.88-1.3-1.16-2.4-.84-3.28a3,3,0,0,1,1.86-1.62.35.35,0,0,0-.19-.67,3.72,3.72,0,0,0-2.32,2c-.4,1.11-.09,2.42.91,3.91a12.63,12.63,0,0,0,8.37,5Z"/><path class="cls-11" d="M2019.62,994.8c-2.27,3.39-2.67,6.68-14.95,4.07,0,0-2.38.35-1.56-1.7s5-3.76,4.58-6.79c0,0-15.66,12.94-16.65,8.11s.87-18,10.19-22,29.11,3.7,29.68,11C2031.73,998.1,2021.56,991.9,2019.62,994.8Z"/><path class="cls-11" d="M2029.44,991.41s-5.42-1.12-6.23,1.21-6.17,4.86-3.6,7.83,2.94,4.17,1.79,6.62c-.8,1.71.38,6.92-.17,10.86-.23,1.72-2.57,4.47-2.57,4.47s14.21,1.7,18.64-13.69C2040.19,998.7,2033.1,991.63,2029.44,991.41Z"/><path class="cls-22" d="M2022.42,1017.46c-2.64.9-5.26-.15-5.86-2.35s1-4.69,3.69-5.59,5.26.16,5.86,2.35S2025.06,1016.56,2022.42,1017.46Z"/><path class="cls-21" d="M2018.45,1032.39a5.9,5.9,0,0,0,5.19-4.12,13.64,13.64,0,0,0-.68-8.77.38.38,0,0,0-.7.31,13.07,13.07,0,0,1,.66,8.24c-.67,2.15-3,3.85-4.91,3.55s-2.89-2.37-2.85-5.85c.09-8.8,5.82-9.37,6.07-9.39a.38.38,0,0,0,.34-.41.36.36,0,0,0-.41-.35c-.06,0-6.66.63-6.76,10.14-.06,5.46,2.42,6.44,3.49,6.6A3.53,3.53,0,0,0,2018.45,1032.39Z"/><path class="cls-11" d="M2039.22,994.86a.47.47,0,0,0,.36-.07.47.47,0,0,0,.11-.65,7.23,7.23,0,0,0-7-3.35.47.47,0,0,0,.15.92,6.34,6.34,0,0,1,6.06,3A.44.44,0,0,0,2039.22,994.86Z"/><path class="cls-11" d="M2032.45,989.68a.43.43,0,0,0,.5-.25c.06-.12,1.41-3,.62-4.74a.46.46,0,0,0-.61-.22.48.48,0,0,0-.22.62c.51,1.1-.26,3.22-.6,3.94a.46.46,0,0,0,.21.62A.17.17,0,0,0,2032.45,989.68Z"/><path class="cls-28" d="M1995.38,1018a35.26,35.26,0,0,0,11.24,2.33,5.51,5.51,0,0,1-7.4,3.65C1995.81,1022.89,1995.38,1018,1995.38,1018Z"/><path class="cls-17" d="M1995.38,1018s.88,1.59,3.87,2.73,7.37-.4,7.37-.4S1999.58,1019.65,1995.38,1018Z"/><path class="cls-26" d="M1993.71,1005a.38.38,0,0,1-.27-.21.4.4,0,0,1,.16-.52,4,4,0,0,1,5,.61.38.38,0,0,1,0,.54.41.41,0,0,1-.53,0,6.32,6.32,0,0,0-4.12-.5A.41.41,0,0,1,1993.71,1005Z"/><path class="cls-26" d="M2008.6,1007.92a.39.39,0,0,1,.05-.73,4,4,0,0,1,4.7,1.72.41.41,0,0,1-.09.54.42.42,0,0,1-.53-.08,6.36,6.36,0,0,0-3.89-1.44A.33.33,0,0,1,2008.6,1007.92Z"/><path class="cls-26" d="M2007,1011.35a1.56,1.56,0,1,0,2-1.45A1.73,1.73,0,0,0,2007,1011.35Z"/><path class="cls-26" d="M1996.08,1008.86c.08,1,.76,1.74,1.52,1.68a1.85,1.85,0,1,0-1.52-1.68Z"/><path class="cls-29" d="M2045.19,1198.18c-1.74,7-32.29,21.2-65.48,13.83s-55.45-31-53.71-38,30.8-9.93,64-2.56S2046.92,1191.23,2045.19,1198.18Z"/><path class="cls-11" d="M1987.69,1417.93s.54,8.91-5.71,11.92-24.81,6.69-17.3,11.87c4.31,3,23.07-.59,28.42-1s10.57,1.38,14.25-2.25c4.05-4-1.92-21.9-1.92-21.9s-4.42,2.59-8.58,2.81C1990.85,1419.7,1987.69,1417.93,1987.69,1417.93Z"/><path class="cls-11" d="M2080.08,1383.61s14.58,34.83,11.94,41.18-14,21.34-4.89,20.25c5.22-.62,16.81-15.64,20.52-19.47s8.81-5.93,9.11-11.06c.33-5.65-18.34-23.24-18.34-23.24s-2.37-25.57-5.33-22.67C2088.83,1372.78,2080.08,1383.61,2080.08,1383.61Z"/><path class="cls-14" d="M1933.06,1198.19c1.94-28.33,63.12,3.07,63.12,3.07s25.76,194.34,14,221.61c-2.32,5.38-12.31,5.3-17,4.79-33.08-3.57-41.29-100.7-49.93-143.39C1938.94,1262.85,1931.88,1215.32,1933.06,1198.19Z"/><path class="cls-14" d="M2038.56,1197.62c-15-14-56.16-19.24-102.29-16.53-2.12.12-3.22,4.21-3.34,6.18,0,0-.18,17.45.23,22.74.9,11.71,110.33,7.41,110.33,7.41S2040.85,1199.78,2038.56,1197.62Z"/><path class="cls-14" d="M1967.15,1199.54s39.35,151.69,103.46,204.85a20.21,20.21,0,0,0,22.16,2.29l11.36-5.89a15.47,15.47,0,0,0,6.57-21.14c-17-31.38-57.52-110.88-71.21-180.5Z"/><path class="cls-11" d="M2008.4,1314.63c-.17-.4-17.06-40.51-23-63.27-5.81-22.52-21.61-28.9-21.77-29l.29-.73c.16.07,16.32,6.57,22.24,29.48,5.88,22.72,22.74,62.78,22.91,63.18Z"/><path class="cls-21" d="M1933.67,1130a14.83,14.83,0,0,0,11.27-1.42.58.58,0,0,0-.59-1,13.52,13.52,0,0,1-10.37,1.31.58.58,0,0,0-.31,1.11Z"/><polygon class="cls-30" points="1995.13 1250.48 1788.65 905.87 1654.3 985.2 1860.78 1329.8 1995.13 1250.48"/><path class="cls-31" d="M1635.91,991.05l5.37,8.7,27.07,43.87,69.72,113,108.32,175.52a11.1,11.1,0,0,0,15.07,3.7l58.31-34.43,12-7.08L1939,1290l16.08-9.49,24-14.17,14.49-8.55a11,11,0,0,0,5.39-9.34,10.63,10.63,0,0,0-1.37-5.39l-.29-.54-4.47-8-3-5.34-3-5.34-37.39-67.25-18.33-33-1.46-2.63-8.53-15.34-13.38-24.07-4-7.24-14.61-26.27-4.57-8.22-7.44-13.38-3.08-5.54-1.42-2.56-3.67-6.6-3.86-6.95-8.46-15.2L1848.53,975l-.27-.5,0,0-2.19-3.94-2.6-4.69v0l-9.14-16.42-1.7-3h0l-18.21-32.76-.13-.23-.56-1-.39-.7-.91-1.64a27,27,0,0,0-20.54-13.65h0a26.91,26.91,0,0,0-16.3,3.29l-4.93,2.76-.38.21-8,4.49-8.5,4.76-18.31,10.27h0l-14.78,8.3-7.74,4.35-10.38,5.82-29,16.28-25.8,14.48h0l-4.23,2.37-3.59,2A10.93,10.93,0,0,0,1635.91,991.05Zm44.91-16.39,5-2.9L1728.69,947l13.27-7.68.17-.1,21.93-12.68,7.18-4.15,10.67-6.17a10.91,10.91,0,0,1,4.9-1.47,8.71,8.71,0,0,1,1.14,0h0a11.05,11.05,0,0,1,9.1,5.48l.67,1.16.28.49.89,1.54.18.31.91,1.56,33.12,57.09,2,3.54.21.35,7.41,12.78,5.89,10.16,7.41,12.76h0l2,3.53,1.77,3,1.74,3,8.12,14,1,1.82h0l12.67,21.84,19.89,34.28,8,13.87,12.18,21,15.75,27.16,19.6,33.79,18.06,31.14,5.1,8.78c.09.15.17.31.25.46a10.91,10.91,0,0,1-4.18,14.44l-49.27,29.09-4.72,2.78-12.13,7.17-39.93,23.57A11.1,11.1,0,0,1,1857,1313l-92.67-150.84-47.94-78-7.88-12.82L1685,1033l-2-3.33-18-29.32-1.59-2.59a10.53,10.53,0,0,1-.77-1.49,10.78,10.78,0,0,1-.8-5.17,10.91,10.91,0,0,1,1.71-5,10.78,10.78,0,0,1,2.65-2.83,10.06,10.06,0,0,1,1.08-.71l8.92-5.16Z"/><path class="cls-32" d="M1813.78,1064.91c31.78-5.94,68.49,2.73,77.66,51.16,6,31.54-16,63.61-47,72.69-37.71,11-65.42-7.74-78.81-52.44C1756.37,1105.55,1774,1072.33,1813.78,1064.91Z"/><path class="cls-32" d="M1769.55,1012.36c12-2.24,25.8,1,29.25,19.27,2.25,11.88-6,24-17.72,27.38-14.21,4.16-24.64-2.92-29.69-19.76C1747.93,1027.67,1754.58,1015.15,1769.55,1012.36Z"/><path class="cls-32" d="M1875.64,1195.67c12-2.24,25.8,1,29.25,19.27,2.25,11.88-6,24-17.72,27.39-14.21,4.16-24.64-2.92-29.68-19.76C1854,1211,1860.67,1198.47,1875.64,1195.67Z"/><path class="cls-30" d="M1777.7,1149.6v0l0,.12a4.12,4.12,0,0,0,1.69,1.74,4.18,4.18,0,0,0,3.85.08l6.06-3a3.94,3.94,0,0,1,4.94,1c5.29,7.37,11.07,11.54,17,12.72h0a17.85,17.85,0,0,0,5.05.3,22.58,22.58,0,0,0,10.14-3.54l.54-.35a25.66,25.66,0,0,0,3.79-3,26.77,26.77,0,0,0,7.46-14c.18-.78.33-1.56.46-2.37.07-.53.15-1.07.21-1.62a57.81,57.81,0,0,0,.18-10.92v-.13c0-.53-.08-1.06-.12-1.57-.29-3.83-.73-7.08-1-9.81a24,24,0,0,1,0-5.31,6.81,6.81,0,0,1,4-5.56c4.24-2.12,10.32-1.94,14.86,4.07a20.11,20.11,0,0,1,2,3.16,31,31,0,0,1,3.42,12.53.71.71,0,0,1,0,.15,4.1,4.1,0,0,0,4.54,3.71l1.35-.15a4.08,4.08,0,0,0,3.65-4.22,34.1,34.1,0,0,0-2.16-10.31,4.06,4.06,0,0,1,2-5l4.75-2.38a3.82,3.82,0,0,0,.59-.35,4.09,4.09,0,0,0,1.66-3.71v-.09h0a4.07,4.07,0,0,0-.4-1.33,4.14,4.14,0,0,0-5.53-1.82l-5.7,2.85c-1.67.83-4,.69-4.93-.94a30.3,30.3,0,0,0-2.59-4,21.87,21.87,0,0,0-1.68-2,19.4,19.4,0,0,0-16.8-6.4,23.49,23.49,0,0,0-7.87,2.36,13.37,13.37,0,0,0-1.69,1c-5,3.36-7.06,9.23-7.68,16.15-.12,1.22-.19,2.46-.22,3.73,0,.38,0,.76,0,1.15,0,1.72,0,3.49.11,5.28.11,2.36.29,4.75.48,7.14.06.92.11,1.78.13,2.61a34.06,34.06,0,0,1-.11,4.13h0a17.2,17.2,0,0,1-.9,4.26,11.44,11.44,0,0,1-2.25,3.83,16.21,16.21,0,0,1-4.93,3.55c-.43.21-.86.4-1.29.58a6,6,0,0,1-.66.26c-6.39,2.39-13,.88-16.83-6.71a32.89,32.89,0,0,1-2.5-6.61,35.18,35.18,0,0,1-1.12-8.32,4.11,4.11,0,0,0-4.66-4l-1.4.18a4.08,4.08,0,0,0-3.57,4c0,.24,0,.49,0,.74a32.61,32.61,0,0,0,.46,5,39.6,39.6,0,0,0,1.47,6.09h0c.2.64.42,1.28.67,1.92a4.1,4.1,0,0,1-2,5.12l-5.2,2.6A4.06,4.06,0,0,0,1777.7,1149.6Z"/><path class="cls-22" d="M1938.19,1097.16s-11.38-13.59-21.61-13.78-23.43,7.49-17.11,9,14.9,1.12,14.9,1.12-18.31,1.68-16.07,5.9,18.14,2.6,18.14,2.6-21.62,3.77-18.25,7,19.78.3,19.78.3-20,4.34-16,8.05,16.49-3.69,18.73.53,5.18,10.62,24.7,15.25Z"/><path class="cls-33" d="M1921.87,1095.16a.71.71,0,0,0,.54-.24.73.73,0,0,0,0-1c-2.64-2.45-8-1.16-8.19-1.11a.73.73,0,0,0-.54.89.76.76,0,0,0,.9.54s4.77-1.15,6.82.75A.74.74,0,0,0,1921.87,1095.16Z"/><path class="cls-33" d="M1925.4,1103.83a.75.75,0,0,0,.63-.35.72.72,0,0,0-.24-1c-4.22-2.58-9.33-1.25-9.54-1.19a.73.73,0,1,0,.38,1.42s4.72-1.22,8.39,1A.76.76,0,0,0,1925.4,1103.83Z"/><path class="cls-22" d="M2051,1068.13s8.53,69.44-14.21,82.29-91.35-17.25-91.35-17.25l-7.23-36s67.6,21.86,70.29,16.15.28-20.92,5.91-29.93C2021.46,1072.07,2050.22,1060,2051,1068.13Z"/><path class="cls-21" d="M2004.09,1115.05c8.87,2.09,14.31,9.33,19.33,16.36.42.6,1.42,0,1-.58-5.18-7.28-10.85-14.73-20-16.89-.72-.17-1,.94-.31,1.11Z"/><path class="cls-34" d="M1656.28,185.42s-19.47-41.95-68.72-36.69-43.39,47.31-66.84,43.36-56.29,0-63.32,26.28-38.7,11.83-39.87,34.17,36.35,38.11,79.74,18.4,64.49,15.31,125.47,9,68.53-14.23,104.63-10.29,35.23-23.75,18.81-42.15S1663.31,210.83,1656.28,185.42Z"/><path class="cls-34" d="M1913,313.74s-12-25.8-42.26-22.57-26.69,29.1-41.11,26.68-34.62,0-38.95,16.16-23.8,7.27-24.52,21,22.36,23.44,49,11.32,39.67,9.42,77.18,5.51,42.15-8.75,64.34-6.32,21.68-14.61,11.58-25.92S1917.31,329.37,1913,313.74Z"/><path class="cls-34" d="M937.22,276.63s-8-17.26-28.28-15.1-17.85,19.47-27.5,17.85-23.16,0-26.06,10.81-15.92,4.87-16.41,14.06,15,15.68,32.82,7.57,26.54,6.3,51.63,3.69,28.2-5.85,43.05-4.23,14.5-9.77,7.75-17.35S940.12,287.09,937.22,276.63Z"/><path class="cls-35" d="M933.85,1161l20-11.19c-1.51-1.26-51.64-37.25-86.8-98.61,0,0-1.31-3.32-15.06,2.48-14.1,6-13.49,11.34-13.49,11.34C865.63,1129,933,1160.3,933.85,1161Z"/><path class="cls-21" d="M822.89,1323.83c-13.62-73.3,5.3-157.61,113.2-177.65,70.27-13,142.06,38.31,162.67,109.92,25.06,87.06-16.51,150.42-116.06,180.25C914.2,1456.87,839.91,1415.47,822.89,1323.83Z"/><g class="cls-36"><path class="cls-22" d="M949.83,1423A103,103,0,0,1,896,1407.81c-29-17.71-49-49-56.28-88.12-15.43-83.07,21.74-141.29,99.44-155.73,60.26-11.19,124.36,32,142.88,96.3,21.83,75.86-14.17,132-101.37,158.18A107,107,0,0,1,949.83,1423Zm-102.3-104.78c6.84,36.87,25.53,66.26,52.62,82.78,23.58,14.39,51.36,17.83,78.25,9.81,83.56-25,116.76-76.33,96-148.38C1057,1202,997,1161.3,940.62,1171.76,835.67,1191.27,840.55,1280.69,847.53,1318.24Z"/></g><path class="cls-22" d="M977.5,1373.51l-3-8.87a6.46,6.46,0,0,0-7.54-4.31,59.42,59.42,0,0,1-21.73,1.1,6.67,6.67,0,0,1-5.49-6.6v-2.27a6.34,6.34,0,0,1,7.07-6.51,51.69,51.69,0,0,0,23.76-2.45c13.72-4.89,16.68-16.77,12.62-28.62-3.91-11.43-10.46-15.78-26.9-16.92-22.56-1.29-45.35-3.91-51.53-22-5.4-15.76-1.57-35,20.95-43.86,2.69-1.06,3.37-4.8,2.39-7.64l-3.32-9.71a6.6,6.6,0,0,1,3.85-8.4h0a6.4,6.4,0,0,1,8.14,4.13l2.77,8.09a6.42,6.42,0,0,0,7.38,4.35,51.46,51.46,0,0,1,16.34-1.16,6.64,6.64,0,0,1,5.83,6.75l0,2.19a6.33,6.33,0,0,1-6.83,6.39,46.42,46.42,0,0,0-20,2.67c-14.89,5.3-17.22,16.87-14.37,25.18,3.7,10.82,14.47,8.14,33.85,9.63,22.9,1.64,39.69,9.47,47.63,27.31,8.48,19,2.13,36.7-20.75,49.21-2.54,1.39-3.37,4.8-2.4,7.65l3.54,10.34a6.6,6.6,0,0,1-3.85,8.4l-.2.07A6.39,6.39,0,0,1,977.5,1373.51Z"/><path class="cls-11" d="M766.09,1413.54s.24,9.84,6.9,12.61,26,5.28,18.75,11.61c-4.14,3.63-23.64,1.29-29.14,1.29s-10.67,2.39-14.76-1.29c-4.51-4,0-24.22,0-24.22s4.75,2.47,9,2.36C763,1415.74,766.09,1413.54,766.09,1413.54Z"/><path class="cls-11" d="M651.33,1413.83s-2.77,9.44,2.72,14.12,23.1,13,14.3,16.78c-5.05,2.19-22.89-6-28.13-7.68s-10.9-1-13.67-5.73c-3-5.24,7.4-23.07,7.4-23.07s3.77,3.81,7.87,5C647.73,1415,651.33,1413.83,651.33,1413.83Z"/><path class="cls-14" d="M815.49,1172.56c-1.71,18.83-6.89,61.74-11.83,91.41-9.49,57-20.7,114.54-26.19,142.1a21.5,21.5,0,0,1-20.09,17.46l-5.28.21c-10.62.43-19.25-8.7-18.47-19.55L746,1231.37l1-13.64,2.37-44.3c8.17,2.62-17.94-9.56-12.37-4l-12-10.52S796,1150.69,815.49,1172.56Z"/><path class="cls-14" d="M771.3,1173.66,746,1231.37l-76.27,174a23.87,23.87,0,0,1-24,14.39l-4.43-.42c-10.47-1-17.38-11.54-14.3-21.85,0,0,64.34-253.29,80.66-266.34,0,0,16.24,25.5,39.52,33C755.3,1166.68,765.72,1168.08,771.3,1173.66Z"/><path class="cls-21" d="M756.78,1020.36s25.83-32,65-20c8.79,2.7,23.64,12.88,28,17.72,19.53,21.41,20.92,37.38-.89,65.38-12.92,16.59-25.46,47.62-32.77,109,0,0-71.24,3.35-120.35-58C695.86,1134.53,736.8,1040.9,756.78,1020.36Z"/><path class="cls-21" d="M711.61,1100.07s11.81-.26,32.77-6.08c24.81-6.88,70.79-17.66,89.57-14.08,31.86,6.06,42-20.16,42-20.16s-9.43-32.84-38.6-51.44q-4.11-2.62-8.72-5c-5.17-2.63-10.13.36-15.72-.78C761.48,992,711.32,1100.52,711.61,1100.07Z"/><path class="cls-22" d="M820.11,1005.39c-.23-4.19,1.1-4.63,3.77-7.2l8.28-7.94,2.41-2.32,14.18-13.59L840.38,991l-5,10-1.59,3.17c-1.08,2.15-.67,2.77-.12,5.46.22,1.09-.79,4-4.69,4.19C825.24,1014.08,820.41,1010.74,820.11,1005.39Z"/><path class="cls-11" d="M831.5,987.19s-16.15-10.84-10-23.36S834.53,980,834.53,980l-1.09,7.1Z"/><path class="cls-11" d="M832.26,990c0,.09-.07.19-.1.29-1.86,5.72,3.14,10.82,3.14,10.82h.05l5-10c-1.59-1.43-4-3.2-5.81-3.1A2.62,2.62,0,0,0,832.26,990Z"/><path class="cls-22" d="M862.67,979.85c1.37-10.86-4.83-20.59-13.83-21.72s-17.42,6.75-18.79,17.61,4.83,20.59,13.84,21.73S861.31,990.71,862.67,979.85Z"/><path class="cls-11" d="M832.73,973.75s5,2.43,8.21-.89,5.43-6.33,14.44-3.61,11.79-2.5,9.55-7c-3.89-7.8-10.22-9.89-21.33-11.72-5.17-.86-21.58-1-22.14,13.3Z"/><path class="cls-22" d="M829.73,977.1a3.21,3.21,0,1,0-.09-4.79A3.41,3.41,0,0,0,829.73,977.1Z"/><path class="cls-26" d="M849.56,977.77a.3.3,0,0,0,.21-.2.34.34,0,0,0-.2-.43,3.62,3.62,0,0,0-4.27,1.15.33.33,0,0,0,0,.47.38.38,0,0,0,.47,0,5.68,5.68,0,0,1,3.55-1A.26.26,0,0,0,849.56,977.77Z"/><path class="cls-26" d="M847.08,981.55c0,.79.48,1.43,1.06,1.42s1-.65,1-1.45-.48-1.43-1.06-1.43S847.07,980.75,847.08,981.55Z"/><path class="cls-26" d="M860.75,980a.24.24,0,0,0,.22-.11.42.42,0,0,0,0-.47,2.34,2.34,0,0,0-3.39-.49.4.4,0,0,0-.12.45.24.24,0,0,0,.34.14,3.55,3.55,0,0,1,2.81.4A.22.22,0,0,0,860.75,980Z"/><path class="cls-26" d="M857,982.5a1.28,1.28,0,0,0,.43,1.72c.54.22,1.21-.21,1.51-1a1.29,1.29,0,0,0-.44-1.72C857.92,981.34,857.24,981.76,857,982.5Z"/><path class="cls-24" d="M848.32,992.45a7.18,7.18,0,0,1-5.74-2.67.22.22,0,0,1,0-.32.24.24,0,0,1,.33,0c3.43,4.18,8.7,1.88,8.76,1.86a.25.25,0,0,1,.31.11.23.23,0,0,1-.12.31A9.61,9.61,0,0,1,848.32,992.45Z"/><path class="cls-24" d="M842.21,990.67h0a.23.23,0,0,1-.2-.26,3.2,3.2,0,0,1,1.24-1.8.27.27,0,0,1,.35,0,.21.21,0,0,1,0,.31l-.07.06a2.69,2.69,0,0,0-1.07,1.52A.25.25,0,0,1,842.21,990.67Z"/><path class="cls-11" d="M821.34,964a4.29,4.29,0,0,1-.91-5.1l.33.18a3.8,3.8,0,0,0,.82,4.64Z"/><path class="cls-11" d="M818.5,967.25l-.25-.27c.08-.08,2-1.81,3.69-1.81H822v.35h-.08C820.38,965.53,818.52,967.23,818.5,967.25Z"/><path class="cls-11" d="M776.38,1062.64c3,4.42,14.4,2.12,25.56-5.13s17.81-16.71,14.86-21.13-14.4-2.12-25.56,5.14S773.42,1058.23,776.38,1062.64Z"/><path class="cls-24" d="M746.57,1231.59l-1.15-.48,7.32-17.58c4.67-11.11,8-16.87,18.3-21.73l.52,1.13c-10,4.7-13,10-17.66,21.08Z"/><path class="cls-22" d="M881.56,1138.1,865.67,1158c-54.41-41.09-73.34-81-81.69-95-2.75-4.64-.23-11.11,6.12-16.57,11.68-10,23.12-10.51,24.28-8.44C822.85,1053.07,834.57,1102.62,881.56,1138.1Z"/><path class="cls-22" d="M875.06,1169.91l-2.07-2.24a7.34,7.34,0,0,1-1.07-1.42,68.64,68.64,0,0,1-8.73-13.26s11.45-16.7,13.46-16.5c4.65.45,13.61,3.44,18.25,4,2,.24,8.72,1.5,8.75,3.55,0,1.78-5.78,3.32-8.63,3.72,10,8.93,26.1,24.37-1.68,9.3l0,0c2.1,2,17,14.33,13.31,16.13-3.25,1.59-15.14-7.36-18.62-10.53l-.1.09c3.26,3.53,13.11,13,9.54,13.49-4.48.63-16.36-8-16.36-8s8.75,8.87,5.54,9.63c-2.89.68-7.67-3.8-11.56-8Z"/><path class="cls-22" d="M2103.13,1046.68a16,16,0,0,0,14.62,10.27c11.49.52,12.88,13.22,12.88,13.22l20-7.66s-5.75-20.88-7.49-22.1S2103.13,1046.68,2103.13,1046.68Z"/><path class="cls-25" d="M2278.65,1027.89a83.16,83.16,0,0,0-15.31-.32,87.64,87.64,0,0,0-8.86,1.06q-1.14.19-2.25.42a81.67,81.67,0,0,0-55,40.29l-12.47,22.1-36.94-40s-19.45,4.08-25.71,10.78c0,0,17.71,82.57,65.78,81.37s51.66-71.06,51.66-71.06l-5-2.9c22.72,1,72.82-3.76,72.82-3.76l28.78-16.76S2317,1032.44,2278.65,1027.89Z"/><path class="cls-22" d="M2284.76,1027.26c-4.82,5.9-14.07,6.56-21.2,4.55-3.61-1-3.76-4.81-2.63-5.06,2.76-.62,3.14-3,3.24-5.48l.13-3.24,0-.4.17-4.24.31-7.29.79-19.2,6,19.3,1,3.28,3.52,11.28C2277.3,1024.4,2282.86,1026.47,2284.76,1027.26Z"/><path class="cls-11" d="M2273.37,1012.37a13.38,13.38,0,0,1-9.07,5.66l0-.4.17-4.24C2267.82,1013.08,2273.37,1012.37,2273.37,1012.37Z"/><path class="cls-21" d="M2247.69,981a25.14,25.14,0,0,0,0,10.53c1.23,5.85,7.24-8.55,7.24-8.55Z"/><path class="cls-22" d="M2247,993.24c1.5-11.33,10.39-19.51,19.85-18.28s15.93,11.41,14.43,22.74-10.39,19.51-19.86,18.28S2245.48,1004.56,2247,993.24Z"/><path class="cls-21" d="M2281.69,991.78l-8.37-.86a6.1,6.1,0,0,1-4.52-2.72c-1.71-2.66-3.77-4-11.58-3.74-9.88.37-16.41-5.48-17.48-10.61s4-8.79,8.94-6.29,2.83-3.63,7.6-4.28c8.92-1.21,10.59,5.61,17.9,5.39,9.57-.29,26.73,6.93,18.59,23.66Z"/><path class="cls-26" d="M2265.45,994.6a.33.33,0,0,1-.16-.26.36.36,0,0,1,.32-.38,3.81,3.81,0,0,1,4,2.28.36.36,0,0,1-.16.47.39.39,0,0,1-.47-.16,6.12,6.12,0,0,0-3.35-1.9A.33.33,0,0,1,2265.45,994.6Z"/><path class="cls-26" d="M2267,999.06c-.22.8-.87,1.32-1.46,1.17a1.35,1.35,0,0,1-.66-1.74c.22-.8.87-1.32,1.46-1.16A1.34,1.34,0,0,1,2267,999.06Z"/><path class="cls-26" d="M2252,993.57a.27.27,0,0,1-.19-.17.41.41,0,0,1,.14-.47,2.46,2.46,0,0,1,3.57.4.44.44,0,0,1,0,.49.27.27,0,0,1-.39,0,3.69,3.69,0,0,0-3-.34A.23.23,0,0,1,2252,993.57Z"/><path class="cls-26" d="M2255.19,997.13a1.35,1.35,0,0,1-.9,1.63c-.6.07-1.17-.53-1.28-1.36s.3-1.55.91-1.62S2255.09,996.31,2255.19,997.13Z"/><path class="cls-21" d="M2292.77,992.33s-5.78,12.37-14,13.28c0,0,6.63-9.43-7.34-15.18C2271.46,990.43,2284.28,988.43,2292.77,992.33Z"/><path class="cls-22" d="M2281.22,999.16a3.61,3.61,0,0,1-5-.81,3.55,3.55,0,0,1,1.37-4.82,3.6,3.6,0,0,1,5,.81A3.54,3.54,0,0,1,2281.22,999.16Z"/><path class="cls-17" d="M2253.11,1005.21a36,36,0,0,0,11.28.88s-.87,5.41-6.82,4.33C2254.1,1009.79,2253.11,1005.21,2253.11,1005.21Z"/><path class="cls-11" d="M2328.23,1187.23c-.11,4.75-27.42,6.63-61.2,5.53s-60.77-6-60.66-10.78,27.3-7.54,61.08-6.43S2328.35,1182.48,2328.23,1187.23Z"/><path class="cls-25" d="M2320,1052.72s-4.57-19-35.2-24c-4.39-.71-14.29,1.7-19.81,1.67-3.2,0-1.25-2.71-4.1-2.42-53.92,5.49-48.89,65.35-54.48,154,0,0,49.26-17.1,121.82,4.89C2328.19,1186.87,2333.76,1090.77,2320,1052.72Z"/><path class="cls-25" d="M2341.75,1186.06c-2.65-30.69-24.22-111-26.74-115.41-2-3.53,1.6-11.31,7.32-15,5.36-3.48,12.29-7.91,13.9-6.49,22.66,20.09,42.15,93.51,36,134.19Z"/><path class="cls-21" d="M2269.82,1031.71s-7.75-2.52-9.8-.57-.55,10.9,3,11.7S2273.34,1033.86,2269.82,1031.71Z"/><path class="cls-37" d="M2265.27,1029.6s10.1-3.76,12.07-7.52,12.44,4.92,12.26,7.52-19,17-20.26,15.16S2262.8,1032.06,2265.27,1029.6Z"/><path class="cls-37" d="M2265.27,1029.6s-1.51-3.95-.78-6.09c0,0,.48-1.88-1.06-1.75s-9.92,6.28-10.66,8.16-.86,10.69,1.85,11.34,9.24-8.82,10-9.76A2.66,2.66,0,0,0,2265.27,1029.6Z"/><path class="cls-21" d="M2260.87,1039.38S2234.23,1112,2236,1142.44c0,0,1.88,17.76,13.85,27.35,0,0,16.15-11.14,18.32-27.35,1.79-13.32-6.11-90.49-1.55-101.15Z"/><path class="cls-11" d="M2263.1,1043H2263c-2.35,0-3.63-4.88-3.68-5.08l.36-.1c0,.05,1.26,4.76,3.33,4.8h.06c2.1,0,4-2.06,4-2.08l.28.26C2267.3,1040.92,2265.37,1043,2263.1,1043Z"/><path class="cls-11" d="M2372.23,1183.34c.18,4.44-6.53,8.42-15,8.89s-15.48-2.75-15.66-7.2,6.54-8.42,15-8.89S2372.05,1178.9,2372.23,1183.34Z"/><path class="cls-11" d="M2260.28,1417.27s-.23,9.07-6.41,11.63-24.09,4.86-17.4,10.69c3.84,3.35,21.94,1.19,27.05,1.19s9.91,2.21,13.71-1.19c4.17-3.73,0-22.32,0-22.32s-4.41,2.28-8.37,2.18C2263.13,1419.3,2260.28,1417.27,2260.28,1417.27Z"/><path class="cls-11" d="M2347.58,1403.61s12.15,18.91,10.21,25.28-11.52,21.55-2.74,20.13c5-.82,14.87-16.06,18.12-20s8-6.18,7.78-11.25c-.25-5.58-17.36-14.18-17.36-14.18s-1,4.82-3.63,7.8C2356.22,1415.69,2347.58,1403.61,2347.58,1403.61Z"/><path class="cls-21" d="M2220.62,1182.7a3.67,3.67,0,0,0-3.5,3.36c-.71,8.61-1.43,35.54,8.28,93.42,8.81,52.56,19.21,105.52,24.32,130.91a19.9,19.9,0,0,0,18.64,16.09l4.9.2a16.69,16.69,0,0,0,17.15-18L2278,1236.88s.42-55.25-14.44-55.54C2254.65,1181.17,2229.48,1182.28,2220.62,1182.7Z"/><path class="cls-21" d="M2227.78,1182.37s49.76,109.33,64.44,142.69c10.28,23.38,51.54,88.3,51.54,88.3,2.88,9.18,32.77.9,31-8.85,0,0-26-68.08-32.16-91.52-7.78-29.49-20.82-123.31-20.82-123.31C2321.23,1187.23,2268.85,1177.35,2227.78,1182.37Z"/><path class="cls-24" d="M2282.32,1304.23l-15-55a42.36,42.36,0,0,0-19.26-23.56l.57-1a43.57,43.57,0,0,1,19.79,24.22l15,55.07Z"/><path class="cls-38" d="M2348.84,1229.66l-4.49-.09.37-18.37a10,10,0,0,1,8.31-9.43l14.67-2.44a10,10,0,0,1,10.43,5.1l0,.07,9.36,19.09-4,2-9.34-19a5.46,5.46,0,0,0-5.71-2.75l-14.67,2.43a5.46,5.46,0,0,0-4.56,5.13Z"/><path class="cls-14" d="M2337.38,1287.37l68.91-4.89a8.83,8.83,0,0,0,8.22-9.34l-3.14-48.84a8.86,8.86,0,0,0-10.09-8.15l-82.59,11.61a8.8,8.8,0,0,0-7,12l16.81,42.12A8.89,8.89,0,0,0,2337.38,1287.37Z"/><polygon class="cls-38" points="2363.74 1255.96 2363.58 1255.93 2314.3 1246.99 2314.49 1245.97 2363.61 1254.88 2411.78 1233.51 2412.2 1234.46 2363.74 1255.96"/><path class="cls-38" d="M2363.59,1259.92h0a2.88,2.88,0,0,0,2.37-3.3l-.46-2.72a2.89,2.89,0,0,0-3.32-2.35h0a2.87,2.87,0,0,0-2.36,3.29l.46,2.73A2.89,2.89,0,0,0,2363.59,1259.92Z"/><path class="cls-22" d="M2340.57,1200.78a89.63,89.63,0,0,0,3.48-8.86,58.51,58.51,0,0,1,2.84-6.91c.47-.86,3.56-4.89,11-4.84s8.3,3,8.3,3a61.93,61.93,0,0,1,5.48,13.26,7.11,7.11,0,0,1,.52,1.52c.87,4,2.87,9.61.4,11.75-2.7,2.33-4.37-1.68-5.05-3.89.46,2,1,5.9-1,8.1s-4.48-4-5.52-7.22h0c.74,2.88,1.77,8.47-.87,10-3.11,1.8-5.52-6.79-6.16-8.76h-.23c-1.81,12.24-6.69,6.06-7.8-3.36-1.78,2-5.83,5.47-7.14,4.56C2337.25,1208.11,2339.72,1202.41,2340.57,1200.78Z"/><path class="cls-21" d="M2052.8,981c-8-42.82,3.1-92.07,66.13-103.78,41.05-7.62,83,22.38,95,64.21,14.64,50.86-9.65,87.88-67.8,105.3C2106.15,1058.68,2062.75,1034.49,2052.8,981Z"/><g class="cls-36"><path class="cls-22" d="M2127,1038.9a60.09,60.09,0,0,1-31.44-8.89c-17-10.34-28.63-28.63-32.88-51.47-9-48.53,12.7-82.54,58.09-91,35.2-6.54,72.65,18.69,83.47,56.26,12.75,44.31-8.28,77.13-59.22,92.4A62.8,62.8,0,0,1,2127,1038.9Zm-59.76-61.21c4,21.54,14.91,38.71,30.74,48.36a55.91,55.91,0,0,0,45.71,5.73c48.81-14.62,68.21-44.59,56.09-86.68-10.17-35.33-45.23-59.09-78.16-53C2060.27,903.52,2063.12,955.76,2067.2,977.69Z"/></g><path class="cls-22" d="M2143.12,1010l-1.77-5.18a3.77,3.77,0,0,0-4.41-2.52,34.58,34.58,0,0,1-12.69.64,3.89,3.89,0,0,1-3.21-3.85v-1.33a3.71,3.71,0,0,1,4.14-3.8,30.3,30.3,0,0,0,13.87-1.43c8-2.86,9.75-9.8,7.38-16.72-2.29-6.68-6.11-9.22-15.72-9.88-13.18-.76-26.49-2.29-30.1-12.86-3.15-9.21-.91-20.45,12.24-25.62,1.57-.62,2-2.81,1.4-4.47l-1.94-5.67a3.85,3.85,0,0,1,2.25-4.91h0a3.73,3.73,0,0,1,4.75,2.41l1.62,4.73a3.74,3.74,0,0,0,4.31,2.54,29.94,29.94,0,0,1,9.55-.67,3.86,3.86,0,0,1,3.4,3.94v1.28a3.7,3.7,0,0,1-4,3.73,27.22,27.22,0,0,0-11.69,1.56c-8.69,3.1-10.06,9.85-8.4,14.71,2.17,6.32,8.46,4.75,19.78,5.63,13.38,1,23.18,5.52,27.83,16,5,11.12,1.24,21.44-12.13,28.75a3.71,3.71,0,0,0-1.4,4.46l2.07,6a3.86,3.86,0,0,1-2.25,4.91l-.11,0A3.74,3.74,0,0,1,2143.12,1010Z"/><path class="cls-39" d="M2208.61,1140.67h0a.53.53,0,0,1-.5-.55,284.79,284.79,0,0,1,10.51-62.4.52.52,0,1,1,1,.3,284.13,284.13,0,0,0-10.45,62.15A.53.53,0,0,1,2208.61,1140.67Z"/><path class="cls-39" d="M2196.11,1116a.52.52,0,0,1-.52-.51,31.31,31.31,0,0,0-11.09-23.58.53.53,0,0,1-.12-.74.53.53,0,0,1,.73-.12,32.38,32.38,0,0,1,11.52,24.41.53.53,0,0,1-.51.54Z"/><path class="cls-39" d="M2329.3,1123a.51.51,0,0,1-.49-.35c-5.6-16-20.17-33.49-20.32-33.67a.53.53,0,0,1,.07-.74.56.56,0,0,1,.74.06c.14.18,14.83,17.82,20.5,34a.53.53,0,0,1-.33.67A.51.51,0,0,1,2329.3,1123Z"/><path class="cls-11" d="M430.37,1215.69l-3.9-.13.52-16.12a4.76,4.76,0,0,0-3.71-4.66L410.69,1192a4.74,4.74,0,0,0-5.08,2.15l-9,16.25-3.41-1.92,9-16.35a8.61,8.61,0,0,1,9.27-4l12.59,2.82a8.72,8.72,0,0,1,6.77,8.6Z"/><path class="cls-40" d="M433.75,1266.64l-59.46-7.48a7.72,7.72,0,0,1-6.69-8.56l5-42.64a7.69,7.69,0,0,1,9.11-6.67l71,14a7.74,7.74,0,0,1,5.51,10.8l-16.49,36.12A7.67,7.67,0,0,1,433.75,1266.64Z"/><polygon class="cls-11" points="412.36 1237.91 412.24 1237.85 371.37 1216.82 371.78 1216.01 412.52 1236.96 455.47 1231.44 455.59 1232.35 412.36 1237.91"/><path class="cls-11" d="M412.3,1241.38h0a2.52,2.52,0,0,1-1.89-3l.52-2.36a2.5,2.5,0,0,1,3-1.9h0a2.51,2.51,0,0,1,1.9,3l-.52,2.37A2.51,2.51,0,0,1,412.3,1241.38Z"/><path class="cls-22" d="M432.29,1190.73a80,80,0,0,1-2.61-7.92,52.55,52.55,0,0,0-2.14-6.18c-.69-1.46-16.59-2.49-16.59-2.49a55.11,55.11,0,0,0-5.36,11.36,6.06,6.06,0,0,0-.51,1.31c-.95,3.5-2.93,8.29-.89,10.27,2.23,2.17,3.86-1.27,4.55-3.17-.49,1.75-1.14,5.13.48,7.14s4.06-3.3,5.11-6.07h0c-.77,2.49-1.91,7.34.3,8.8,2.62,1.72,5.09-5.7,5.74-7.39l.19,0c1,10.8,5.53,5.61,6.91-2.59,1.46,1.8,4.81,5.07,6,4.33C434.83,1197.31,433,1192.2,432.29,1190.73Z"/><path class="cls-22" d="M664.75,996.26c2.11-3.44,16.6-13,15.85-10.69,13.35-6.28,32.89-9.64,6.74,4.12l0,0c2.33-1,19.21-9.05,19.86-5.06.48,2.93-13.59,9.14-17.41,10.85l0,.1c4-1.43,15.95-6.39,16.56-3.62.79,3.64-14.79,9.56-14.79,9.56s12.81-5.22,12-.89c-.46,2.43-8.13,5.29-12.93,7h0l-2.55.91a7.17,7.17,0,0,1-1.53.39,65.6,65.6,0,0,1-13.81,2.67s-6.59,1.43-9.41-4.81C661.58,1002.85,663.83,997.75,664.75,996.26Z"/><path class="cls-11" d="M533.55,1416.54s-.32,9.14,5.84,12.08,24.31,6.3,17.12,11.78c-4.13,3.15-22.49-.08-27.71-.38s-10.26,1.65-13.93-2c-4-4,1.37-22.48,1.37-22.48s4.37,2.56,8.42,2.68C530.51,1418.42,533.55,1416.54,533.55,1416.54Z"/><path class="cls-11" d="M442.77,1383.43s-13.41,36-10.69,42.48,14.12,21.55,5.24,20.65c-5.1-.52-16.74-15.66-20.45-19.5s-8.71-5.88-9.12-11.14c-.45-5.78,17.33-24.22,17.33-24.22s1.72-26.27,4.67-23.36C434,1372.53,442.77,1383.43,442.77,1383.43Z"/><path class="cls-21" d="M529.69,980.43s-1-15.77-15.24-14.46-9.16,11-11.2,14.15,5.79,9.67,12.69,9.41S529.69,980.43,529.69,980.43Z"/><path class="cls-21" d="M581.69,1190.08c-2.55-29-61.41,4.56-61.41,4.56s-20.6,199.77-8.54,227.46c2.39,5.47,12.12,5.15,16.66,4.53,32.15-4.4,37.9-104.14,45.33-148.09C577.45,1256.49,583.23,1207.61,581.69,1190.08Z"/><path class="cls-11" d="M466.9,1192.22c1.86,7.09,29,14,61.19,5.64s57.2-16.91,55.34-24-29.9-10-62.06-1.67S465.05,1185.13,466.9,1192.22Z"/><path class="cls-25" d="M568.42,1079.62a101.66,101.66,0,0,0,15-9.1s-17.73-29.39-53.48-26.59c-5,.39-27.25,4.89-32,5.86-61.39,12.46-31.29,139.67-31,142.43,61.69-28.93,116.53-18.36,116.53-18.36C582.79,1125.12,569.46,1082,568.42,1079.62Z"/><path class="cls-21" d="M478,1193.45s53.93-18.4,98.93-16.66a4,4,0,0,1,3.92,3.67s1.25,16.3,1,21.73c-.61,12-107.3,10.08-107.3,10.08Z"/><path class="cls-22" d="M504,1048.51c5.6,6.09,11.77,7.94,19.77,7.76,12.1-.28,6.18-12.34,6.18-12.34-3,0-4.63-1.44-4.94-4.33l-.38-3.55-.18-1.77-.61-5.63-.54-5.05-2.21-20.74L516,1024.14l-.86,3.62-3,12.48a11.44,11.44,0,0,1-8.06,8.26Z"/><path class="cls-11" d="M515.12,1027.76s3.7,6.06,9.33,6.52l-.61-5.63C520.33,1028.05,515.12,1027.76,515.12,1027.76Z"/><path class="cls-21" d="M493.52,1010.2s2.17,2.76,3.25,9.95c1.58,10.52,14.25,9.43,15.83,5.51.19-.49-7.5-16.1-7.5-16.1l-4.41-.43Z"/><path class="cls-22" d="M537.31,997.65c-5.53-12.09-18.17-18.19-28.22-13.6s-13.72,18.1-8.19,30.2,18.17,18.19,28.23,13.6S542.85,1009.75,537.31,997.65Z"/><path class="cls-21" d="M518.63,985.85c-.2.9,7.82,10.87-12.35,23.31s-18.9-18.74-3.37-26.51c22.42-11.22,32.58,2.22,32.85,8.6S518.63,985.85,518.63,985.85Z"/><path class="cls-21" d="M507,1004.5s-4.63,13,2.61,20.79c0,0-7.55-3.09-8.58-5.06s-3-9.87-3-9.87Z"/><path class="cls-22" d="M504.85,1016.44c2.94,1,5.91-.14,6.64-2.49s-1.07-5.07-4-6.05-5.91.14-6.64,2.49S501.91,1015.46,504.85,1016.44Z"/><path class="cls-26" d="M521,1005.36a.46.46,0,0,0,.16-.37.45.45,0,0,0-.47-.42,5,5,0,0,0-4.82,3.61.45.45,0,0,0,.27.57.52.52,0,0,0,.58-.28,8,8,0,0,1,4-3A.45.45,0,0,0,521,1005.36Z"/><path class="cls-26" d="M519.72,1011.29a1.49,1.49,0,1,0,2.63-1.1c-.41-1-1.33-1.53-2.05-1.22A1.72,1.72,0,0,0,519.72,1011.29Z"/><path class="cls-26" d="M536.71,1000.73a.45.45,0,0,0,.29-.28.44.44,0,0,0-.26-.57,5,5,0,0,0-5.83,1.56.44.44,0,0,0,0,.63.5.5,0,0,0,.64-.05,7.93,7.93,0,0,1,4.84-1.29A.48.48,0,0,0,536.71,1000.73Z"/><path class="cls-26" d="M533.27,1005.79c0,1.06.63,1.91,1.41,1.9s1.43-.88,1.43-1.94-.63-1.92-1.42-1.91S533.27,1004.72,533.27,1005.79Z"/><path class="cls-41" d="M510.31,1009.09c.71,5.95,4.9,11.1,9.34,11.48s7.48-4.12,6.77-10.07-4.9-11.1-9.35-11.49S509.59,1003.13,510.31,1009.09Z"/><path class="cls-41" d="M530,1004c1.36,5.72,5.68,10.53,9.65,10.73s6.08-4.27,4.72-10-5.69-10.52-9.66-10.72S528.58,998.32,530,1004Z"/><path class="cls-11" d="M511,1013.28a7.84,7.84,0,0,0,.41.82,13,13,0,0,0,5.64,5.77,7.85,7.85,0,0,0,2.77.76,6.52,6.52,0,0,0,2.58-.3,5,5,0,0,0,.64-.26,6.88,6.88,0,0,0,1.93-1.37,9.68,9.68,0,0,0,2.54-5.94,15.38,15.38,0,0,0-.76-6.39,12.12,12.12,0,0,0-.49-1.31c-1.62-3.77-4.57-6.69-7.76-7.49a7.3,7.3,0,0,0-1.21-.21,6.33,6.33,0,0,0-5.15,1.94,10.42,10.42,0,0,0-2.62,7.7c0,.45,0,.9.1,1.37q0,.4.12.81a16.21,16.21,0,0,0,.56,2.31A15.45,15.45,0,0,0,511,1013.28Zm14.84,2.84a7.32,7.32,0,0,1-1.4,2.07,5.62,5.62,0,0,1-4.55,1.7,7.23,7.23,0,0,1-2.85-.86,12.68,12.68,0,0,1-5.41-6.17h0c-.19-.42-.36-.86-.51-1.3s-.28-.85-.39-1.29a16.23,16.23,0,0,1-.36-2,12.6,12.6,0,0,1-.09-1.83,8.26,8.26,0,0,1,.06-1,.15.15,0,0,1,0-.06v-.1a12.66,12.66,0,0,1,.33-1.83,8.15,8.15,0,0,1,2-3.64,5.59,5.59,0,0,1,4.55-1.7,4.68,4.68,0,0,1,.9.14c3.08.66,5.93,3.5,7.48,7.18a14,14,0,0,1,.5,1.33,16.06,16.06,0,0,1,.64,3,13.52,13.52,0,0,1,0,3,10.39,10.39,0,0,1-.9,3.39Z"/><path class="cls-11" d="M531.05,1007.24l.42.87c.15.28.31.55.47.82s.22.37.34.54l0,.07c.09.15.19.29.29.43l0,0a17,17,0,0,1-2-4.45l-.29,0c.1.3.21.59.32.89S530.93,1007,531.05,1007.24Zm0,0,.42.87c.15.28.31.55.47.82s.22.37.34.54l0,.07c.09.15.19.29.29.43l0,0a17,17,0,0,1-2-4.45l-.29,0c.1.3.21.59.32.89S530.93,1007,531.05,1007.24Zm0,0,.42.87c.15.28.31.55.47.82s.22.37.34.54l0,.07c.09.15.19.29.29.43l0,0a17,17,0,0,1-2-4.45l-.29,0c.1.3.21.59.32.89S530.93,1007,531.05,1007.24Zm0,0,.42.87c.15.28.31.55.47.82s.22.37.34.54l0,.07c.09.15.19.29.29.43l0,0a17,17,0,0,1-2-4.45l-.29,0c.1.3.21.59.32.89S530.93,1007,531.05,1007.24Zm0,0,.42.87c.15.28.31.55.47.82s.22.37.34.54l0,.07c.09.15.19.29.29.43l0,0a17,17,0,0,1-2-4.45l-.29,0c.1.3.21.59.32.89S530.93,1007,531.05,1007.24Zm0,0,.42.87c.15.28.31.55.47.82s.22.37.34.54l0,.07c.09.15.19.29.29.43l0,0a17,17,0,0,1-2-4.45l-.29,0c.1.3.21.59.32.89S530.93,1007,531.05,1007.24Zm0,0,.42.87c.15.28.31.55.47.82s.22.37.34.54l0,.07c.09.15.19.29.29.43l0,0a17,17,0,0,1-2-4.45l-.29,0c.1.3.21.59.32.89S530.93,1007,531.05,1007.24Zm0,0,.42.87c.15.28.31.55.47.82s.22.37.34.54l0,.07c.09.15.19.29.29.43l0,0a17,17,0,0,1-2-4.45l-.29,0c.1.3.21.59.32.89S530.93,1007,531.05,1007.24Zm-.17,1.07a15.17,15.17,0,0,0,3.45,4.89h0a7.75,7.75,0,0,0,4.45,2.19h.32a4.75,4.75,0,0,0,2.22-.44,4.93,4.93,0,0,0,1.6-1.15c1.89-2,2.68-5.4,2.13-9.23-.9-6.25-5.11-11.62-9.37-12l-.27,0h0a5.16,5.16,0,0,0-1,.06,4.92,4.92,0,0,0-1.36.44,5.52,5.52,0,0,0-1.46,1.08c-1.88,2-2.68,5.41-2.12,9.24,0,.25.07.49.12.74.09.46.19.91.32,1.36A18.47,18.47,0,0,0,530.88,1008.31Zm1.75,1.68a17,17,0,0,1-2-4.45c-.13-.47-.25-.95-.35-1.43,0-.28-.09-.56-.14-.84a14,14,0,0,1,.12-5,7.7,7.7,0,0,1,1.71-3.52l.1-.1a4.13,4.13,0,0,1,1.36-1,4,4,0,0,1,1.4-.36,4.69,4.69,0,0,1,.75,0c3.94.35,7.84,5.46,8.7,11.39v.08h0s0,0,0,0,0,0,0,0c.48,3.55-.25,6.69-2,8.46a4.2,4.2,0,0,1-3.1,1.35l-.41,0a2.11,2.11,0,0,1-.35,0,.18.18,0,0,1-.1,0h0a6.53,6.53,0,0,1-2.76-1.26,11.86,11.86,0,0,1-2.88-3.14Zm-1.58-2.75.42.87c.15.28.31.55.47.82s.22.37.34.54l0,.07c.09.15.19.29.29.43l0,0a17,17,0,0,1-2-4.45l-.29,0c.1.3.21.59.32.89S530.93,1007,531.05,1007.24Zm0,0,.42.87c.15.28.31.55.47.82s.22.37.34.54l0,.07c.09.15.19.29.29.43l0,0a17,17,0,0,1-2-4.45l-.29,0c.1.3.21.59.32.89S530.93,1007,531.05,1007.24Zm0,0,.42.87c.15.28.31.55.47.82s.22.37.34.54l0,.07c.09.15.19.29.29.43l0,0a17,17,0,0,1-2-4.45l-.29,0c.1.3.21.59.32.89S530.93,1007,531.05,1007.24Zm0,0,.42.87c.15.28.31.55.47.82s.22.37.34.54l0,.07c.09.15.19.29.29.43l0,0a17,17,0,0,1-2-4.45l-.29,0c.1.3.21.59.32.89S530.93,1007,531.05,1007.24Zm0,0,.42.87c.15.28.31.55.47.82s.22.37.34.54l0,.07c.09.15.19.29.29.43l0,0a17,17,0,0,1-2-4.45l-.29,0c.1.3.21.59.32.89S530.93,1007,531.05,1007.24Zm0,0,.42.87c.15.28.31.55.47.82s.22.37.34.54l0,.07c.09.15.19.29.29.43l0,0a17,17,0,0,1-2-4.45l-.29,0c.1.3.21.59.32.89S530.93,1007,531.05,1007.24Zm0,0,.42.87c.15.28.31.55.47.82s.22.37.34.54l0,.07c.09.15.19.29.29.43l0,0a17,17,0,0,1-2-4.45l-.29,0c.1.3.21.59.32.89S530.93,1007,531.05,1007.24Z"/><path class="cls-11" d="M531.17,1005.5a.69.69,0,0,0-.12-1.3,7.91,7.91,0,0,0-6.11,1.71.69.69,0,0,0-.14,1,.71.71,0,0,0,1,.12,6.43,6.43,0,0,1,4.92-1.45A.66.66,0,0,0,531.17,1005.5Z"/><path class="cls-21" d="M499.7,988.93s-8.22-13.46-20.38-6-6.28,13.41-3.52,17.5c2.05,3,9.67,5.95,15.75,2.64S499.7,988.93,499.7,988.93Z"/><path class="cls-21" d="M504.66,1036.39a.38.38,0,0,1-.23-.06.43.43,0,0,1-.13-.6,19.5,19.5,0,0,1,8.22-6.63.42.42,0,0,1,.56.23.44.44,0,0,1-.22.58,19,19,0,0,0-7.84,6.3A.42.42,0,0,1,504.66,1036.39Z"/><path class="cls-24" d="M527.88,1021a13.35,13.35,0,0,1-1.86-.13.22.22,0,0,1-.19-.26.21.21,0,0,1,.22-.19h0c.07,0,6.21.87,7.82-2.55a.22.22,0,0,1,.3-.11.23.23,0,0,1,.11.31C533.14,1020.52,529.94,1021,527.88,1021Z"/><path class="cls-1" d="M530,1043.93s5.3,11.78-6.18,12.34c0,0,6.17,5.78,10.34,3.3s.08-4.48,1.84-6.11,3.71-2.81,1.88-4.62-.12-5.09-.12-5.09S532.69,1042.73,530,1043.93Z"/><path class="cls-1" d="M534.64,1073.4a1.81,1.81,0,1,1,1.84,1.73A1.79,1.79,0,0,1,534.64,1073.4Z"/><path class="cls-1" d="M543.5,1130a1.81,1.81,0,1,1,1.84,1.72A1.78,1.78,0,0,1,543.5,1130Z"/><path class="cls-1" d="M542.92,1104.27a1.81,1.81,0,1,1,1.84,1.72A1.79,1.79,0,0,1,542.92,1104.27Z"/><path class="cls-25" d="M575,1091.3s7.32,27.2,8.15,72.1l-45.39-119.65s27.3,1.06,60.94-7.42c20.72-5.22,57.69-36.9,61.56-39.17,4.18-2.45,19.07,15.68,19.07,15.68C682.61,1018.74,630.4,1077.89,575,1091.3Z"/><path class="cls-25" d="M495.85,1050.27s-59.58,22.07-90.08,120.56c-1.11,3.57,4.72,9.3,10.54,11.11s14.15,1.36,17.15-4.26c11.73-22,37.33-55.4,59-66.85C521.13,1095.72,495.85,1050.27,495.85,1050.27Z"/><path class="cls-1" d="M504,1048.51l-8.15,1.76s-1.35,4.19,2.68,5.42,4.84,1.21,6.19,4.21,6.35,3,8.08,1.93,4.89,2.79,7.74,2.72,4.41-5,3.23-8.28A52.66,52.66,0,0,1,504,1048.51Z"/><path class="cls-11" d="M459.58,1141.78a.18.18,0,0,1-.12,0,.27.27,0,0,1-.14-.36c6.13-13.49,21.51-24.52,21.66-24.62a.26.26,0,0,1,.4.06.28.28,0,0,1-.07.39c-.16.11-15.42,11-21.47,24.4A.27.27,0,0,1,459.58,1141.78Z"/><path class="cls-11" d="M575,1091.58a.28.28,0,0,1-.27-.19l-2.81-9.11a.28.28,0,0,1,.19-.35.25.25,0,0,1,.35.17l2.8,9.11a.27.27,0,0,1-.18.35A.13.13,0,0,1,575,1091.58Z"/><path class="cls-21" d="M548.51,1192.23s-34.83,156.36-96,212.28a18.91,18.91,0,0,1-21.53,2.85l-11.21-5.78a16.27,16.27,0,0,1-6.88-21.52c15.85-32.54,53.46-114.94,65.19-186.61Z"/><path class="cls-11" d="M511,1311.11l-.73-.28c.15-.41,15.66-41.85,20.85-65.26,5.24-23.62,23.71-32.29,23.9-32.37l.33.71c-.19.08-18.32,8.6-23.46,31.84C526.69,1269.2,511.16,1310.69,511,1311.11Z"/><path class="cls-22" d="M672.22,989.8s13.59-11.38,15-6.51-11.14,11.49-11.14,11.49Z"/><path class="cls-21" d="M705.34,868.75c-25.2,11.37-76.25,50.53-72.71,83.29,6.8,62.8,94,51.34,115.12,41.51,41.24-19.22-5.68-83.93,5.38-109.4S751.2,848.07,705.34,868.75Z"/><path class="cls-21" d="M769.53,832.84s-21.45,11.56-17,22.08,26.65,2.09,28.18-4-7.09-1.42-6.64-6.21S773.79,830.23,769.53,832.84Z"/><path class="cls-22" d="M691.79,978.48l.57-4a2.79,2.79,0,0,0-2.05-3.14,25.48,25.48,0,0,1-8.58-3.84,2.86,2.86,0,0,1-.82-3.62l.43-.88a2.76,2.76,0,0,1,4-1.12A22.28,22.28,0,0,0,695,965.6c6.24.81,9.71-3.18,10.48-8.54.74-5.18-.93-8.13-7-11.8-8.43-4.93-16.69-10.41-15.52-18.59,1-7.13,6.27-13.79,16.68-12.78,1.24.12,2.24-1.19,2.42-2.47l.63-4.39a2.84,2.84,0,0,1,3.13-2.48h0a2.75,2.75,0,0,1,2.32,3.19l-.52,3.66a2.78,2.78,0,0,0,2,3.12,22.3,22.3,0,0,1,6.52,2.76A2.87,2.87,0,0,1,717,921l-.44.84a2.73,2.73,0,0,1-3.88,1.11,20.26,20.26,0,0,0-8.23-2.9c-6.78-.88-10,3.12-10.48,6.88-.7,4.89,4,6,11.14,10.35,8.5,5.13,13.43,11.44,13,19.87-.47,9-6.39,14.55-17.65,14.87a2.76,2.76,0,0,0-2.43,2.48l-.67,4.67a2.84,2.84,0,0,1-3.13,2.48h-.09A2.77,2.77,0,0,1,691.79,978.48Z"/></g></g></svg>