<svg xmlns="http://www.w3.org/2000/svg" viewBox="0 0 460.57 394.7"><defs><style>.cls-1{fill:#b4c9cc;}.cls-2{fill:#99cbd3;}.cls-11,.cls-3{fill:#006a66;}.cls-4{fill:#fff;}.cls-5{fill:#00554f;}.cls-6{fill:#00453d;}.cls-7,.cls-9{fill:#005c77;}.cls-8{fill:#50bfa5;}.cls-9{stroke:#1c1c1b;stroke-width:2px;}.cls-16,.cls-17,.cls-20,.cls-21,.cls-22,.cls-23,.cls-9{stroke-linecap:round;stroke-linejoin:round;}.cls-10{fill:#ffa18b;}.cls-11{stroke:#00425c;}.cls-11,.cls-18,.cls-19{stroke-miterlimit:10;}.cls-12{fill:#ffd274;}.cls-13{fill:#cb7068;}.cls-14,.cls-18{fill:#00425c;}.cls-15{fill:#7e4e24;}.cls-16,.cls-17,.cls-19,.cls-20,.cls-21,.cls-22,.cls-23{fill:none;}.cls-16{stroke:#00453d;}.cls-17{stroke:#cb7068;}.cls-18,.cls-19{stroke:#006a66;}.cls-20{stroke:#005c77;}.cls-21{stroke:#00554f;}.cls-22{stroke:#ff8e97;}.cls-23{stroke:#fcb455;}</style></defs><g id="Capa_2" data-name="Capa 2"><g id="OBJECTS"><path class="cls-1" d="M394.75,349.68a147.16,147.16,0,0,1-18.88,16.4H96.08S66,352,34.48,301C23.79,283.66,19.33,262.22,20,240.88c1.31-41.57,22.13-82.76,54.42-92.4C123.3,133.9,124.43,81.71,187.5,66S287.84,86.35,287.84,86.35c61.62,52.82,129.79,78.26,145.28,153.94.27,1.33.52,2.66.73,4C441.85,292.31,414.58,329.62,394.75,349.68Z"/><path class="cls-2" d="M394.75,353.29A243,243,0,0,1,362,369.69H96.08s-30.09-14-61.6-65.1C23.79,287.27,19.33,265.83,20,244.49c28.73,23.22,91.47,58.36,207.6,57.75,112.83-.59,176-32.33,206.24-54.37C441.85,295.92,414.58,333.23,394.75,353.29Z"/><path class="cls-3" d="M99.12,350.23s-50.75.79-60.51,7.67S30,375.15,115.07,382.66s57.5,12.5,122.35,12,125.17-15.62,162.26-22,28.45-21.67-27.25-25.26S148.89,356.65,99.12,350.23Z"/><path class="cls-4" d="M40.07,242.15a17.77,17.77,0,0,1-14.95-23.23c4.14-12.5,14.12-27.43,37.59-35.74,30.22-10.71,64.21-.53,74.27,27.87,7,19.74-3.43,37-19.84,52.15-4.18,2.54-4.12,8.67-2.79,14.65A17.6,17.6,0,0,1,103,298.16h0a17.69,17.69,0,0,1-22.58-10.77l-1.88-5.28c-3.14-8.86-5.3-16.26,1.69-25.31,9.51-12.21,20.78-16.89,15.71-31.19-3.43-9.67-13.11-14-22.17-10.74a23.55,23.55,0,0,0-14.87,15.3,17.76,17.76,0,0,1-18.78,12Zm98.1,82.3a24.48,24.48,0,1,1-31.38-14.95A24.4,24.4,0,0,1,138.17,324.45Z"/><path class="cls-4" d="M325.74,219.73a16.62,16.62,0,0,1,1.13-25.81c9.91-7.31,25.6-13.31,48-7,28.85,8.15,49.31,34.28,41.65,61.4-5.33,18.85-22.63,26.43-43.32,29.1-4.56-.32-7.83,4.39-10,9.68a16.45,16.45,0,0,1-19.67,9.34h0A16.54,16.54,0,0,1,332.06,276l1.43-5.05c2.39-8.46,4.73-15.28,15-18.41,13.85-4.19,25-1.67,28.84-15.33a15.92,15.92,0,0,0-11.13-20.17,22,22,0,0,0-19.61,3.64,16.6,16.6,0,0,1-20.81-1Zm30.43,115.82a22.89,22.89,0,1,1-15.87-28.37A22.81,22.81,0,0,1,356.17,335.55Z"/><path class="cls-5" d="M43.67,329.09s-5-17.3-15.55-19.56-7.21-5-9.25-10.79-4.79-7.27-8.55-8-3-10.54-8.28-11.79,1.51,12.54,0,20.32,4.26,6.52,7.27,15.55,0,14.79,3.77,21.82,8.79.34,10.53,10,14.55,15.3,24.58,14,11.22-3,11.22-3Z"/><path class="cls-6" d="M45.32,353.67s-18.85-15.3-18.43-27.48,2-14.58-3-21.9-.35-16.77,2.78-24.45-7.32-13.71-.73-21.32,22.12,8.63,24,23.63,5.2,19.34,14.1,25.94,10.53,17.73,9.81,24.08,9.9,9.1,7.07,25.55C80.9,357.72,71.28,363,45.32,353.67Z"/><path class="cls-5" d="M58.75,355.26s-5.44-13.72,0-22.61,4.78-9,5-16,4-10.28,7.52-11.29,5.77-3.74,7.53-8.51,7.27-5.83,10.53-1.42-1.76,17,0,22.73a24.67,24.67,0,0,1-1.25,17.05c-2.26,4.77,2,8.53,0,15.55S83.22,362.28,62.46,362Z"/><path class="cls-7" d="M88.7,374.16s1.68-4.93,9.94-6.92,15.7,5.37,16.44,8.73C115.08,376,96.32,379.85,88.7,374.16Z"/><path class="cls-6" d="M378,349.92s-.88-28.94,22.81-52.2,49.81-19.37,49.81-19.37,1.06,27.5-18.17,49-39.72,27.74-39.72,27.74Z"/><path class="cls-7" d="M392.69,355.08c5.66,1.85,12.48.89,18.31-.33,9.58-2,20-8.77,31.05-18.89,17.82-16.38,18.52-34.51,18.52-34.51s-28.73.69-47.29,17.42-27.83,33.78-27.83,33.78Z"/><path class="cls-7" d="M170.29,351.59s2.57-11.77,16.57-15.48,16.85,5.71,29.14,1.71,11.14-9.53,26-8.33,16.86,10.33,26.57,8.33S286,342.49,286.28,348C286.28,348,220.86,352.79,170.29,351.59Z"/><circle class="cls-8" cx="345.22" cy="91.3" r="10.55"/><circle class="cls-8" cx="411.11" cy="144.64" r="5.83"/><circle class="cls-8" cx="118.8" cy="91.3" r="10.55"/><path class="cls-8" d="M59.42,142.89a7.07,7.07,0,1,1-7.06-7.07A7.06,7.06,0,0,1,59.42,142.89Z"/><ellipse class="cls-7" cx="231.21" cy="362.28" rx="42.42" ry="7.53"/><path class="cls-7" d="M263.45,254.31a40.21,40.21,0,0,0-1.13-8.5A39.3,39.3,0,0,0,233.89,217a39.94,39.94,0,0,0-11.11-1.25c-.64,0-1.26,0-1.89.1a39.47,39.47,0,1,0,31.73,66.58A38.94,38.94,0,0,0,263.45,254.31ZM318.12,79.78a72.55,72.55,0,0,0-13-39.75A85.06,85.06,0,0,0,280.72,16.8C263.19,5.54,241.09-.57,218.1,0a127.42,127.42,0,0,0-15.36,1.32,98.58,98.58,0,0,0-29.19,8.87h0a84.23,84.23,0,0,0-30.91,25.91,28.67,28.67,0,0,0,46.14,34.05,38.64,38.64,0,0,1,19.6-14.31,40.1,40.1,0,0,1,10.81-1.74c15.51-.42,28.22,11,28.66,27.51.62,23.36-17.23,25.83-36.83,38.19-.93.59-1.86,1.19-2.79,1.82-15.24,10.4-15.6,22.82-15.19,38l.23,9a28.53,28.53,0,0,0,28.51,27.77h.77a28.55,28.55,0,0,0,25.62-17.52,27.61,27.61,0,0,0,2-7.95c.54-5.7,1.77-11.25,4.2-15.27h0a11.67,11.67,0,0,1,7.38-5.8c14.93-6.85,28.18-15,38.08-25.1C311.57,112.81,318.61,98.13,318.12,79.78Z"/><path class="cls-7" d="M214.28,178.68c9.67,6.67,24.24,8.25,33.88.24a28.55,28.55,0,0,1-25.62,17.52h-.77a28.53,28.53,0,0,1-28.51-27.77l-.23-9c-.41-15.16-.05-27.58,15.19-38,.93-.63,1.86-1.23,2.79-1.82,19.6-12.36,37.45-14.83,36.83-38.19-.44-16.54-13.15-27.93-28.66-27.51a40.1,40.1,0,0,0-10.81,1.74,38.64,38.64,0,0,0-19.6,14.31,28.67,28.67,0,0,1-51-10.89c8.81,3.2,22.07,6.79,33.65-2,31.07-23.71,66.43-32.78,88.71.29s-5.48,61.4-40.71,75.05C202.11,139.3,208.71,174.84,214.28,178.68Z"/><path class="cls-9" d="M143.06,48.51s-2.69,16.79,14.57,23.32,29.15-22.15,55.26-24.95S251,58.54,254.34,71.83"/><path class="cls-9" d="M201.23,147.32s-2.8,17.88,3,31,28.45,14.07,35.44-1.09-2-21.55,18.12-32.23,26.88-17.09,30.38-21.12"/><path class="cls-9" d="M202.11,7.94S254.67.2,286.8,30.09s17.27,71.76,17.27,71.76"/><path class="cls-9" d="M233.47,115.46s23.26-9.94,22.38-34.6"/><path class="cls-7" d="M252.62,282.42a39.48,39.48,0,1,1-31.73-66.58c.63-.05,1.25-.08,1.89-.1A39.94,39.94,0,0,1,233.89,217c-13.11,2-35.28,9.08-34.36,33.48,1.32,34.56,40.86,32.84,51,8.5,3.82-9.15,8-12.87,11.79-13.16a40.21,40.21,0,0,1,1.13,8.5A38.94,38.94,0,0,1,252.62,282.42Z"/><path class="cls-9" d="M255,255.68a31.35,31.35,0,0,1-62.7,0c0-17.32,11.45-32.21,28.76-32.21"/><path class="cls-7" d="M176.08,367.86c0,3.08-12.94,5.58-28.9,5.58s-28.9-2.5-28.9-5.58,12.94-5.58,28.9-5.58S176.08,364.78,176.08,367.86Z"/><path class="cls-10" d="M158.39,236.42c-.46-.12-1.33,1-1.33,1l-1.74-1.85a16.32,16.32,0,0,0,.58-2.72c.14-1,.32-3.16.44-4.65,2.78-3.16,11-13.21,9.51-20.29-1.73-8.51-8.1-24.88-8.1-24.88-1.52,0-10.85,5.26-10.85,5.26l8.54,21-4.59,13.77-.07-.05-3.58,8.57a4.87,4.87,0,0,0,.83,5.1,10,10,0,0,0,2,1.94c1.1.58,6.3,2.26,7.2,1.74s1.94-2.95,1.94-2.95S158.85,236.53,158.39,236.42Z"/><polygon class="cls-10" points="125.03 348.35 127.14 362.28 135.67 359.06 135.05 348.35 125.03 348.35"/><polygon class="cls-10" points="152.34 346.73 153.9 357.16 164.94 360.52 163.22 346.73 152.34 346.73"/><path class="cls-3" d="M165.94,351.86c-7.12,4.16-15.62,1.39-15.62,1.39L138.19,254.6l-1.38.68.62,37.88.18,10.71.81,49.75a19.29,19.29,0,0,1-14.31,0l-8.76-96.37a99.41,99.41,0,0,1-.31-35.44c5.92.31,35.82.27,35.82.27s5.81,39.63,7.59,51.72c.46,3.13,1,7.76,1.59,13.22.55,5.26,1.16,11.29,1.74,17.52C163.9,327,165.94,351.86,165.94,351.86Z"/><path class="cls-11" d="M146.9,163a42.38,42.38,0,0,1,12.71,21.31l-8.92,2.31Z"/><path class="cls-12" d="M135.16,159.31c.29.25,7.51,1.79,10.87,3.14s6.84,13.57,7.13,20.88-2.2,39.45-2.2,39.45c-3.24,4.4-35.75-1-35.75-1s-8.74-32-8.16-49.05a23.05,23.05,0,0,1,1.93-8.86L123.86,159Z"/><path class="cls-10" d="M122.45,162s4.24,3.46,9,3.46,5.51-3.59,5.51-3.59a13.25,13.25,0,0,1-1.28-3.17,23.83,23.83,0,0,1-.77-6.07l-10.39-5a20.11,20.11,0,0,1,.36,7.1A19,19,0,0,1,122.45,162Z"/><path class="cls-13" d="M124.87,154.73a15.35,15.35,0,0,0,10.8,4,23.83,23.83,0,0,1-.77-6.07l-10.39-5A20.11,20.11,0,0,1,124.87,154.73Z"/><path class="cls-10" d="M117.16,137.81a3.33,3.33,0,0,1,3.69,1,37.93,37.93,0,0,1-.45-7.91c.38-8.73,16.68-9,20.53-7.19s3.83,12.26,3.79,13.93c0,0,.58,9.69-3.79,14.82s-12.57,3.72-15.53-1.15a34.26,34.26,0,0,1-1.92-3.68,6.58,6.58,0,0,1-5.26-1.78C115.52,143.49,114.37,139,117.16,137.81Z"/><path class="cls-14" d="M118.9,123.84a5.85,5.85,0,0,1,3.55-4.86c3.3-1.21,4.78.18,6.17-.69s3.47-3.73,7.55-3,5.12,4,6.77,3,4.77-.35,6.34,2.95-1.65,4.6-.87,6,1.91,2.25.87,4.68-2.52,1.05-2.52,2.7-2,3.07-2,3.07-.3-6.72-1-8.11a7.12,7.12,0,0,1-6.33,1.91c-2.59-.42-3,1.39-4.4,2.69s-6.48,1.1-6.48,1.1,0,6.11-2,7.67-1.19-2.83-3.66-4.09-4.12-.34-4.38,2.61,3.51,6.51,7,6.21a11.82,11.82,0,0,1,1.49,2.94,14.08,14.08,0,0,1-.1,4.12s-12-7.8-13.7-14,.74-9.46.74-9.46a8.16,8.16,0,0,1,1.22-4.73C114.6,124.15,118.9,123.84,118.9,123.84Z"/><path class="cls-10" d="M143.16,158.08a9.74,9.74,0,0,0,.34-1.54,6.15,6.15,0,0,0-.82-2,4.83,4.83,0,0,0,.26-1.36c0-.8.56-3.38-.43-3.64s-2,4.73-3.26,5.69-3.08,2.08-2.95,1.82a9.91,9.91,0,0,0,0-2.56c-.09-.52-.87-2.08-1.4-1.31s-1.64,5.17-1.29,6.39,1.13,4.33,1.13,4.33l-.74,2.83L126.62,198l-6.42-11-14.76,5s11.29,20,17.71,22.39a15.05,15.05,0,0,0,5.36,1.08h0c2.53.26,7.29-.73,10.24-7.15s1.83-41.07,1.83-41.07h0l.3-1.12s1.69-3,1.95-3.29.09-1.83.09-1.83a2.46,2.46,0,0,0,.57-1.17A4.78,4.78,0,0,0,143.16,158.08Z"/><path class="cls-15" d="M126.53,359.06s-.06,6.94,0,8.1,1.1,3.41,4,5,6.66,1.39,8.68,1.16,3.59-.87,4.17-1.85,0-2.55-1.08-4.4-3.49-2.43-4.59-4.51-1.56-3.88-2.14-4.34-3.31-.33-4.34.21-2.2,2.16-2.72,2.16S127.69,359.11,126.53,359.06Z"/><path class="cls-15" d="M153.32,356.57c.11,2.27.4,6.84,1,8.68,0,0,0,1.18,3.44,1.35s7.15,0,9.35.44,8,.17,9-.46a2.42,2.42,0,0,0,.06-3.76c-1.45-1-10.13-5.38-11.81-6.83a6.08,6.08,0,0,0-3.58,1.5c-1.19,1.1-4.27-.83-6.17-1.78A.9.9,0,0,0,153.32,356.57Z"/><path class="cls-16" d="M114.51,225a83.83,83.83,0,0,0,21.5,3.3c11.27.11,15.45-2.11,15.45-2.11"/><path class="cls-16" d="M136.81,255.28S138.37,247,144,244.8"/><path class="cls-16" d="M142.73,228.06s1.24,8.57-.54,12.45-3,3.06-3,3.06V231.79"/><path class="cls-16" d="M113.78,232.77s6.82-.39,8-6"/><path class="cls-16" d="M123.72,349.4a21.84,21.84,0,0,0,14.44.17"/><path class="cls-16" d="M149.92,350.05s9,1.73,16-1.7"/><path class="cls-5" d="M137.61,303.87a6.73,6.73,0,0,1-5.5,3.09c-3.91,0-7.09-3.73-7.09-8.33s3.18-8.32,7.09-8.32a6.61,6.61,0,0,1,5.32,2.85Z"/><path class="cls-5" d="M161.78,304.54a5.65,5.65,0,0,1-1.7.26c-3.9,0-7.07-4-7.07-8.89s3.15-8.86,7-8.89C160.59,292.28,161.2,298.31,161.78,304.54Z"/><path class="cls-16" d="M116,232.34a241.78,241.78,0,0,0,1.77,24.55l4,47.91L125,349.85"/><path class="cls-16" d="M138.69,250s8.08,47.23,8.29,51.33,5.36,49.32,5.36,49.32"/><path class="cls-17" d="M126.62,198s-1.08,3.93-2.11,8.85"/><path class="cls-17" d="M155.44,209.34s4.08-2,7.25-1.7"/><path class="cls-18" d="M109,163.89s-7.36,2.57-7.88,12.64a49.27,49.27,0,0,0,2.61,18.23l18.74-6.95S115.81,167.05,109,163.89Z"/><path class="cls-17" d="M142.68,154.53a9,9,0,0,1-1.44,2"/><path class="cls-17" d="M143.16,158.08s-.69,1.31-1.2,1.57"/><line class="cls-17" x1="142.94" y1="160.99" x2="141.96" y2="162"/><path class="cls-17" d="M154.51,364s2.66.26,7.48.56,11.27.88,14.09,0"/><path class="cls-17" d="M127,366.08a9.12,9.12,0,0,0,6.35,3.74,27.43,27.43,0,0,0,9-.34"/><path class="cls-17" d="M142.69,149.7s0-.33-.59,0-1.78,4.36-2.45,5.1a30.44,30.44,0,0,1-3.41,2.51,4.52,4.52,0,0,0,0-3.05c-.61-1.44-1.34-1.09-1.34-1.09a14.66,14.66,0,0,0-1.32,5.15,26.86,26.86,0,0,0,1.1,5.8"/><path class="cls-17" d="M118.8,140.43s2.86,2.56,3.22,4.92"/><path class="cls-17" d="M119.62,144.84s.43-1.59,1.31-2"/><line class="cls-19" x1="104.45" y1="191.73" x2="120.23" y2="186.08"/><line class="cls-20" x1="119.62" y1="124.15" x2="122.45" y2="124.15"/><line class="cls-20" x1="113.16" y1="131.6" x2="114.53" y2="131.94"/><path class="cls-20" d="M144.74,128a4.69,4.69,0,0,1-3.47,3.35c-3,.85-4.42-.49-5.52.23s-3.34,5.09-9.24,3.71c0,0-.28,7.69-2.46,7.94s-1.07-3.63-3.64-4.56"/><path class="cls-20" d="M140.11,119.94s1.4.26,1.76-.62"/><path class="cls-20" d="M129.56,119.32a2.61,2.61,0,0,0,1.69.33"/><line class="cls-20" x1="125.05" y1="132.34" x2="125.87" y2="132.85"/><path class="cls-20" d="M132,127.16a3.88,3.88,0,0,1,3.22-.55"/><path class="cls-8" d="M104.81,126.19a33.78,33.78,0,0,1-15.67-8.31A37.06,37.06,0,1,0,75,124.51,44.33,44.33,0,0,0,104.81,126.19Z"/><path class="cls-14" d="M55.6,78.06a5.13,5.13,0,0,1-2.38-7.61c2.1-3.16,6-6.55,13.19-7.07,9.23-.67,17.91,4.77,18.54,13.44.43,6-3.79,10.05-9.52,13-1.35.38-1.81,2.09-1.89,3.86a5.09,5.09,0,0,1-4.73,4.78h0a5.11,5.11,0,0,1-5.46-4.73l-.12-1.61C63,89.41,63,87.19,65.64,85.2c3.58-2.67,7.07-3.1,6.76-7.47A4.92,4.92,0,0,0,67.05,73a6.81,6.81,0,0,0-5.31,3.12,5.12,5.12,0,0,1-6.14,1.9Zm21,30.41A7.06,7.06,0,1,1,69,101.91,7,7,0,0,1,76.6,108.47Z"/><path class="cls-7" d="M387.91,361.2c.11,4.15-18.79,8-42.22,8.61s-42.49-2.28-42.6-6.44,18.8-8,42.22-8.61S387.81,357,387.91,361.2Z"/><path class="cls-10" d="M339.2,308s1.13,3,.13,15.66-1.9,26.79-1.9,26.79l-8.05,1.18-4.55-42.66Z"/><path class="cls-10" d="M367.33,308.3s1.46,2.86,1.94,15.55,1.22,26.82,1.22,26.82l-8.19-.32-9.14-39.42Z"/><path class="cls-7" d="M321.57,238.57l1.88,76.6c3.73,3.78,18-.12,18-.12s1.9-68.48,2.08-74.75C343.51,240.3,340.47,230.23,321.57,238.57Z"/><line class="cls-16" x1="339.5" y1="251.48" x2="337.79" y2="311.86"/><path class="cls-7" d="M369.38,313.83,362,242.45s.63-15.28-5.61-27.29l-34.13.58-.65,22.83,15.53,6.35c3.42,15.32,15.66,69.78,15.66,69.78C359.67,319.42,369.38,313.83,369.38,313.83Z"/><path class="cls-12" d="M327.46,158l-26,26.89,6.2,9.6s14.78-6.7,18.29-13S327.46,158,327.46,158Z"/><path class="cls-3" d="M338.91,154.69c-.28.23-7.25,1.51-10.51,2.71s-6.93,12.83-7.4,19.84,1.22,38.5,1.22,38.5c3,4.3,34.13-.58,34.13-.58s9.24-30.42,9.15-46.82a22.29,22.29,0,0,0-1.6-8.55l-14.14-5.14Z"/><path class="cls-14" d="M328.93,130.87a36.23,36.23,0,0,1-1.57,12,42.5,42.5,0,0,1-3,7.31c.06.24,1.14,1,2.88.72s1.89.46,3.77,1.68,2.78-.41,4.17.67a8.64,8.64,0,0,0,5.13,1.38c.68-.23-1.26-9.7-1.26-9.7l-4.74-15.41Z"/><path class="cls-10" d="M349.7,154.48a4.33,4.33,0,0,1-2.63,5.29,12.19,12.19,0,0,1-4.75.92h-.22a4.38,4.38,0,0,1-3.92-5.81c.1-.26.18-.52.26-.78a22.74,22.74,0,0,0,.9-5.8l10.11-4.52a19.06,19.06,0,0,0-.54,6.8A20.22,20.22,0,0,0,349.7,154.48Z"/><path class="cls-13" d="M348.91,150.57a14.73,14.73,0,0,1-10.47,3.52,22.74,22.74,0,0,0,.9-5.8l10.11-4.52A19.06,19.06,0,0,0,348.91,150.57Z"/><path class="cls-10" d="M356.76,134.56a3.18,3.18,0,0,0-3.56.89,37.56,37.56,0,0,0,.64-7.57c-.13-8.38-15.76-9.07-19.5-7.45s-4,11.65-4,13.25c0,0-.82,9.28,3.23,14.32s12,3.91,14.92-.68a31.67,31.67,0,0,0,1.95-3.48,6.35,6.35,0,0,0,5.09-1.56C358.17,140.05,359.41,135.74,356.76,134.56Z"/><path class="cls-14" d="M334.67,119.21s-2.19-.43-4.14,3-2.74,7.56-4.42,8.38a15.34,15.34,0,0,0,5,1.43s1.22-4,2.67-5.28a52.35,52.35,0,0,0-1,6.07s5,1.25,7.24,1l1.28-4.06.46,4.15a22.33,22.33,0,0,0,4.71.43l1.28-3.78s-.78,5.52,1.22,6.68c0,0-.33,2.73.87,4.15,0,0,2.05-6,5.21-5.5s1.19,5.53-.75,6.68a8.81,8.81,0,0,1-3.94,1.18s-1.22,2.38-1.49,2.82c0,0-.56,4.53.27,6.64s3.5,1.41,4.16,1,1.82.28,3.23.06,1.47-1.2,2.27-1.2,1.87.14,2.38-.81c0,0,.26-.7,1.8-.59a3.47,3.47,0,0,0,3.57-2.09s-4.57-3.27-3.86-11-.51-11.17-2.57-12.56c0,0-.61-5.34-8.62-8.71S337.34,116.46,334.67,119.21Z"/><path class="cls-12" d="M363.9,159.79a28.88,28.88,0,0,0-4.61,10.5,13.2,13.2,0,0,0,1.87,9.9l18.26,18.75,6.62-7.69s-6.4-11.15-13.17-21.19S363.9,159.79,363.9,159.79Z"/><path class="cls-10" d="M307.52,188.77c-1.12-5.71-11.71-21.68-14.43-25.72h0a10.44,10.44,0,0,0-1.69-4.12c-.55-2.49-1.26-7.06-1.88-5.45a10.59,10.59,0,0,0-.25,4.49l-5.32-1.4c-.86-.32-3.36-1.19-4.47-.74-.91.37,1.71,1.39,3.51,2l-.13.33c-1.07-.4-3.86-1.37-4.95-.93s2.78,1.78,4.4,2.31l-.25.6c-.17-.07-3.44-1.38-4.76-.85-1,.42,2.5,1.68,4.21,2.25l-.16.38c-1.07-.38-3.12-1-4.11-.61-1.35.55,5.08,2.53,5.08,2.53l5.26,2.31c1.1,3.94,6.42,22.54,9.62,26.26,3.57,4.17,7,4.27,8.13,4.05S308.82,195.34,307.52,188.77Z"/><path class="cls-10" d="M408,165.67c-1-.46-3,.05-4.13.37l-.13-.39c1.74-.47,5.34-1.53,4.32-2-1.28-.61-4.62.52-4.8.59l-.21-.63c1.64-.43,5.57-1.55,4.52-2s-3.9.31-5,.65l-.12-.33c1.84-.53,4.52-1.39,3.63-1.81-1.09-.52-3.63.21-4.52.48l-5.38,1.09a10.58,10.58,0,0,0,0-4.49c-.52-1.64-1.5,2.88-2.18,5.34a10.26,10.26,0,0,0-1.92,4l.05,0-12.7,32.41c3.82,3.93,9,4.2,11.07.32,1.81-3.37,6.89-24.32,8.2-29.83l4.08-1.53S409.31,166.29,408,165.67Z"/><path class="cls-15" d="M321.45,354.56c-3.92,2.23-7.14,1.88-7.77,4.53-.36,1.52,5.06,2.18,8.5,2.28s7.7-1,10.73-1.37,5.22-.69,5.61-1.19,0-6.66-.25-7.67a2.76,2.76,0,0,0-.79-1.49,16.28,16.28,0,0,1-4.23,1.05c-2.77.38-2.4-1.33-4.06-.9C328,350.1,325.37,352.32,321.45,354.56Z"/><path class="cls-15" d="M361.31,349.17s-1.17,4-2.12,7.88-3,6.37-2.83,8.05,1.35,2.73,3.36,2.78,5.12-.19,7.36-2.39,3.37-6.36,3.82-7.52a49.93,49.93,0,0,0,1.75-5.63c0-.52-2.42-6.79-2.42-6.79s-.91,3.15-2,4S364.65,347.08,361.31,349.17Z"/><path class="cls-16" d="M336.76,155.23s-1.57,1.4-.32,4.1,7.73,4.49,12,2,5-5.38,5-5.38"/><path class="cls-16" d="M324,185.63a122.91,122.91,0,0,1,13.07.37c5.22.56,12.07,2.81,15.45,2.9"/><path class="cls-21" d="M322.13,219s2,1.63,11.27,2,24.4-2.67,24.4-2.67"/><path class="cls-21" d="M327.35,222s.18,8.24,2,13.16,4.53,6.23,4.53,6.23l-2.38-17.29"/><path class="cls-16" d="M349.22,219.73s2.84,4.49,6.89,5.22"/><path class="cls-21" d="M355.78,218.67s1.16,1,2.52,18.24,8.54,74.87,8.54,74.87"/><path class="cls-22" d="M352.28,312.58s10.41,1.53,16.81-1.56"/><path class="cls-16" d="M323.38,312.34s2.71,1.26,8.16.8a74.2,74.2,0,0,0,10-1.56"/><path class="cls-23" d="M363.44,164.06s-3.21,8.77-1.44,14.62"/><path class="cls-23" d="M381.18,189.27s-1.79,5-1.73,8.36"/><path class="cls-23" d="M307.61,184.42a9.66,9.66,0,0,1,2.36,6.93"/><path class="cls-23" d="M319.16,171.11s-.94,7.76-.33,11.68"/><line class="cls-17" x1="398.69" y1="169.43" x2="396.28" y2="170.06"/><line class="cls-17" x1="287.58" y1="166.16" x2="289.55" y2="166.99"/><path class="cls-17" d="M289.27,158s-.27,2.8.41,4.1"/><line class="cls-17" x1="283.36" y1="157.49" x2="281.12" y2="162.34"/><path class="cls-17" d="M396.05,161.86a5.05,5.05,0,0,1-.39,3"/><line class="cls-17" x1="401.96" y1="161.21" x2="403.92" y2="166.28"/><path class="cls-17" d="M314.8,358.69s1.47,1.34,9.75.69a85.57,85.57,0,0,0,13.11-1.88"/><path class="cls-17" d="M357.32,365.57s5.31.7,8.67-2.08,5.66-11.66,5.66-11.66"/><line class="cls-20" x1="360.16" y1="125.99" x2="357.33" y2="126.3"/><path class="cls-20" d="M331.28,123.22a16.29,16.29,0,0,0-1.58,3.23"/><line class="cls-20" x1="334.67" y1="119.21" x2="336.36" y2="119.26"/><line class="cls-20" x1="338.04" y1="125.36" x2="337.47" y2="127.39"/><line class="cls-20" x1="344.52" y1="126.57" x2="345.06" y2="128.07"/><path class="cls-20" d="M359.68,128.48a12.15,12.15,0,0,1,2,8.36"/><path class="cls-20" d="M347.57,118.14s7.25.88,10.09,5.83"/><path class="cls-20" d="M350.79,145.56s.73,5.14,1.85,7.17"/><line class="cls-20" x1="354.11" y1="146.06" x2="354.91" y2="148.6"/><path class="cls-20" d="M358.4,144.64a43.29,43.29,0,0,0,2.23,4.77"/><path class="cls-20" d="M329.1,149.66a23.32,23.32,0,0,0,1.1-4.69"/><path class="cls-8" d="M402,72.79a29.41,29.41,0,0,0-15.38,54.48,77.48,77.48,0,0,1-14,11.82s18.16-.4,29-7.49H402a29.41,29.41,0,1,0,0-58.82Z"/><path class="cls-3" d="M392.91,89.71a4.74,4.74,0,0,1,0-7.36c2.72-2.21,7.09-4.14,13.55-2.66,8.31,1.91,14.49,9,12.7,16.87-1.25,5.43-6.06,7.82-11.9,8.87-1.3,0-2.17,1.36-2.72,2.89a4.69,4.69,0,0,1-5.46,2.94h0a4.71,4.71,0,0,1-3.54-5.64l.34-1.46c.56-2.44,1.13-4.41,4-5.44,3.88-1.39,7.08-.83,8-4.76a4.54,4.54,0,0,0-3.45-5.58,6.25,6.25,0,0,0-5.52,1.32,4.74,4.74,0,0,1-5.93,0Zm10.28,32.48a6.51,6.51,0,1,1-4.91-7.84A6.48,6.48,0,0,1,403.19,122.19Z"/></g></g></svg>