<svg xmlns="http://www.w3.org/2000/svg" viewBox="0 0 705.41 401.1"><defs><style>.cls-1{fill:#f5f5f5;}.cls-2{fill:#e0e0e0;}.cls-3{fill:#ebebeb;}.cls-4{fill:#fafafa;}.cls-5{fill:#263238;}.cls-6{fill:#455a64;}.cls-7{fill:#ff725e;}.cls-12,.cls-8{opacity:0.3;}.cls-9{fill:#fff;}.cls-10{fill:#ffbe9d;}.cls-11{fill:#eb996e;}</style></defs><g id="Capa_2" data-name="Capa 2"><g id="Background_Complete" data-name="Background Complete"><path class="cls-1" d="M562.92,157.12H705.41L682.2,173.87v32.95a6.89,6.89,0,0,1-6.88,6.89H562.92a6.9,6.9,0,0,1-6.89-6.89V164A6.89,6.89,0,0,1,562.92,157.12Z"/><path class="cls-2" d="M568.86,180.41c0,.14,21.49.25,48,.25s48-.11,48-.25-21.49-.25-48-.25S568.86,180.27,568.86,180.41Z"/><path class="cls-2" d="M568.86,193.06c0,.14,21.49.25,48,.25s48-.11,48-.25-21.49-.25-48-.25S568.86,192.92,568.86,193.06Z"/><rect class="cls-2" x="339.84" y="35.52" width="6.67" height="22.34"/><rect class="cls-2" x="284.14" y="32.28" width="6.67" height="25.57"/><rect class="cls-2" x="298.06" y="26.95" width="6.67" height="30.9"/><rect class="cls-2" x="311.99" y="28.65" width="6.67" height="29.21"/><rect class="cls-2" x="325.91" y="18.77" width="6.67" height="39.09"/><rect class="cls-2" x="353.76" y="18.96" width="6.67" height="38.9"/><rect class="cls-2" x="367.69" y="31.73" width="6.67" height="26.12"/><rect class="cls-2" x="381.61" y="20.67" width="6.67" height="37.19"/><rect class="cls-2" x="395.53" y="12.29" width="6.67" height="45.56"/><rect class="cls-2" x="409.46" y="20.48" width="6.67" height="37.38"/><path class="cls-3" d="M591.83,55.79,647,47.36A55.78,55.78,0,1,1,583.4.64,55.39,55.39,0,0,1,598,.34Z"/><path class="cls-2" d="M609.72.51,603,43.26l42-7.88S638.81,11.42,609.72.51Z"/><path class="cls-1" d="M28.75,159.48a27.34,27.34,0,1,1,27.78,27A27.43,27.43,0,0,1,28.75,159.48Zm40.41-.65A13.08,13.08,0,1,0,56.3,172.18,13.12,13.12,0,0,0,69.16,158.83Z"/><path class="cls-2" d="M28.75,159.48a27.44,27.44,0,0,1,26.9-27.9l.23,14.33a13.14,13.14,0,0,0,.42,26.27l.23,14.33A27.43,27.43,0,0,1,28.75,159.48Z"/><path class="cls-3" d="M53.19,129.37a31.24,31.24,0,0,1,32,31.12l-16.69.27c-.14-8.47-6.58-13.8-15-13.67Z"/><rect class="cls-1" x="171.63" y="255.93" width="34.76" height="41.32"/><rect class="cls-2" x="15.76" y="253.23" width="157.07" height="46.61"/><path class="cls-2" d="M207.44,257.15H168.62v-3.92h38.82a2,2,0,0,1,2,2h0A2,2,0,0,1,207.44,257.15Z"/><path class="cls-2" d="M207.44,299.84H168.62v-3.92h38.82a2,2,0,0,1,2,2h0A2,2,0,0,1,207.44,299.84Z"/><rect class="cls-3" x="141.92" y="253.23" width="18.56" height="46.61"/><rect class="cls-3" x="30.7" y="253.75" width="18.56" height="46.61"/><path class="cls-2" d="M206.39,262.76c0,.11-7.53.21-16.8.21s-16.8-.1-16.8-.21,7.52-.21,16.8-.21S206.39,262.65,206.39,262.76Z"/><path class="cls-2" d="M206.39,269c0,.11-7.53.2-16.8.2s-16.8-.09-16.8-.2,7.52-.21,16.8-.21S206.39,268.84,206.39,269Z"/><path class="cls-2" d="M206.39,276.58c0,.12-7.53.21-16.8.21s-16.8-.09-16.8-.21,7.52-.2,16.8-.2S206.39,276.47,206.39,276.58Z"/><path class="cls-2" d="M206.39,284.21c0,.12-7.53.21-16.8.21s-16.8-.09-16.8-.21,7.52-.2,16.8-.2S206.39,284.1,206.39,284.21Z"/><path class="cls-2" d="M206.39,291.84c0,.12-7.53.21-16.8.21s-16.8-.09-16.8-.21,7.52-.2,16.8-.2S206.39,291.73,206.39,291.84Z"/><rect class="cls-3" x="61.28" y="272.39" width="70.66" height="8.39"/><rect class="cls-4" x="170.75" y="300.76" width="35.29" height="25.18"/><rect class="cls-1" x="20.96" y="299.84" width="150.18" height="27"/><path class="cls-1" d="M170.05,301.67H208a.91.91,0,0,0,.91-.91h0a.92.92,0,0,0-.91-.92H170.05Z"/><path class="cls-1" d="M170,325h38.42a.42.42,0,0,1,.42.42v1a.42.42,0,0,1-.42.42H170a0,0,0,0,1,0,0V325A0,0,0,0,1,170,325Z"/><path class="cls-2" d="M206,305.54c0,.11-7.81.2-17.44.2s-17.45-.09-17.45-.2,7.81-.21,17.45-.21S206,305.42,206,305.54Z"/><path class="cls-2" d="M206,310.3c0,.11-7.81.21-17.44.21s-17.45-.1-17.45-.21,7.81-.21,17.45-.21S206,310.19,206,310.3Z"/><path class="cls-2" d="M206,315.06c0,.12-7.81.21-17.44.21s-17.45-.09-17.45-.21,7.81-.2,17.45-.2S206,315,206,315.06Z"/><path class="cls-2" d="M206,319.83c0,.11-7.81.2-17.44.2s-17.45-.09-17.45-.2,7.81-.21,17.45-.21S206,319.71,206,319.83Z"/><rect class="cls-3" x="175.37" y="329.24" width="36.02" height="68.25"/><rect class="cls-2" x="6.3" y="326.84" width="169.07" height="74"/><path class="cls-2" d="M214.2,400.84H170.75V396H214.2a2.4,2.4,0,0,1,2.4,2.4h0A2.39,2.39,0,0,1,214.2,400.84Z"/><path class="cls-2" d="M170.75,326.84H215.5a1.1,1.1,0,0,1,1.1,1.1v2.6a1.1,1.1,0,0,1-1.1,1.1H170.75a0,0,0,0,1,0,0v-4.8A0,0,0,0,1,170.75,326.84Z"/><path class="cls-2" d="M211.39,338.39c0,.12-8.07.21-18,.21s-18-.09-18-.21,8.06-.2,18-.2S211.39,338.28,211.39,338.39Z"/><path class="cls-2" d="M211.39,347.15c0,.11-8.07.2-18,.2s-18-.09-18-.2,8.06-.21,18-.21S211.39,347,211.39,347.15Z"/><path class="cls-2" d="M211.39,355.9c0,.11-8.07.2-18,.2s-18-.09-18-.2,8.06-.21,18-.21S211.39,355.78,211.39,355.9Z"/><path class="cls-2" d="M211.39,364.65c0,.12-8.07.21-18,.21s-18-.09-18-.21,8.06-.2,18-.2S211.39,364.54,211.39,364.65Z"/><path class="cls-2" d="M211.39,373.4c0,.12-8.07.21-18,.21s-18-.09-18-.21,8.06-.2,18-.2S211.39,373.29,211.39,373.4Z"/><path class="cls-2" d="M211.39,382.16c0,.11-8.07.2-18,.2s-18-.09-18-.2,8.06-.21,18-.21S211.39,382,211.39,382.16Z"/><path class="cls-2" d="M211.39,390.91c0,.11-8.07.21-18,.21s-18-.1-18-.21,8.06-.21,18-.21S211.39,390.8,211.39,390.91Z"/><path class="cls-3" d="M64.15,367.89V372c0,5-2.48,7.79-7.26,7.79S49.63,377,49.63,372V355.89c0-4.95,2.48-7.79,7.26-7.79s7.26,2.84,7.26,7.79v3h-4.6v-3.33c0-2.21-1-3.05-2.53-3.05s-2.52.84-2.52,3.05v16.74c0,2.21,1,3,2.52,3s2.53-.8,2.53-3v-4.43Z"/><path class="cls-3" d="M66.72,355.89c0-4.95,2.61-7.79,7.39-7.79s7.39,2.84,7.39,7.79V372c0,5-2.61,7.79-7.39,7.79S66.72,377,66.72,372Zm4.87,16.43c0,2.21,1,3.05,2.52,3.05s2.52-.84,2.52-3.05V355.58c0-2.21-1-3.05-2.52-3.05s-2.52.84-2.52,3.05Z"/><path class="cls-3" d="M84.64,348.46h4.87V375h8v4.43H84.64Z"/><path class="cls-3" d="M99.25,355.89c0-4.95,2.61-7.79,7.39-7.79s7.39,2.84,7.39,7.79V372c0,5-2.61,7.79-7.39,7.79S99.25,377,99.25,372Zm4.87,16.43c0,2.21,1,3.05,2.52,3.05s2.52-.84,2.52-3.05V355.58c0-2.21-1-3.05-2.52-3.05s-2.52.84-2.52,3.05Z"/><path class="cls-3" d="M121.82,348.46v23.9c0,2.22,1,3,2.53,3s2.52-.79,2.52-3v-23.9h4.61v23.59c0,5-2.48,7.8-7.27,7.8S117,377,117,372.05V348.46Z"/><path class="cls-3" d="M145,379.45a9.71,9.71,0,0,1-.44-3.81v-4.87c0-2.88-1-3.94-3.19-3.94h-1.68v12.62h-4.87v-31h7.35c5.05,0,7.22,2.34,7.22,7.12V358c0,3.19-1,5.27-3.19,6.29,2.44,1,3.23,3.36,3.23,6.59v4.78a9.26,9.26,0,0,0,.53,3.77Zm-5.31-26.57v9.52h1.91c1.81,0,2.92-.79,2.92-3.27v-3.06c0-2.21-.75-3.19-2.48-3.19Z"/><path class="cls-2" d="M63.1,310.48H59.55l.18-.92h8.16l-.21.92H64.15l-1.83,9.14h-1Z"/><path class="cls-2" d="M74.72,312.06,69.2,320.6c-.93,1.44-1.64,1.88-2.73,1.88a2.4,2.4,0,0,1-1.79-.68l.54-.74a1.77,1.77,0,0,0,1.34.54c.65,0,1.15-.3,1.74-1.22l.53-.8L67,312.06h1l1.57,6.44,4.12-6.44Z"/><path class="cls-2" d="M83.13,315.19a4.26,4.26,0,0,1-4.28,4.5A2.84,2.84,0,0,1,76,318l-.86,4.37h-1l2-10.35h1l-.24,1.21A3.8,3.8,0,0,1,79.82,312,3.06,3.06,0,0,1,83.13,315.19Zm-1,.06a2.22,2.22,0,0,0-2.49-2.36,3.3,3.3,0,0,0-3.26,3.55,2.2,2.2,0,0,0,2.48,2.35A3.3,3.3,0,0,0,82.1,315.25Z"/><path class="cls-2" d="M84.32,316.49A4.29,4.29,0,0,1,88.69,312c2.1,0,3.44,1.24,3.44,3.19a4.3,4.3,0,0,1-4.37,4.5A3.11,3.11,0,0,1,84.32,316.49Zm6.79-1.24a2.22,2.22,0,0,0-2.49-2.36,3.33,3.33,0,0,0-3.28,3.55,2.21,2.21,0,0,0,2.49,2.35A3.31,3.31,0,0,0,91.11,315.25Z"/><path class="cls-2" d="M101.91,312.06l-1.32,6.64c-.53,2.67-1.94,3.78-4.4,3.78a4.76,4.76,0,0,1-3.36-1.14l.6-.77a3.93,3.93,0,0,0,2.83,1,3,3,0,0,0,3.28-2.71l.17-.83a3.93,3.93,0,0,1-3,1.29c-2,0-3.33-1.16-3.33-3.05A4.17,4.17,0,0,1,97.67,312a2.89,2.89,0,0,1,3,1.73l.31-1.67Zm-1.72,3c0-1.38-.94-2.2-2.51-2.2a3.21,3.21,0,0,0-3.29,3.34c0,1.38.92,2.2,2.5,2.2A3.22,3.22,0,0,0,100.19,315.09Z"/><path class="cls-2" d="M108.58,312l-.19,1h-.29c-1.61,0-2.68.92-3.06,2.8l-.76,3.84h-1l1.49-7.56h1l-.26,1.38A3.43,3.43,0,0,1,108.58,312Z"/><path class="cls-2" d="M117.24,312.06l-1.51,7.56h-1l.24-1.19a3.87,3.87,0,0,1-3,1.26,3,3,0,0,1-3.29-3.2A4.26,4.26,0,0,1,113,312a2.84,2.84,0,0,1,2.88,1.64l.31-1.58Zm-1.69,3.19a2.22,2.22,0,0,0-2.49-2.36,3.33,3.33,0,0,0-3.28,3.55,2.21,2.21,0,0,0,2.49,2.35A3.31,3.31,0,0,0,115.55,315.25Z"/><path class="cls-2" d="M127.06,315.19a4.26,4.26,0,0,1-4.29,4.5A2.83,2.83,0,0,1,119.9,318l-.86,4.37h-1l2-10.35h1l-.25,1.21a3.82,3.82,0,0,1,3-1.27A3.06,3.06,0,0,1,127.06,315.19Zm-1,.06a2.21,2.21,0,0,0-2.48-2.36,3.3,3.3,0,0,0-3.27,3.55,2.21,2.21,0,0,0,2.49,2.35A3.3,3.3,0,0,0,126,315.25Z"/><path class="cls-2" d="M136.21,314.46a4.41,4.41,0,0,1-.09.86l-.86,4.3h-1l.86-4.31a3.57,3.57,0,0,0,.08-.69c0-1.08-.65-1.7-2-1.7a3,3,0,0,0-3.08,2.65l-.8,4.05h-1L130.45,309h1l-.85,4.24a3.68,3.68,0,0,1,2.89-1.19C135.22,312,136.21,312.92,136.21,314.46Z"/><path class="cls-2" d="M145.77,312.06l-5.52,8.54c-.94,1.44-1.64,1.88-2.74,1.88a2.4,2.4,0,0,1-1.79-.68l.54-.74a1.79,1.79,0,0,0,1.34.54c.65,0,1.15-.3,1.74-1.22l.53-.8L138,312.06h1l1.57,6.44,4.13-6.44Z"/><path class="cls-1" d="M168.55,1.28H15.16l25,18V54.78a7.4,7.4,0,0,0,7.4,7.41h121a7.4,7.4,0,0,0,7.4-7.41V8.68A7.4,7.4,0,0,0,168.55,1.28Z"/><path class="cls-2" d="M162.15,26.35c0,.15-23.14.27-51.67.27s-51.67-.12-51.67-.27,23.13-.27,51.67-.27S162.15,26.2,162.15,26.35Z"/><path class="cls-2" d="M162.15,40c0,.15-23.14.27-51.67.27S58.81,40.12,58.81,40s23.13-.27,51.67-.27S162.15,39.82,162.15,40Z"/></g><g id="Table"><path class="cls-5" d="M700.53,400.84c0,.15-156.83.26-350.25.26S0,401,0,400.84s156.8-.26,350.28-.26S700.53,400.7,700.53,400.84Z"/></g><g id="Plants"><path class="cls-6" d="M634.72,349.8s-26.51-30.51-36.51-61-5.26-27-5.26-27,13.51,29.63,23.76,44,28.51,35.32,28.51,35.32Z"/><path class="cls-6" d="M640,266.53a1.55,1.55,0,0,0-2.88,1c1.62,10.72,5.11,35.87,5,52.18-.18,21.19,0,29.38,0,29.38h11s-2-43.8-4.46-57.16C646.94,282.55,643.23,272.15,640,266.53Z"/><path class="cls-6" d="M646,345.51a116.58,116.58,0,0,0,9.08-32.94c.91-7.8-.71-18.34-3.12-32.41a86.77,86.77,0,0,1-1.39-15.59,2.63,2.63,0,0,1,4.94-1.24c1.33,2.38,5.18,10.49,6.16,15.58,2.67,13.89,5.7,20.84,3.39,34S654.2,346.4,654.2,346.4Z"/><path class="cls-6" d="M656,346.4s29.11-62.55,31.12-71.83,8.88-30.66,9.68-29.45,2,12.51-3.22,25.42-27.64,77.76-27.64,77.76H656"/><path class="cls-5" d="M642.83,343.6A6.34,6.34,0,0,1,642,343c-.52-.39-1.3-.94-2.25-1.72-1.94-1.53-4.66-3.84-7.83-6.91a131.24,131.24,0,0,1-21.11-27.1,177.11,177.11,0,0,1-14.41-31.22c-1.47-4.15-2.53-7.55-3.23-9.92-.35-1.18-.6-2.1-.77-2.72a6.06,6.06,0,0,1-.23-1,5.48,5.48,0,0,1,.35.93c.22.67.51,1.57.88,2.69.77,2.34,1.9,5.71,3.41,9.84A188.52,188.52,0,0,0,611.35,307a137.07,137.07,0,0,0,20.89,27.11c3.12,3.09,5.78,5.45,7.67,7,.93.81,1.69,1.39,2.18,1.81A6.06,6.06,0,0,1,642.83,343.6Z"/><path class="cls-5" d="M646,313.59a11.17,11.17,0,0,1-.26-1.83l-.54-5c-.46-4.23-1.18-10.06-2.2-16.47s-2.18-12.18-3.07-16.34c-.43-2-.79-3.66-1.06-4.93a11.16,11.16,0,0,1-.33-1.83,10.67,10.67,0,0,1,.56,1.77c.33,1.15.76,2.82,1.26,4.89,1,4.14,2.21,9.91,3.25,16.34s1.68,12.28,2,16.53c.18,2.13.29,3.85.34,5A11.37,11.37,0,0,1,646,313.59Z"/><path class="cls-5" d="M652.83,262.84a4.22,4.22,0,0,1,.34.8L654,266c.39,1,.83,2.25,1.25,3.72s1,3.13,1.42,5l.72,2.94c.24,1,.42,2.11.64,3.22.47,2.22.77,4.63,1.12,7.16A106.64,106.64,0,0,1,658,321.07c-.54,2.5-1,4.88-1.64,7.06-.3,1.09-.55,2.16-.86,3.16s-.64,2-.93,2.89c-.56,1.84-1.24,3.45-1.77,4.89s-1.06,2.65-1.52,3.62l-1,2.26a5.36,5.36,0,0,1-.4.77,4.76,4.76,0,0,1,.28-.82c.24-.59.55-1.35.93-2.3s.92-2.21,1.41-3.65,1.15-3.06,1.68-4.91c.28-.92.58-1.88.88-2.88s.55-2.07.84-3.16c.6-2.18,1-4.55,1.56-7a109.74,109.74,0,0,0,1.18-32.89c-.33-2.51-.61-4.91-1.06-7.12-.21-1.11-.37-2.19-.6-3.22s-.46-2-.68-2.93c-.39-1.89-.92-3.54-1.32-5s-.8-2.72-1.14-3.74-.57-1.76-.77-2.36A4.85,4.85,0,0,1,652.83,262.84Z"/><path class="cls-5" d="M696.42,246.38a1.19,1.19,0,0,1,0,.28c0,.22-.08.49-.13.81-.13.71-.29,1.77-.57,3.11-.57,2.69-1.5,6.57-3,11.26S689.3,272.05,687,278.1s-5.08,12.66-7.67,19.68-4.64,13.85-6.54,20.06-3.67,11.8-5.39,16.4a106.32,106.32,0,0,1-4.6,10.7c-.59,1.24-1.13,2.16-1.48,2.8l-.4.71c-.1.16-.15.24-.16.23a1.42,1.42,0,0,1,.1-.26l.35-.74c.31-.66.81-1.6,1.37-2.85,1.18-2.48,2.75-6.12,4.41-10.74s3.4-10.19,5.25-16.41,3.88-13.08,6.51-20.12,5.34-13.63,7.71-19.66,4.41-11.52,5.91-16.19,2.51-8.51,3.14-11.18c.32-1.33.52-2.38.69-3.08.07-.32.13-.59.19-.8A.91.91,0,0,1,696.42,246.38Z"/><path class="cls-6" d="M606.68,232.56a2.51,2.51,0,0,0-4.13,2.56,72.31,72.31,0,0,0,3.66,9.4c4,8.5,15.75,39,21.25,55.77s13.26,48,13.26,48l11.75-1.9S641.72,295,631.21,276.53C622.78,261.66,614.34,240.17,606.68,232.56Z"/><path class="cls-5" d="M630.68,310.77a6.91,6.91,0,0,1,.6,1.41c.35.92.83,2.26,1.36,3.94,1.08,3.35,2.41,8,3.74,13.23s2.44,9.94,3.21,13.37c.35,1.62.65,3,.88,4.07a7.4,7.4,0,0,1,.25,1.51,7.5,7.5,0,0,1-.48-1.45l-1.08-4c-.9-3.53-2.08-8.18-3.38-13.31s-2.59-9.89-3.56-13.26c-.47-1.6-.85-2.93-1.16-4A6.79,6.79,0,0,1,630.68,310.77Z"/><path class="cls-5" d="M646.62,347.35a1.77,1.77,0,0,1-.07-.31c0-.25-.08-.55-.13-.93-.12-.81-.23-2-.48-3.56-.43-3.08-1.2-7.53-2.46-13a189.39,189.39,0,0,0-5.5-18.77c-2.41-7-5.44-14.48-8.86-22.26C622.21,273,615.3,259.22,610.77,249c-2.3-5.08-4.07-9.24-5.24-12.13-.6-1.44-1-2.58-1.32-3.34-.14-.36-.24-.65-.33-.88a1.26,1.26,0,0,1-.09-.3s.06.09.15.28.23.5.38.85c.35.8.83,1.9,1.43,3.3,1.24,2.86,3.07,7,5.42,12,4.63,10.14,11.6,23.9,18.52,39.47,3.43,7.79,6.44,15.34,8.83,22.33a175.58,175.58,0,0,1,5.38,18.86c1.21,5.45,1.92,9.92,2.28,13,.21,1.55.28,2.76.36,3.58,0,.38.06.68.08.93A1.3,1.3,0,0,1,646.62,347.35Z"/><path class="cls-5" d="M652.47,346.4a10.89,10.89,0,0,1-.4-2c-.23-1.38-.54-3.2-.91-5.4-.81-4.55-2-10.82-3.83-17.64s-3.74-12.91-5.26-17.27L640.23,299a12.83,12.83,0,0,1-.63-1.92,13.23,13.23,0,0,1,.85,1.83c.51,1.19,1.22,2.93,2,5.1a170.38,170.38,0,0,1,5.45,17.26A177.79,177.79,0,0,1,651.59,339c.33,2.29.59,4.15.72,5.44A13.42,13.42,0,0,1,652.47,346.4Z"/><rect class="cls-7" x="630.72" y="344.71" width="45.86" height="55.87"/><g class="cls-8"><rect x="630.72" y="344.71" width="45.86" height="55.87"/></g><rect class="cls-7" x="621.27" y="344.71" width="40.68" height="55.87"/><path class="cls-6" d="M65.79,325.28c-7.81-5-18.63-5.09-26.24.22-7.21,5.05-10.88,14.23-10.56,23s4.58,19.55,12.56,24.17l23.4-.09A31.47,31.47,0,0,0,77.83,349C78.18,339.73,73.6,330.29,65.79,325.28Z"/><path class="cls-5" d="M54.27,373.55a10.77,10.77,0,0,1-.15-2c0-1.44-.09-3.28-.15-5.49-.12-4.63-.3-11-.61-18.1s-.7-13.45-1-18.08c-.14-2.21-.25-4.05-.33-5.48a10.39,10.39,0,0,1,0-2,10.63,10.63,0,0,1,.32,2c.16,1.29.35,3.16.56,5.47.43,4.62.89,11,1.2,18.09s.41,13.49.4,18.13c0,2.32,0,4.19-.09,5.49A10.38,10.38,0,0,1,54.27,373.55Z"/><path class="cls-5" d="M31.35,346.53c0,.21-1.29.27-2.84.15s-2.8-.4-2.78-.61,1.29-.27,2.84-.14S31.36,346.33,31.35,346.53Z"/><path class="cls-5" d="M31.78,338.64c-.08.19-1.18-.12-2.45-.68s-2.23-1.17-2.14-1.36,1.18.12,2.45.68S31.87,338.45,31.78,338.64Z"/><path class="cls-5" d="M35.85,332.78c-.11.17-1.34-.41-2.62-1.48s-2.09-2.16-1.94-2.3,1.17.7,2.41,1.73S36,332.6,35.85,332.78Z"/><path class="cls-5" d="M39.93,327.25c-.19.08-.78-.84-1.32-2.06s-.82-2.29-.63-2.37.78.84,1.32,2.06S40.12,327.16,39.93,327.25Z"/><path class="cls-5" d="M46.34,323.32c-.18.09-.82-.89-1.24-2.26s-.46-2.53-.26-2.56.56,1,1,2.34S46.53,323.24,46.34,323.32Z"/><path class="cls-5" d="M57,318.9c.2.07.08.91-.26,1.88s-.78,1.69-1,1.62-.08-.91.26-1.87S56.85,318.83,57,318.9Z"/><path class="cls-5" d="M65,322.31c.14.15-.37.85-1.14,1.56s-1.51,1.16-1.65,1,.37-.85,1.14-1.56S64.84,322.15,65,322.31Z"/><path class="cls-5" d="M72,326.82c.12.17-.5.79-1.38,1.39s-1.69.94-1.81.77.5-.79,1.39-1.39S71.85,326.65,72,326.82Z"/><path class="cls-5" d="M76.92,333.54c.08.19-.9.79-2.18,1.34s-2.4.84-2.48.65.9-.79,2.18-1.34S76.84,333.35,76.92,333.54Z"/><path class="cls-5" d="M78.87,340.88c0,.2-1,.49-2.22.65s-2.29.11-2.31-.09,1-.5,2.22-.65S78.85,340.67,78.87,340.88Z"/><path class="cls-5" d="M79.89,349.91c-.08.19-1.14-.09-2.37-.62s-2.15-1.12-2.07-1.31,1.14.09,2.37.62S80,349.72,79.89,349.91Z"/><path class="cls-5" d="M79,357.66c-.07.18-1.41-.13-2.81-1.06s-2.24-2-2.09-2.14,1.17.66,2.5,1.52S79.07,357.46,79,357.66Z"/><path class="cls-5" d="M75,364.71c-.12.16-1.19-.47-2.21-1.57s-1.58-2.22-1.41-2.33,1,.76,2,1.82S75.09,364.55,75,364.71Z"/><path class="cls-5" d="M36.65,365.54c.1.18-1,.95-2.5,1.72s-2.75,1.25-2.85,1.06,1-.95,2.51-1.72S36.56,365.36,36.65,365.54Z"/><path class="cls-5" d="M33.15,359.16c.09.19-.81.78-2,1.32s-2.23.83-2.32.64.82-.78,2-1.32S33.07,359,33.15,359.16Z"/><path class="cls-5" d="M30.58,353.51c0,.2-1.07.53-2.47.73s-2.54.19-2.57,0,1.07-.53,2.47-.72S30.55,353.3,30.58,353.51Z"/><path class="cls-5" d="M39,350.39c.06.19-1,.7-2.46.86S34,351.16,34,351s1.14-.3,2.5-.45S39,350.19,39,350.39Z"/><path class="cls-5" d="M46,343.42c.06.19-.8.63-2,.74S42,344,42,343.81s.91-.29,2-.4S46,343.22,46,343.42Z"/><path class="cls-5" d="M47.37,337.83c-.07.2-1,.05-2.08-.32s-1.9-.83-1.83-1,1-.05,2.08.32S47.43,337.64,47.37,337.83Z"/><path class="cls-5" d="M49.94,332.18c-.15.15-.79-.28-1.24-1.07s-.5-1.55-.31-1.6.55.53,1,1.23S50.09,332,49.94,332.18Z"/><path class="cls-5" d="M46.84,355.31c0,.2-.76.57-1.8.83a7.37,7.37,0,0,1-1.51.22l-.15-.44c.27-.05.45,0,.48.05s-.07.21-.29.38l-.15-.44a6.9,6.9,0,0,1,1.44-.5C45.91,355.16,46.79,355.11,46.84,355.31Z"/><path class="cls-5" d="M48.28,365.22c.08.19-1,.77-2.29,1.3s-2.49.8-2.56.61,1-.78,2.29-1.31S48.21,365,48.28,365.22Z"/><path class="cls-5" d="M40.37,360.82c.06.19-.62.6-1.53.91s-1.71.4-1.77.21.62-.61,1.53-.92S40.3,360.62,40.37,360.82Z"/><path class="cls-5" d="M41,340.66c0,.19-1.24.08-2.61-.41s-2.38-1.15-2.3-1.33,1.21.15,2.54.62S41,340.45,41,340.66Z"/><path class="cls-5" d="M60.13,338.46c.11.18-.56.82-1.5,1.44s-1.79,1-1.91.81.56-.81,1.5-1.43S60,338.29,60.13,338.46Z"/><path class="cls-5" d="M61.17,348.41c0,.2-.66.52-1.57.71s-1.69.18-1.73,0,.66-.52,1.58-.71S61.13,348.21,61.17,348.41Z"/><path class="cls-5" d="M62.38,359.59c-.08.19-1.1-.09-2.26-.63s-2-1.13-2-1.32,1.1.1,2.27.64S62.47,359.41,62.38,359.59Z"/><path class="cls-5" d="M59.82,370.48c-.16.13-.82-.41-1.47-1.2s-1.06-1.55-.9-1.68.82.41,1.48,1.2S60,370.35,59.82,370.48Z"/><path class="cls-5" d="M59.3,331.14c.12.16-.31.71-1.06,1.08s-1.44.4-1.5.2.49-.52,1.17-.87S59.17,331,59.3,331.14Z"/><path class="cls-5" d="M68.69,341.17c.06.19-.8.67-2,.83s-2.16-.05-2.14-.25.93-.33,2-.49S68.62,341,68.69,341.17Z"/><path class="cls-5" d="M66.81,332.17c.1.18-.77.79-2,1.18s-2.29.4-2.32.2.93-.53,2.09-.91S66.72,332,66.81,332.17Z"/><path class="cls-5" d="M70.74,355.12c0,.2-1.48.33-3.26,0s-3.12-1-3-1.15,1.46.1,3.18.41S70.74,354.91,70.74,355.12Z"/><path class="cls-5" d="M67.25,368.2c-.13.16-1.21-.48-2.3-1.57s-1.72-2.18-1.56-2.3,1,.72,2.09,1.77S67.38,368,67.25,368.2Z"/><path class="cls-5" d="M51.91,321.52a34,34,0,0,0-6.55,5.18,32,32,0,0,0-8.16,18,40.42,40.42,0,0,0,.49,11,84.94,84.94,0,0,0,2.07,8.87c.72,2.49,1.38,4.49,1.82,5.88a14.77,14.77,0,0,1,.63,2.17,11.75,11.75,0,0,1-.91-2.07c-.52-1.36-1.26-3.34-2-5.83A76.09,76.09,0,0,1,37,355.9a39.79,39.79,0,0,1-.55-11.26A31.41,31.41,0,0,1,45,326.33a23.6,23.6,0,0,1,4.88-3.82,13.64,13.64,0,0,1,1.5-.77A1.69,1.69,0,0,1,51.91,321.52Z"/><path class="cls-5" d="M62.09,373.18a80.52,80.52,0,0,0,3.36-8,45.41,45.41,0,0,0,2-20.63,38.85,38.85,0,0,0-3.18-11A26,26,0,0,0,58.85,326a19.93,19.93,0,0,0-5.31-3.36c-1.38-.57-2.21-.71-2.2-.77s.21,0,.61.05a11.19,11.19,0,0,1,1.69.45,18.51,18.51,0,0,1,5.56,3.23,25.71,25.71,0,0,1,5.7,7.66,38.19,38.19,0,0,1,3.3,11.2A43.82,43.82,0,0,1,66,365.33c-.42,1.29-1,2.4-1.37,3.4s-.88,1.8-1.24,2.46A12.69,12.69,0,0,1,62.09,373.18Z"/><polygon class="cls-7" points="33.16 371.42 74.34 371.42 74.59 379.66 33.16 379.66 33.16 371.42"/><polygon class="cls-7" points="36.65 375.54 39.02 400.7 69.13 400.7 71.54 375.81 36.65 375.54"/><path class="cls-5" d="M74.59,379.76c0,.21-9.27.37-20.71.37s-20.71-.16-20.71-.37,9.27-.37,20.71-.37S74.59,379.55,74.59,379.76Z"/><path class="cls-5" d="M70.4,387.42a5.48,5.48,0,0,1-.88,1.58,22.89,22.89,0,0,1-3.19,3.77l-.19.18-.19-.2a58.45,58.45,0,0,0-8.07-7.06l.46,0-3.58,3.14-4.23,3.68-.23.2-.24-.19-6.88-5.78.4-.05L40,391a10,10,0,0,1-1.4,1.53,10.65,10.65,0,0,1,1.15-1.72l3.36-4.49.17-.23.23.18,7,5.66h-.47c1.35-1.19,2.76-2.43,4.22-3.7,1.23-1.08,2.43-2.13,3.59-3.13l.22-.19.23.17a52.39,52.39,0,0,1,8,7.29H66A41.34,41.34,0,0,0,70.4,387.42Z"/></g><g id="Device"><rect class="cls-6" x="114.73" y="86.26" width="465.06" height="307.54" rx="14.57"/><path class="cls-6" d="M99.51,373.93H603.36a0,0,0,0,1,0,0V383a17.8,17.8,0,0,1-17.8,17.8H117.3A17.8,17.8,0,0,1,99.51,383v-9.11A0,0,0,0,1,99.51,373.93Z"/><polygon class="cls-5" points="301.41 371.05 307.67 380.99 395.65 380.99 401.45 371.05 301.41 371.05"/><path class="cls-5" d="M575.79,371.05c0,.17-103.22.3-230.52.3s-230.54-.13-230.54-.3,103.2-.3,230.54-.3S575.79,370.88,575.79,371.05Z"/><rect class="cls-3" x="128.05" y="103.94" width="436.6" height="258.98" rx="3.27"/><polygon class="cls-9" points="564.18 363.3 127.58 363.3 128.05 123.3 564.18 123.3 564.18 363.3"/><path class="cls-5" d="M163.86,113.94a3.49,3.49,0,1,1-3.49-3.48A3.49,3.49,0,0,1,163.86,113.94Z"/><path class="cls-5" d="M142.72,113.94a3.49,3.49,0,1,1-3.48-3.48A3.48,3.48,0,0,1,142.72,113.94Z"/><path class="cls-5" d="M152.87,113.94a3.49,3.49,0,1,1-3.49-3.48A3.49,3.49,0,0,1,152.87,113.94Z"/><rect class="cls-5" x="127.58" y="340.12" width="437.07" height="23.18"/><path class="cls-9" d="M144.09,354.39v.74h-3.48v-.58l1.88-1.78c.46-.44.54-.72.54-1,0-.43-.3-.68-.88-.68a1.31,1.31,0,0,0-1.1.49l-.62-.47a2.18,2.18,0,0,1,1.8-.79c1,0,1.68.52,1.68,1.36a1.89,1.89,0,0,1-.78,1.49l-1.26,1.2Z"/><path class="cls-9" d="M144.57,352.05a.55.55,0,1,1,1.1,0,.55.55,0,1,1-1.1,0Zm0,2.57a.55.55,0,1,1,1.1,0,.55.55,0,1,1-1.1,0Z"/><path class="cls-9" d="M147.87,350.41v4.72H147v-4h-1v-.74Z"/><path class="cls-9" d="M153,354.06h-.84v1.07h-.85v-1.07h-2.59v-.61l2.33-3H152l-2.19,2.91h1.55v-.95h.82v.95H153Z"/><rect class="cls-9" x="160.73" y="352.17" width="358.24" height="1.63"/><rect class="cls-7" x="160.46" y="350.41" width="111.95" height="4.36"/><path class="cls-7" d="M276,353a5.46,5.46,0,1,1-5.46-5.45A5.46,5.46,0,0,1,276,353Z"/><path class="cls-9" d="M528,352.94a1.57,1.57,0,0,1-1.73,1.53c-1.28,0-2-.83-2-2.35a2.23,2.23,0,0,1,2.31-2.51,2.26,2.26,0,0,1,1.24.31l-.32.66a1.61,1.61,0,0,0-.9-.23c-.89,0-1.45.55-1.45,1.62h0a1.63,1.63,0,0,1,1.26-.49A1.47,1.47,0,0,1,528,352.94Zm-.85,0c0-.49-.37-.8-.94-.8a.86.86,0,0,0-1,.81c0,.44.35.79,1,.79A.82.82,0,0,0,527.14,353Z"/><path class="cls-9" d="M528.42,351.32a.55.55,0,1,1,1.1,0,.55.55,0,1,1-1.1,0Zm0,2.57a.55.55,0,1,1,1.1,0,.55.55,0,1,1-1.1,0Z"/><path class="cls-9" d="M530.09,352c0-1.55.85-2.43,2-2.43s2,.88,2,2.43-.85,2.43-2,2.43S530.09,353.59,530.09,352Zm3.06,0c0-1.14-.44-1.67-1.09-1.67S531,350.9,531,352s.45,1.67,1.09,1.67S533.15,353.18,533.15,352Z"/><path class="cls-9" d="M534.62,352c0-1.55.85-2.43,2-2.43s2,.88,2,2.43-.85,2.43-2,2.43S534.62,353.59,534.62,352Zm3.06,0c0-1.14-.44-1.67-1.09-1.67s-1.08.53-1.08,1.67.44,1.67,1.08,1.67S537.68,353.18,537.68,352Z"/><polygon class="cls-9" points="546.2 351.75 544.56 351.75 544.56 347.04 549.26 347.04 549.26 348.67 546.2 348.67 546.2 351.75"/><polygon class="cls-9" points="549.27 357.89 544.56 357.89 544.56 353.19 546.19 353.19 546.19 356.26 549.27 356.26 549.27 357.89"/><polygon class="cls-9" points="556.76 357.89 552.07 357.89 552.07 356.26 555.13 356.26 555.13 353.18 556.76 353.18 556.76 357.89"/><polygon class="cls-9" points="556.77 351.74 555.14 351.74 555.14 348.67 552.06 348.67 552.06 347.04 556.77 347.04 556.77 351.74"/><polygon class="cls-3" points="187.45 137.57 161.72 137.57 148.85 159.85 161.72 182.14 187.45 182.14 200.32 159.85 187.45 137.57"/><path class="cls-5" d="M163.82,164.21a22.81,22.81,0,0,1-3.15-4.05,7.71,7.71,0,0,1-1.06-4.94c.16-1,.58-1.93.65-2.93.09-1.38-.49-2.82,0-4.11.77-2,3.48-2.33,5.13-3.72,1.28-1.09,1.91-2.85,3.32-3.76a6.25,6.25,0,0,1,4.27-.58,16.13,16.13,0,0,0,4.37.38,30.14,30.14,0,0,0,3-.81,4.12,4.12,0,0,1,3.05.21,2,2,0,0,1,.82,2.67c1.68-.78,3.83.54,4.29,2.33a5.06,5.06,0,0,1-1.89,4.93,11,11,0,0,1-5.1,2.08c-5.17,1-10.77.43-15.22-2.37"/><path class="cls-10" d="M187.68,169.72c-.17-3.19-1.07-9.73-1.94-15.64a12.34,12.34,0,0,0-13-10.5l-.64,0c-6.84.86-9.93,7.15-8.88,14l2,24.55H181.9s-.39-4.31-.39-4.35S188,176.32,187.68,169.72Z"/><path class="cls-11" d="M181.51,177.69a15.37,15.37,0,0,1-8.77-1.87s2.35,4.62,8.9,3.58Z"/><path class="cls-5" d="M183.61,159.74a.94.94,0,0,1-.84,1,.91.91,0,0,1-1-.78,1,1,0,0,1,.84-1A.91.91,0,0,1,183.61,159.74Z"/><path class="cls-5" d="M184.53,157.4c-.11.13-.85-.35-1.87-.28s-1.72.63-1.84.51.05-.28.35-.54a2.61,2.61,0,0,1,1.47-.56,2.54,2.54,0,0,1,1.5.37C184.47,157.12,184.59,157.34,184.53,157.4Z"/><path class="cls-5" d="M174,160.42a1,1,0,0,1-.85,1,.92.92,0,0,1-1-.79,1,1,0,0,1,.85-1A.91.91,0,0,1,174,160.42Z"/><path class="cls-5" d="M174.57,158.25c-.1.13-.85-.35-1.87-.28s-1.72.63-1.84.52,0-.29.36-.54a2.6,2.6,0,0,1,3-.19C174.51,158,174.63,158.19,174.57,158.25Z"/><path class="cls-5" d="M178.76,165.53a6.45,6.45,0,0,1,1.63-.41c.25,0,.5-.11.53-.29a1.27,1.27,0,0,0-.23-.75c-.28-.62-.58-1.26-.89-1.93a33,33,0,0,1-2.07-5A33.69,33.69,0,0,1,180.2,162c.3.67.59,1.31.86,1.93a1.53,1.53,0,0,1,.21,1,.67.67,0,0,1-.41.41,2,2,0,0,1-.43.09A6.56,6.56,0,0,1,178.76,165.53Z"/><path class="cls-5" d="M174.57,154.26c-.08.28-1.1.22-2.28.44s-2.12.62-2.3.38.07-.39.44-.68a3.85,3.85,0,0,1,1.68-.71,3.76,3.76,0,0,1,1.81.09C174.37,153.93,174.6,154.13,174.57,154.26Z"/><path class="cls-5" d="M184,154.49c-.16.24-.87,0-1.72.09s-1.54.26-1.72,0,0-.35.32-.59a2.5,2.5,0,0,1,2.77-.1C183.92,154.14,184,154.37,184,154.49Z"/><path class="cls-10" d="M164.07,162.44c-.12,0-4.63-1-4.18,3.47s5.32,3,5.32,2.9S164.07,162.44,164.07,162.44Z"/><path class="cls-11" d="M163.21,167.33s-.07.07-.2.14a.76.76,0,0,1-.58.07,1.93,1.93,0,0,1-1.07-1.65,2.56,2.56,0,0,1,.1-1.15.93.93,0,0,1,.54-.66.4.4,0,0,1,.48.17c.07.12.05.21.08.22s.09-.08,0-.27a.52.52,0,0,0-.2-.26.57.57,0,0,0-.45-.07,1.13,1.13,0,0,0-.75.78,2.68,2.68,0,0,0-.15,1.28,2,2,0,0,0,1.34,1.83.86.86,0,0,0,.71-.19C163.21,167.44,163.23,167.34,163.21,167.33Z"/><path class="cls-5" d="M185.4,147.91c-.31,1.79-3.94,3.44-7,3.35-2.78-.08-4.15-1.46-6.17-2.44-1.28-.62-1.28-.62-3-.34-1.4.23-2.13,1.88-2.92,3.06,1.5,3.27.9,7.08.26,10.62a1.82,1.82,0,0,1-.45,1.07,1.44,1.44,0,0,1-1.83-.27,5.58,5.58,0,0,1-1.42-2.87,18.64,18.64,0,0,1-.45-7.32,12.73,12.73,0,0,1,3.05-6.61,12,12,0,0,1,8.19-3.74,14.85,14.85,0,0,1,8.73,2.48,8.67,8.67,0,0,1,3,3"/><path class="cls-11" d="M179.42,167.81l-2.29-1.07a.79.79,0,0,0-.42-.1.67.67,0,0,0-.4.27,2.13,2.13,0,0,0-.25,2.34,1.78,1.78,0,0,0,2.15.79,2.44,2.44,0,0,0,1.28-2.16Z"/><path class="cls-5" d="M178.28,170.21s-.47.36-1.34.12a2.11,2.11,0,0,1-1.19-1,2.19,2.19,0,0,1-.15-1.88,2.32,2.32,0,0,1,.55-.84,2.82,2.82,0,0,1,.39-.29.66.66,0,0,1,.61,0c.52.29.88.54,1.23.76.67.45,1.07.76,1,.82a3.66,3.66,0,0,1-1.22-.5l-1.22-.64c-.1,0-.09,0-.18,0a1.49,1.49,0,0,0-.28.23,1.94,1.94,0,0,0-.43.65,1.78,1.78,0,0,0,.09,1.47,1.84,1.84,0,0,0,.9.85C177.76,170.28,178.27,170.12,178.28,170.21Z"/><path class="cls-5" d="M177.56,159.85c-.05,0,0-.42-.25-1.12a4.62,4.62,0,0,0-1.72-2.47,4.48,4.48,0,1,0,0,7.18,4.6,4.6,0,0,0,1.72-2.46c.21-.71.2-1.13.25-1.13s0,.11,0,.31a3.55,3.55,0,0,1-.09.87,4.69,4.69,0,0,1-1.7,2.71,4.89,4.89,0,0,1-4.64.76,4.93,4.93,0,0,1,0-9.29,4.87,4.87,0,0,1,4.64.76,4.63,4.63,0,0,1,1.7,2.71,3.47,3.47,0,0,1,.09.87C177.59,159.75,177.58,159.85,177.56,159.85Z"/><path class="cls-5" d="M188.79,159.41s0-.41-.24-1.09a4.48,4.48,0,0,0-1.68-2.4,4.36,4.36,0,1,0,0,7,4.55,4.55,0,0,0,1.68-2.4c.2-.69.19-1.1.24-1.1s0,.1,0,.3a3.66,3.66,0,0,1-.08.84,4.58,4.58,0,0,1-1.66,2.65,4.74,4.74,0,0,1-4.52.74,4.81,4.81,0,0,1,0-9.06,4.74,4.74,0,0,1,4.52.74,4.63,4.63,0,0,1,1.66,2.65,3.69,3.69,0,0,1,.08.85C188.82,159.31,188.81,159.41,188.79,159.41Z"/><path class="cls-5" d="M179.63,158.37c-.11.1-.55-.19-1.15-.17s-1,.31-1.14.22.28-.73,1.13-.74S179.76,158.3,179.63,158.37Z"/><path class="cls-5" d="M168.44,159.18c.08.12-.79.92-1.95,1.79a7.26,7.26,0,0,1-2.26,1.36c-.09-.12.78-.91,2-1.78A7,7,0,0,1,168.44,159.18Z"/><path class="cls-5" d="M261.25,159.63c0,.14-11.56.26-25.83.26s-25.84-.12-25.84-.26,11.57-.26,25.84-.26S261.25,159.48,261.25,159.63Z"/><path class="cls-5" d="M237.36,165c0,.15-6.15.26-13.72.26s-13.72-.11-13.72-.26,6.14-.26,13.72-.26S237.36,164.89,237.36,165Z"/></g><g id="Character"><path class="cls-6" d="M416.06,199.58a39.38,39.38,0,0,1,18.56,24c4.82,17.28,19.59,62.28,19.59,62.28s8.44,9.93,9.35,17.28-.91,25.14-3.62,28.46a7.63,7.63,0,0,1-6.58,2.77L417.83,331l-14-93.68Z"/><path class="cls-6" d="M298.57,197.94s-25.4,8-31.73,14.91l20.8,96.76-.33,30.53H407.75c0-1.5,1.08-101.37,1.08-101.37l7.23-39.19L373.25,192l-8.44-6.63-47.63,2.41L310,195.06Z"/><g class="cls-8"><path d="M308.22,281.89c-.37-.82-.9-1.7-1.78-1.88-1.45-.3-2.42,1.41-2.92,2.81a127,127,0,0,1-15.82,30.89l-.31,14.86c7-5.91,13.95-12.24,18.42-20.25S312,290.26,308.22,281.89Z"/></g><path class="cls-6" d="M266.84,212.85S258.47,224.26,255,231.7s-32.27,70-34,76.47-6.21,26.82,7,31.54H255l27.17-54.93L283.55,221Z"/><path class="cls-5" d="M256.73,300s-.61-.53-1.85-1.24a20.81,20.81,0,0,0-5.68-2.06,27.35,27.35,0,0,0-4.14-.58,16.15,16.15,0,0,0-4.75.31,17.67,17.67,0,0,0-9.11,5.72,24.64,24.64,0,0,0-5.16,9.59,47.8,47.8,0,0,0-1.63,8.85c-.25,2.56-.34,4.64-.43,6.08,0,.68-.08,1.22-.11,1.66a2.45,2.45,0,0,1-.07.58,2.17,2.17,0,0,1,0-.58V326.7c0-1.45.07-3.54.28-6.11a45.3,45.3,0,0,1,1.53-9,24.75,24.75,0,0,1,5.23-9.8,18,18,0,0,1,9.4-5.84,16.33,16.33,0,0,1,4.88-.27,26.33,26.33,0,0,1,4.19.65,19.46,19.46,0,0,1,5.7,2.24,9.18,9.18,0,0,1,1.34,1A2.67,2.67,0,0,1,256.73,300Z"/><path class="cls-5" d="M243.89,289.09a3.64,3.64,0,0,1,.91-.14,15,15,0,0,1,2.51,0,21,21,0,0,1,3.7.55,23.33,23.33,0,0,1,4.31,1.53,23.9,23.9,0,0,1,3.9,2.38A20.39,20.39,0,0,1,262,295.9a16.44,16.44,0,0,1,1.56,2,4,4,0,0,1,.46.8c-.08.06-.82-1-2.28-2.52a23.57,23.57,0,0,0-2.77-2.39,23.81,23.81,0,0,0-8-3.84,24.17,24.17,0,0,0-3.6-.64C245.21,289.08,243.9,289.19,243.89,289.09Z"/><path class="cls-5" d="M268.36,286.08a5.58,5.58,0,0,1-1.25-.09c-.8-.11-2-.22-3.39-.33a57.94,57.94,0,0,0-22.14,2.65c-1.36.44-2.46.83-3.21,1.12a5,5,0,0,1-1.2.38,6.86,6.86,0,0,1,1.12-.57c.73-.35,1.82-.79,3.18-1.28a51.21,51.21,0,0,1,22.28-2.67c1.44.16,2.6.33,3.39.5A5.91,5.91,0,0,1,268.36,286.08Z"/><path class="cls-5" d="M345.44,232.63a2.11,2.11,0,0,1-.27-.33l-.74-1-2.72-3.77c-2.34-3.29-5.6-7.89-9.43-13.3l.42-.06c-1.46,4.29-3.06,9-4.76,14l-.1.32-.28-.18-.56-.36a29.14,29.14,0,0,1-5.89-5,35.06,35.06,0,0,1-4.21-5.82A48.62,48.62,0,0,1,312.27,206a75.39,75.39,0,0,1-1.75-8c-.16-.91-.29-1.63-.38-2.18-.05-.25-.1-.43-.13-.56a.74.74,0,0,1-.06-.18c.11-.05.4,1,.77,2.89s.93,4.61,1.9,7.9a50.54,50.54,0,0,0,4.69,11.06,35.26,35.26,0,0,0,4.18,5.71,28.1,28.1,0,0,0,5.79,4.88l.55.36-.38.14,4.8-14,.16-.44.26.38,9.27,13.41c1.1,1.61,2,2.91,2.61,3.85l.68,1A1.54,1.54,0,0,1,345.44,232.63Z"/><g class="cls-8"><path d="M376.8,278.82a54.62,54.62,0,0,0,7,32.45c5.6,9.75,13.81,18.44,24,23.1.33-9.93-.14-21.63.19-31.56Z"/></g><path class="cls-10" d="M375.67,265.75s-4.38,1.21-1.1,10.17,4.38,8.43,6.56,16.81,4.74,16,8.57,20.78,18.05,14.4,18.05,14.4l12.76-12s-2.11-9-1.6-15.05,1.78-21,1.6-23.59-2.92-8.75-2.92-8.75v-4.24L411,244.06s-3.65-1.64-4.92,4.19l-2.19-6.19s-3.46-.56-4.38,6.55.73,17,.73,17L398.45,278l-2.73,8.39-2.37.36s-3.57-1-5.52-7.69S380.59,264.29,375.67,265.75Z"/><path class="cls-11" d="M416.23,297.45a2.66,2.66,0,0,1-.06-.46c0-.34-.05-.79-.09-1.33-.06-1.22-.15-2.92-.27-5-.19-4.35-.47-10.41-.79-17.48l.06.15a2.55,2.55,0,0,0-2.58-.68,3.81,3.81,0,0,0-2.37,1.74c-1.11,1.79-1.17,4.13-1.52,6.38-.69,5.11-1.35,10-1.95,14.41-.31,2.21-.63,4.32-1.06,6.27a41.66,41.66,0,0,1-1.58,5.32c-.56,1.59-1.06,3-1.37,4.33a13,13,0,0,0-.41,3.37,10.17,10.17,0,0,0,.5,2.86,3.79,3.79,0,0,1-.31-.7,7.9,7.9,0,0,1-.4-2.15,13.16,13.16,0,0,1,.33-3.45,43.63,43.63,0,0,1,1.31-4.38,42.45,42.45,0,0,0,1.51-5.29c.41-1.93.71-4,1-6.24.59-4.44,1.24-9.31,1.91-14.42.16-1.14.29-2.26.49-3.38a8.91,8.91,0,0,1,1.12-3.21,4.31,4.31,0,0,1,2.68-1.95,3.06,3.06,0,0,1,3.07.85l.06.07v.08c.24,7.07.45,13.13.6,17.49.06,2.1.1,3.8.13,5,0,.55,0,1,0,1.34A1.38,1.38,0,0,1,416.23,297.45Z"/><path class="cls-11" d="M409.26,274.48a4.78,4.78,0,0,1-.54-1.14,27.9,27.9,0,0,1-1.07-3.27,32,32,0,0,1-.91-5,14.56,14.56,0,0,1-.06-3,6.49,6.49,0,0,1,1.1-3.13,4.53,4.53,0,0,1,2.33-1.75l.2-.06.1.18c1.85,3.26,3.45,6.14,4.58,8.21.52,1,1,1.78,1.31,2.45a4,4,0,0,1,.42.91,3.81,3.81,0,0,1-.58-.82l-1.44-2.37c-1.21-2-2.87-4.88-4.74-8.12l.3.11a4,4,0,0,0-2.05,1.56,6,6,0,0,0-1,2.88,14.51,14.51,0,0,0,0,2.95,37.42,37.42,0,0,0,.8,5c.32,1.4.66,2.51.9,3.28A8.47,8.47,0,0,1,409.26,274.48Z"/><path class="cls-11" d="M406.21,276.12a4.55,4.55,0,0,1-.12-1.16c0-.86-.08-1.92-.13-3.17-.09-2.68-.17-6.38-.23-10.47a90.59,90.59,0,0,1,.16-10.49,16.68,16.68,0,0,1,.69-3.13,3.64,3.64,0,0,1,.47-1.07,29.3,29.3,0,0,0-.79,4.24c-.25,2.64,0,6.35,0,10.44s.09,7.79.08,10.47c0,1.26,0,2.32,0,3.18A5.64,5.64,0,0,1,406.21,276.12Z"/><path class="cls-11" d="M395.42,309.73c-.08-.06.72-1,1.71-2.7a23.35,23.35,0,0,0,1.49-3.11,24.64,24.64,0,0,0,1.13-4.06,24.32,24.32,0,0,0,.36-4.2,22.14,22.14,0,0,0-.31-3.44c-.32-1.94-.74-3.1-.65-3.13a3,3,0,0,1,.36.79,15.58,15.58,0,0,1,.66,2.28,20.34,20.34,0,0,1,.42,3.49,23.33,23.33,0,0,1-.32,4.3,22.94,22.94,0,0,1-1.21,4.14,19.25,19.25,0,0,1-1.61,3.13,15.3,15.3,0,0,1-1.41,1.9C395.66,309.54,395.45,309.76,395.42,309.73Z"/><path class="cls-10" d="M417.82,303.46l11.07,3.85s10.57-5.47,17.86,0,13.63,19.88,11.62,25.71c0,0-5,6.21-8.86,7.12s-18.71-2.69-24.9-4-16.86-8.24-16.86-8.24Z"/><path class="cls-11" d="M419.18,319.78a3.31,3.31,0,0,1-.12-1c0-.75-.1-1.64-.16-2.68-.11-2.26-.27-5.38-.31-8.84a85.19,85.19,0,0,1,.25-8.85c.1-1.13.22-2,.34-2.67a3.21,3.21,0,0,1,.23-1c.08,0-.09,1.4-.2,3.65s-.15,5.38-.1,8.83.12,6.43.16,8.83c0,1.13,0,2.05,0,2.68A4.13,4.13,0,0,1,419.18,319.78Z"/><path class="cls-5" d="M455.69,306.87a35.23,35.23,0,0,0-3.68-3.32,20.28,20.28,0,0,0-22.45-1.23,35.29,35.29,0,0,0-4,2.89,5.39,5.39,0,0,1,.91-1,18.18,18.18,0,0,1,2.92-2.22,19.93,19.93,0,0,1,22.86,1.26,17.55,17.55,0,0,1,2.66,2.53A5.85,5.85,0,0,1,455.69,306.87Z"/><path class="cls-5" d="M454.27,297.64a21.56,21.56,0,0,0-4.61-2.54,20.37,20.37,0,0,0-12.47-.37,28.57,28.57,0,0,0-6.44,2.68,30.59,30.59,0,0,0-4.67,3.3c-1.24,1.06-2.19,2-2.85,2.63a7.75,7.75,0,0,1-1,1,7.78,7.78,0,0,1,.9-1.11,34.57,34.57,0,0,1,2.75-2.77,27.61,27.61,0,0,1,11.21-6.21,20,20,0,0,1,12.74.54,14.56,14.56,0,0,1,3.41,1.92,8,8,0,0,1,.81.69C454.19,297.53,454.28,297.63,454.27,297.64Z"/><path class="cls-5" d="M454.36,289.64c0,.1-2-.49-5.18-.93a44.13,44.13,0,0,0-5.68-.36,45.71,45.71,0,0,0-6.92.63,45,45,0,0,0-6.73,1.78,41.39,41.39,0,0,0-5.21,2.27c-2.88,1.51-4.5,2.73-4.56,2.64a8.2,8.2,0,0,1,1.11-.89c.37-.27.82-.6,1.38-.94s1.16-.76,1.89-1.13a37,37,0,0,1,5.22-2.4,41.31,41.31,0,0,1,6.81-1.84,42,42,0,0,1,7-.6,37.12,37.12,0,0,1,5.73.48c.82.1,1.54.29,2.17.42s1.18.28,1.61.41A6.64,6.64,0,0,1,454.36,289.64Z"/><path class="cls-5" d="M369.52,191.71a9.12,9.12,0,0,1,.77,2.95,28.63,28.63,0,0,1-.42,8.59,51.18,51.18,0,0,1-1.43,6,46.14,46.14,0,0,1-2.91,6.65c-2.38,4.6-5.38,9.61-8.86,15l-.41.62v-.74c0-3.54,0-7.25,0-11.1l.39.19-9.34,7.53.08-.11a98.15,98.15,0,0,0-4.16,22.44c-.91,12.17-.17,23.81.4,34.37s.81,20.1,1.14,28.1.61,14.46.85,18.93c.13,2.21.23,3.94.31,5.14,0,.57.06,1,.08,1.34s0,.46,0,.46,0-.16-.07-.46-.08-.76-.14-1.33c-.11-1.17-.25-2.9-.4-5.14-.3-4.46-.65-10.93-1-18.93s-.79-17.52-1.26-28.08-1.35-22.22-.44-34.44a98.32,98.32,0,0,1,4.2-22.56l0-.07.06,0,9.36-7.52.38-.31v.5c0,3.85,0,7.56,0,11.1l-.41-.13c6.87-10.65,12.46-19.91,13.32-27.4a29.79,29.79,0,0,0,.54-8.53,15.07,15.07,0,0,0-.41-2.21C369.59,192,369.52,191.71,369.52,191.71Z"/><path class="cls-9" d="M351.59,320.71h-.36a2.8,2.8,0,1,0,.36,0Z"/><path class="cls-9" d="M351.59,282.17h-.36a2.8,2.8,0,1,0,.36,0Z"/><path class="cls-9" d="M351.21,247.69a2.82,2.82,0,0,0,.38-5.63h-.36a2.82,2.82,0,0,0,0,5.64Z"/><path class="cls-5" d="M308,146.55c-3.51-3.88-7-7.8-9.6-12.36s-4.08-9.89-3.23-15.06c.49-3,1.78-5.89,2-8.94.28-4.2-1.49-8.59,0-12.53,2.33-6.15,10.61-7.1,15.63-11.35,3.91-3.31,5.82-8.68,10.12-11.47,3.76-2.43,8.58-2.37,13-1.75s8.89,1.75,13.32,1.15c3.16-.42,6.14-1.7,9.24-2.47s6.55-1,9.31.63,4.31,5.52,2.5,8.15c5.14-2.37,11.67,1.64,13.08,7.12s-1.41,11.41-5.77,15-10,5.3-15.55,6.35c-15.75,3-32.83,1.29-46.4-7.23"/><path class="cls-10" d="M363.4,199.5c-.77-6-1.39-10.94-1.43-11.55,0,0,19.92-4.48,18.82-24.62-.53-9.74-3.26-29.7-5.93-47.73a37.59,37.59,0,0,0-39.69-32l-1.94.13c-20.86,2.63-30.28,21.81-27.08,42.59L317.4,196s4.81,15.41,15.08,18.08l13,18.52,2.15-8,9.66-8.42a37.79,37.79,0,0,0,4.76-7.09A15.42,15.42,0,0,0,363.4,199.5Z"/><path class="cls-11" d="M362,187.65s-12.65,1.89-26.74-5.7c0,0,7.17,14.07,27.14,10.92Z"/><path class="cls-5" d="M368.39,132.91a2.88,2.88,0,0,1-2.58,3.08,2.75,2.75,0,0,1-3.14-2.39,2.89,2.89,0,0,1,2.58-3.09A2.76,2.76,0,0,1,368.39,132.91Z"/><path class="cls-5" d="M371.2,125.77c-.33.4-2.62-1.07-5.71-.85s-5.26,1.91-5.62,1.55c-.17-.15.14-.86,1.08-1.64a7.93,7.93,0,0,1,4.47-1.71,7.58,7.58,0,0,1,4.57,1.14C371,124.93,371.36,125.59,371.2,125.77Z"/><path class="cls-5" d="M339.17,135a2.88,2.88,0,0,1-2.58,3.08,2.77,2.77,0,0,1-3.14-2.39A2.89,2.89,0,0,1,336,132.6,2.76,2.76,0,0,1,339.17,135Z"/><path class="cls-5" d="M340.83,128.38c-.33.4-2.62-1.07-5.71-.85s-5.25,1.91-5.61,1.55c-.18-.15.13-.85,1.08-1.64a7.9,7.9,0,0,1,4.46-1.71,7.54,7.54,0,0,1,4.58,1.15C340.63,127.54,341,128.2,340.83,128.38Z"/><path class="cls-5" d="M353.59,150.57c0-.18,1.88-.64,5-1.25.79-.13,1.53-.34,1.62-.89a4,4,0,0,0-.68-2.3c-.87-1.86-1.78-3.82-2.74-5.86-3.81-8.35-6.63-15.23-6.3-15.38s3.71,6.49,7.52,14.84c.93,2.06,1.81,4,2.65,5.9a4.54,4.54,0,0,1,.61,3.07,2,2,0,0,1-1.22,1.24,5.29,5.29,0,0,1-1.33.28C355.56,150.6,353.62,150.74,353.59,150.57Z"/><path class="cls-5" d="M340.82,116.2c-.25.86-3.36.67-7,1.35s-6.47,1.87-7,1.15c-.24-.35.22-1.18,1.34-2.07a12.31,12.31,0,0,1,10.64-1.9C340.21,115.18,340.92,115.8,340.82,116.2Z"/><path class="cls-5" d="M369.46,116.89c-.5.74-2.68.15-5.24.29s-4.7.79-5.25.09c-.24-.34,0-1.07,1-1.8a7.62,7.62,0,0,1,8.45-.3C369.33,115.83,369.68,116.53,369.46,116.89Z"/><path class="cls-10" d="M308.79,141.15c-.35-.13-14.1-3.17-12.74,10.57s16.24,9.25,16.22,8.85S308.79,141.15,308.79,141.15Z"/><path class="cls-11" d="M306.19,156.07c-.07,0-.23.19-.61.41a2.44,2.44,0,0,1-1.79.22c-1.5-.39-3-2.57-3.26-5a7.84,7.84,0,0,1,.33-3.49,2.77,2.77,0,0,1,1.62-2,1.21,1.21,0,0,1,1.47.52c.22.36.16.65.24.66s.27-.26.1-.81a1.48,1.48,0,0,0-.62-.81,1.87,1.87,0,0,0-1.36-.22,3.39,3.39,0,0,0-2.29,2.38,8.36,8.36,0,0,0-.45,3.91c.37,2.76,2,5.2,4.08,5.58a2.54,2.54,0,0,0,2.15-.58C306.19,156.4,306.24,156.09,306.19,156.07Z"/><path class="cls-5" d="M373.85,96.84c-.94,5.47-12,10.47-21.22,10.21-8.47-.25-12.66-4.46-18.82-7.44-3.89-1.89-3.89-1.89-9.18-1-4.28.7-6.5,5.74-8.9,9.35,4.58,10,2.73,21.56.79,32.36a5.46,5.46,0,0,1-1.39,3.28c-1.54,1.36-4.05.54-5.56-.85-2.43-2.22-3.54-5.52-4.34-8.72a56.86,56.86,0,0,1-1.36-22.33,38.6,38.6,0,0,1,9.29-20.16,36.59,36.59,0,0,1,25-11.39,45,45,0,0,1,26.63,7.56c3.64,2.39,7,5.33,9.1,9.17"/><path class="cls-11" d="M355.61,157.52l-7-3.26a2.37,2.37,0,0,0-1.28-.32,2,2,0,0,0-1.21.82,6.5,6.5,0,0,0-.77,7.15,5.46,5.46,0,0,0,6.56,2.42c2.49-1,3.69-3.91,3.88-6.59Z"/><path class="cls-5" d="M352.14,164.82c0,.06-.32.26-1,.41a6.18,6.18,0,0,1-3-.22,6.35,6.35,0,0,1-3.48-2.89,6.43,6.43,0,0,1-.42-5.52,6.69,6.69,0,0,1,1.62-2.45,6.43,6.43,0,0,1,1.14-.86,1.76,1.76,0,0,1,.8-.25,1.91,1.91,0,0,1,.82.15c.45.21.75.43,1.09.62l.95.59,1.7,1.06c2.08,1.32,3.33,2.2,3.26,2.32s-1.46-.53-3.63-1.68l-1.76-1-1-.54c-.34-.18-.7-.4-1-.52a.74.74,0,0,0-.77.08,5.11,5.11,0,0,0-.92.72,6,6,0,0,0-1.36,2.09,5.68,5.68,0,0,0,.29,4.69,5.8,5.8,0,0,0,2.9,2.66,7,7,0,0,0,2.71.51C351.74,164.81,352.12,164.74,352.14,164.82Z"/><path class="cls-5" d="M349.94,133.25a26.48,26.48,0,0,0-.55-3.47,14.28,14.28,0,0,0-5.23-7.78,14.12,14.12,0,0,0-13.37-2,14.11,14.11,0,0,0-6.54,4.92,14.06,14.06,0,0,0,0,16.65,13.21,13.21,0,0,0,3,3,13.42,13.42,0,0,0,3.56,1.93,14.31,14.31,0,0,0,7.41.63,14.07,14.07,0,0,0,6-2.63,14.29,14.29,0,0,0,5.23-7.77,26.46,26.46,0,0,0,.55-3.48,2.17,2.17,0,0,1,0,.24c0,.18,0,.41,0,.68a5.93,5.93,0,0,1-.09,1.11,9.67,9.67,0,0,1-.26,1.5,13.6,13.6,0,0,1-1.56,3.87,14.46,14.46,0,0,1-9.75,6.9,14.56,14.56,0,0,1-7.65-.6,14.62,14.62,0,0,1-6.79-5.07,14.52,14.52,0,0,1,0-17.25,13.77,13.77,0,0,1,3.09-3.1,13.62,13.62,0,0,1,3.7-2,14.46,14.46,0,0,1,7.65-.6,14.46,14.46,0,0,1,9.75,6.9,13.38,13.38,0,0,1,1.56,3.87,9.67,9.67,0,0,1,.26,1.5,5.87,5.87,0,0,1,.09,1.11c0,.27,0,.5,0,.68A2.07,2.07,0,0,1,349.94,133.25Z"/><path class="cls-5" d="M384.18,131.91a24.48,24.48,0,0,0-.53-3.39,13.9,13.9,0,0,0-5.1-7.57,13.68,13.68,0,0,0-5.8-2.56,13.89,13.89,0,0,0-7.22.62,12.72,12.72,0,0,0-3.47,1.87,13.17,13.17,0,0,0-2.9,2.92,13.68,13.68,0,0,0,0,16.21,12.76,12.76,0,0,0,2.9,2.92,13,13,0,0,0,3.47,1.88,13.86,13.86,0,0,0,18.12-9.52,24.74,24.74,0,0,0,.53-3.38,5.44,5.44,0,0,1,0,.89,6.51,6.51,0,0,1-.09,1.08,9.24,9.24,0,0,1-.26,1.46,14.1,14.1,0,0,1-11,10.51,14.26,14.26,0,0,1-7.46-.59,13.27,13.27,0,0,1-3.61-1.93,13.43,13.43,0,0,1-3-3,14.11,14.11,0,0,1,0-16.82,13.48,13.48,0,0,1,3-3,13.23,13.23,0,0,1,3.61-1.92,14.26,14.26,0,0,1,7.46-.59,14.11,14.11,0,0,1,5.94,2.68,13.86,13.86,0,0,1,5.07,7.82,9.44,9.44,0,0,1,.26,1.46,6.68,6.68,0,0,1,.09,1.08A5.62,5.62,0,0,1,384.18,131.91Z"/><path class="cls-5" d="M356.24,128.74c-.06.06-.39-.22-1-.5a5.8,5.8,0,0,0-2.52-.56,5.74,5.74,0,0,0-2.49.64c-.6.31-.92.61-1,.55s.19-.44.78-.86a4.91,4.91,0,0,1,5.39-.09C356,128.32,356.28,128.7,356.24,128.74Z"/><path class="cls-5" d="M322.12,131.22a62.7,62.7,0,0,1-6.27,5,63.26,63.26,0,0,1-6.57,4.59,60.76,60.76,0,0,1,6.26-5A61,61,0,0,1,322.12,131.22Z"/><g class="cls-8"><path d="M310.29,196.3c-1.39,13.57,3.77,27.9,14.65,36.12.86.65,1.93,1.29,2.94.92a3.23,3.23,0,0,0,1.51-1.56,26.47,26.47,0,0,0,3.25-17.44c-1.72,4.54-3.2,9-4.94,13.74C318.21,222.32,312.3,210.08,310.29,196.3Z"/></g><path class="cls-12" d="M347.14,227.16l8-2.92,1.33,13.51s8.62-15.71,12.18-22.88,1.74-19.81,1.74-19.81,1.27,11-7.37,25.07l-6.51,10.6v-11.1Z"/><g class="cls-8"><path d="M254.22,295.82a21.32,21.32,0,0,0-11.57-1.45,22.34,22.34,0,0,0-11.52,4.35c-3.24,2.62-5.43,6.73-5,10.87l.4.06c2.79-7.54,8.33-13,15.48-13.69s14.12,2.51,19,7.75C260.53,299.8,257.78,297.5,254.22,295.82Z"/></g><g class="cls-8"><path d="M456.21,303.53a18.34,18.34,0,0,0-10.32-5.32,23.21,23.21,0,0,0-19.25,5.58l1.53-1.24A24.19,24.19,0,0,1,441,299.07,18.49,18.49,0,0,1,453.2,304c3,2.84,4.78,6.68,6.49,10.44A13.09,13.09,0,0,0,456.21,303.53Z"/></g><path class="cls-5" d="M404.72,240.79a4.16,4.16,0,0,1,.36-1.09c.3-.79.68-1.76,1.13-2.91,1-2.45,2.3-5.84,3.7-9.6s2.61-7.2,3.48-9.69c.41-1.16.75-2.14,1-2.94a4.59,4.59,0,0,1,.44-1.06,5.46,5.46,0,0,1-.25,1.12c-.19.72-.49,1.74-.88,3-.78,2.52-1.94,6-3.34,9.75s-2.79,7.14-3.85,9.56c-.53,1.21-1,2.18-1.29,2.85A5.64,5.64,0,0,1,404.72,240.79Z"/><path class="cls-5" d="M278.65,241.77c-.14,0-1.23-4.73-2.43-10.63s-2.06-10.7-1.92-10.73,1.23,4.73,2.43,10.63S278.79,241.74,278.65,241.77Z"/><path class="cls-10" d="M276.76,301.26c.32.16-3.66-31.17-3.66-31.17s2.51-23.76,3.92-24.86l0-8.39s3.88-2.36,4.93,1.45c0,0,3.44-3,4.05,4.13s.73,14.4.73,14.4L294.44,276l1.26.64s1.65-15,2.61-17.24,1.61-7.59,5.25-6.79,3.94,3.82,3.29,8.72-1.47,10-1.17,13.13,1.74,10.14,1.3,15.68-3.47,11.38-6.66,15.48-9.26,12.59-12.56,15.14C286.6,321.66,276.76,301.26,276.76,301.26Z"/><path class="cls-11" d="M280.63,275.77a8.09,8.09,0,0,1,0-1.34c.07-1,.15-2.18.25-3.64.24-3.07.6-7.31,1-12,.22-2.33.43-4.55.62-6.59a12.27,12.27,0,0,0,0-2.83,4.1,4.1,0,0,0-1-2.16,4.26,4.26,0,0,0-3.13-1.37,8.87,8.87,0,0,0-1.31.16,1,1,0,0,1,.31-.16,3.55,3.55,0,0,1,1-.21A4.4,4.4,0,0,1,281.9,247a4.35,4.35,0,0,1,1.11,2.34,11.54,11.54,0,0,1,0,2.94c-.18,2-.38,4.27-.59,6.6-.42,4.68-.84,8.91-1.17,12l-.41,3.63A6,6,0,0,1,280.63,275.77Z"/><path class="cls-11" d="M284.76,263a10.43,10.43,0,0,0-1.36,2.47,42.18,42.18,0,0,0-1.28,6.76c-.41,2.68-.81,5.1-1.13,6.85a16.42,16.42,0,0,1-.62,2.81,15.52,15.52,0,0,1,.26-2.87c.22-1.76.57-4.19,1-6.87a31.66,31.66,0,0,1,1.45-6.81,6.57,6.57,0,0,1,1.1-1.83C284.5,263.09,284.74,262.94,284.76,263Z"/><path class="cls-11" d="M281.94,237.87a4.14,4.14,0,0,1,.26,1c.15.64.32,1.57.51,2.73.38,2.31.8,5.52,1.07,9.09s.32,6.8.28,9.15c0,1.17-.06,2.11-.1,2.77a4,4,0,0,1-.12,1,30.72,30.72,0,0,1-.15-3.78c-.06-2.34-.17-5.56-.43-9.12s-.63-6.75-.92-9.07A32.79,32.79,0,0,1,281.94,237.87Z"/><path class="cls-11" d="M304.07,267.24a2.8,2.8,0,0,1-2.58.22c-1.47-.44-2.16-1.57-2-1.62a15.85,15.85,0,0,0,2.18,1.12A14.61,14.61,0,0,0,304.07,267.24Z"/><path class="cls-10" d="M277.19,297.36l-20.27,8.52H244.85s-11.95,3.73-13.79,14.92-2.1,17,3.16,18.35,20.08,1.54,27.43-.9,26.6-18,26.6-18L290.11,309Z"/><path class="cls-11" d="M281.94,309.73s-.23-.16-.58-.52a12.88,12.88,0,0,1-1.31-1.68,22.76,22.76,0,0,1-2.84-6.41,37.83,37.83,0,0,1-1.24-6.89,12.17,12.17,0,0,1-.08-2.89,21.4,21.4,0,0,1,.44,2.85,50.94,50.94,0,0,0,1.39,6.79,26.65,26.65,0,0,0,2.64,6.36C281.27,308.85,282,309.67,281.94,309.73Z"/><path class="cls-11" d="M290.76,313.29a20.66,20.66,0,0,0,1.16-4.35,14,14,0,0,0-2.73-10.17c-1.23-1.72-2.61-3.23-3.78-4.68a21.67,21.67,0,0,1-2.74-4.14,10.63,10.63,0,0,1-1-3.2,3.74,3.74,0,0,1,0-1.23,13.86,13.86,0,0,0,1.38,4.26,23.6,23.6,0,0,0,2.78,4c1.18,1.42,2.58,2.92,3.84,4.68a14.64,14.64,0,0,1,2.53,5.55,14.05,14.05,0,0,1,.13,5,12.82,12.82,0,0,1-.93,3.22,5.57,5.57,0,0,1-.41.82C290.84,313.21,290.78,313.3,290.76,313.29Z"/><path class="cls-9" d="M259.52,264.48a98.75,98.75,0,0,1-4.94-9,100.34,100.34,0,0,1-4.48-9.23,101.59,101.59,0,0,1,4.94,9C257.64,260.29,259.64,264.42,259.52,264.48Z"/><path class="cls-9" d="M292.3,228a60.22,60.22,0,0,1,3.05-7.5,63.39,63.39,0,0,1,3.53-7.28,63.61,63.61,0,0,1-3.06,7.49A64.16,64.16,0,0,1,292.3,228Z"/><path class="cls-9" d="M324.39,251.68a46.77,46.77,0,0,1-4.59-5.14,44.14,44.14,0,0,1-4.19-5.48,45.21,45.21,0,0,1,4.59,5.15A45.41,45.41,0,0,1,324.39,251.68Z"/><path class="cls-9" d="M317,284.25a36.86,36.86,0,0,1,3.46-5.22,39.75,39.75,0,0,1,3.88-4.91,36.86,36.86,0,0,1-3.46,5.22A38.67,38.67,0,0,1,317,284.25Z"/><path class="cls-9" d="M307.07,330.26a9.93,9.93,0,0,1-1.17-2c-.66-1.28-1.51-3.07-2.37-5.09s-1.55-3.87-2-5.23a10.21,10.21,0,0,1-.63-2.23,10.4,10.4,0,0,1,1,2.1L304,323c.82,1.91,1.57,3.63,2.22,5.13A10.37,10.37,0,0,1,307.07,330.26Z"/><path class="cls-9" d="M335.31,310.7a72.47,72.47,0,0,1-12-2.33,72.47,72.47,0,0,1,12,2.33Z"/><path class="cls-9" d="M357.21,267.71a75.27,75.27,0,0,1,5.79-6.63,74.75,74.75,0,0,1,6.17-6.27,71.42,71.42,0,0,1-5.79,6.63A73,73,0,0,1,357.21,267.71Z"/><path class="cls-9" d="M379.25,325c-.11.09-3.35-3.65-7.22-8.36a110,110,0,0,1-6.82-8.69c.11-.09,3.34,3.65,7.22,8.36S379.36,325,379.25,325Z"/><path class="cls-9" d="M242.46,300.61c.08.14-2.88,1.64-6.1,4.11s-5.46,4.9-5.58,4.8a7.84,7.84,0,0,1,1.36-1.7,32.18,32.18,0,0,1,8.33-6.35A7.56,7.56,0,0,1,242.46,300.61Z"/><path class="cls-9" d="M250.7,278.51a20.66,20.66,0,0,1-2.35,4,21.17,21.17,0,0,1-2.78,3.72,20.56,20.56,0,0,1,2.35-4A21,21,0,0,1,250.7,278.51Z"/><path class="cls-9" d="M269.27,300.21a9.75,9.75,0,0,1-1.7-4.11,10,10,0,0,1-.25-4.44c.16,0,.21,2,.75,4.33S269.41,300.14,269.27,300.21Z"/><path class="cls-9" d="M272,231.29a15.5,15.5,0,0,1-3.85.81,15.33,15.33,0,0,1-3.93.29,15.36,15.36,0,0,1,3.85-.81A14.81,14.81,0,0,1,272,231.29Z"/><path class="cls-9" d="M286,206.56a15.31,15.31,0,0,1-3.37,2.17,15.81,15.81,0,0,1-3.63,1.71,15.24,15.24,0,0,1,3.38-2.17A15.86,15.86,0,0,1,286,206.56Z"/><path class="cls-9" d="M325.17,217a35.42,35.42,0,0,1-3.86-4.64,34.94,34.94,0,0,1-3.44-5,69.7,69.7,0,0,1,7.3,9.59Z"/><path class="cls-9" d="M374.94,241.87a24.49,24.49,0,0,1-6.05-9.72c.14-.06,1.22,2.27,2.89,4.94S375.06,241.77,374.94,241.87Z"/><path class="cls-9" d="M393.94,248.13a29.89,29.89,0,0,1-2.06,5.18,29.94,29.94,0,0,1-2.54,4.95,59.2,59.2,0,0,1,4.6-10.13Z"/><path class="cls-9" d="M396.59,222.2a55.68,55.68,0,0,1-5-5.66,55.39,55.39,0,0,1-4.65-6,55.2,55.2,0,0,1,5.05,5.67A55.91,55.91,0,0,1,396.59,222.2Z"/><path class="cls-9" d="M367.58,201.14a22.74,22.74,0,0,1-.45-4.85,22,22,0,0,1,.07-4.86,23.5,23.5,0,0,1,.45,4.84A23.69,23.69,0,0,1,367.58,201.14Z"/><path class="cls-9" d="M391.24,199.83a38.69,38.69,0,0,1-6.18,1.09,39.22,39.22,0,0,1-6.24.57A38.14,38.14,0,0,1,385,200.4,36.67,36.67,0,0,1,391.24,199.83Z"/><path class="cls-9" d="M428.5,227.2a61.11,61.11,0,0,1-3.72-7.08,63.06,63.06,0,0,1-3.25-7.31,59.11,59.11,0,0,1,3.72,7.08A61.39,61.39,0,0,1,428.5,227.2Z"/><path class="cls-9" d="M422.22,250.85a32.34,32.34,0,0,1,.87-5.7,33.53,33.53,0,0,1,1.38-5.59,30.25,30.25,0,0,1-.87,5.7A32.4,32.4,0,0,1,422.22,250.85Z"/><path class="cls-9" d="M439.5,269.49a66.32,66.32,0,0,1-3-7.68,64.64,64.64,0,0,1-2.47-7.86,66.32,66.32,0,0,1,3,7.68A64.64,64.64,0,0,1,439.5,269.49Z"/><path class="cls-9" d="M437.1,280.39a17.55,17.55,0,0,1-9.33-5.05c.11-.12,2,1.41,4.52,2.79S437.14,280.24,437.1,280.39Z"/><path class="cls-9" d="M459.24,305.26a14.23,14.23,0,0,1-1.8-3.39,14.06,14.06,0,0,1-1.31-3.6,28.55,28.55,0,0,1,3.11,7Z"/><path class="cls-9" d="M328.48,339.94a19.92,19.92,0,0,1-.78-4.43,19.53,19.53,0,0,1-.26-4.49,38.65,38.65,0,0,1,1,8.92Z"/><path class="cls-9" d="M396.41,338.22a18.58,18.58,0,0,1,.65-4.33,17.72,17.72,0,0,1,1.17-4.22,19,19,0,0,1-.66,4.33A18.6,18.6,0,0,1,396.41,338.22Z"/></g><g id="Speech_Bubble" data-name="Speech Bubble"><path class="cls-4" d="M409.43,139.93l8.79-15.48a41.46,41.46,0,1,1,9.93,11v0Z"/><path class="cls-5" d="M409.43,139.93l18.76-4.29.19,0-.12-.16v0l-.18.18a42.16,42.16,0,0,0,8.52,5.14A41.71,41.71,0,0,0,448,144a37.1,37.1,0,0,0,6.55.33c1.13-.06,2.28-.09,3.44-.19l3.5-.52A41.83,41.83,0,0,0,487.32,127a41.29,41.29,0,0,0,7-16,42.11,42.11,0,0,0-.49-18.43,40.79,40.79,0,0,0-8.87-17l-1.7-1.86c-.55-.63-1.22-1.15-1.82-1.72s-1.2-1.16-1.88-1.64l-2-1.48a19.9,19.9,0,0,0-2.06-1.37l-2.1-1.27-2.2-1.07a20.88,20.88,0,0,0-2.22-1,42.33,42.33,0,0,0-18.57-2.85,40.71,40.71,0,0,0-17,5A42,42,0,0,0,413.73,90.5a44.6,44.6,0,0,0-1.8,13.47,41,41,0,0,0,2,11.63,42.29,42.29,0,0,0,4.15,8.92v-.13c-5.54,9.93-8.25,14.78-8.68,15.54.44-.75,3.21-5.57,8.89-15.42l0-.06,0-.06a42.14,42.14,0,0,1-4.08-8.88,41.36,41.36,0,0,1-2-11.55,44.44,44.44,0,0,1,1.83-13.34,41.64,41.64,0,0,1,19.5-23.9,40.4,40.4,0,0,1,16.86-5,41.87,41.87,0,0,1,18.34,2.83,18.55,18.55,0,0,1,2.19,1l2.17,1.06,2.08,1.26a16.19,16.19,0,0,1,2,1.34l2,1.47a23.7,23.7,0,0,1,1.86,1.62c.59.57,1.25,1.08,1.8,1.69l1.67,1.84a40.44,40.44,0,0,1,8.77,16.83,41.83,41.83,0,0,1,.5,18.2,40.9,40.9,0,0,1-6.9,15.83,41.46,41.46,0,0,1-25.58,16.49l-3.46.53c-1.15.1-2.29.13-3.41.2a36.61,36.61,0,0,1-6.5-.31,41.35,41.35,0,0,1-11.27-3.17,41.86,41.86,0,0,1-8.49-5l-.77-.59.59.77v0l.07-.2Z"/><path class="cls-5" d="M464.67,101a4,4,0,1,0,4-4.05A4.05,4.05,0,0,0,464.67,101Z"/><path class="cls-5" d="M448.48,101a4,4,0,1,0,4-4.05A4.05,4.05,0,0,0,448.48,101Z"/><path class="cls-5" d="M432.32,99a4,4,0,1,0,5.53-1.49A4,4,0,0,0,432.32,99Z"/></g></g></svg>