<svg xmlns="http://www.w3.org/2000/svg" viewBox="0 0 610.5 447.35"><defs><style>.cls-1{fill:#50bfa5;}.cls-2{fill:#3c8f7c;}.cls-3{fill:#355389;}.cls-4{fill:#466eb6;}.cls-5{fill:#f7cc7f;}.cls-6{fill:#fae0b2;}.cls-7{fill:#96d9c9;}.cls-8{fill:#f48c7f;}.cls-9{fill:#b75742;}.cls-10{fill:#86b1f2;}.cls-11{fill:#f47458;}.cls-12{fill:#184655;}.cls-13{fill:#f7a491;}.cls-14{fill:#13375b;}.cls-15{fill:#fff;}.cls-16{fill:#9bc1f9;}</style></defs><g id="Capa_2" data-name="Capa 2"><g id="OBJECTS"><polygon class="cls-1" points="231.99 84.92 227.2 86.39 223.98 78.94 216.72 80.23 213.4 75.05 210.78 76.73 215.21 83.65 222.1 82.44 225.45 90.18 232.66 87.97 231.99 84.92"/><polygon class="cls-1" points="539.18 352.73 534.39 354.2 531.17 346.76 523.9 348.04 520.58 342.87 517.96 344.54 522.4 351.47 529.29 350.25 532.63 358 539.84 355.79 539.18 352.73"/><path class="cls-1" d="M202.48,440.89s-25.56-86.64-27.62-105.75S187.11,322,187.11,322s-12-36.42-3.33-45.06,16.54,7.46,16.54,7.46,2.63-44.2,11.9-44.22c17.26,0,16.92,48.21,16.92,48.21s4.41-18.88,13.66-13.71c13.94,7.81-6.06,45.66-6.06,45.66s17.77,0,24,9C272,345.35,202.48,440.89,202.48,440.89Z"/><path class="cls-1" d="M210.83,429.42S137.15,417.1,121.12,404,121,385.1,121,385.1s-37-19-36.59-31.88,18.82-6.34,18.82-6.34S72,311.31,79.38,304.56C93.13,292,129.19,329,129.19,329s-10.71-17.58.57-20.37c17-4.19,29.55,39.16,29.55,39.16s-3.19-17.12,8.54-14.84C188.89,337,210.83,429.42,210.83,429.42Z"/><path class="cls-2" d="M167.85,332.9c-11.75-2.12-8.54,14.84-8.54,14.84s-12.55-43.35-29.55-39.16c-11.28,2.79-.57,20.37-.57,20.37s-36.06-37-49.81-24.39l131.2,124.88C208.25,417.52,187.56,336.46,167.85,332.9Z"/><path class="cls-3" d="M231.8,439.59S193,400.12,173.45,396s-16,9.8-16,9.8-38.77-33.91-47.76-25.69.74,16.14.74,16.14-32.3-5.72-36.92,4.88c-7.11,16.28,46,25.15,46,25.15s-22.26,1.54-17.1,11.75C110.18,453.44,231.8,439.59,231.8,439.59Z"/><path class="cls-4" d="M73.48,401.14c4.62-10.6,36.92-4.88,36.92-4.88s-9.72-7.93-.74-16.14,46.56,21.08,46.56,21.08-8.86-16.93,10.68-12.82,64.9,51.21,64.9,51.21Z"/><path class="cls-5" d="M293.58,32.57c-13.06,2.15-16.94,19.3-6.08,27a9.93,9.93,0,0,1,3.87,5.76l2,8a4.33,4.33,0,0,0,4.92,3.24l5-.82a4.34,4.34,0,0,0,3.62-4.64c-.69-8.24-1.54-11.22,1.14-14.89C315.81,45.42,306.64,30.42,293.58,32.57Z"/><path class="cls-6" d="M294.91,67.43c-.85-7.06-2-14.5-2.45-16.61-7.49.41-4.64-7.48-1.19-4.27A6.5,6.5,0,0,1,293,50.06,19.12,19.12,0,0,0,300.16,48c-.12-1.74-.29-3.06.2-4.17.73-1.68,2.86-2.14,3.73-.5a2.61,2.61,0,0,1,.15,2c-.5,1.39-2,2.31-3.33,3,.39,5.61.94,11.26,1.62,16.83l-.7.08c-.68-5.47-1.22-11-1.61-16.55a20,20,0,0,1-7.05,2c.52,2.7,1.65,10,2.45,16.58Zm-6-18.28c.67.72,1.78,1,3.41,1a5.79,5.79,0,0,0-1.52-3C288.93,45.34,287.79,48,288.9,49.15Zm12.11-5a8,8,0,0,0-.16,3.51,5.67,5.67,0,0,0,2.72-2.49,1.62,1.62,0,0,0-.83-2.09C302.65,43,301.3,43.44,301,44.1Z"/><path class="cls-7" d="M291.31,65.11l.06.19,2,8a4.33,4.33,0,0,0,4.92,3.24l5-.82a4.34,4.34,0,0,0,3.62-4.64c-.31-3.66-.64-6.29-.69-8.4Z"/><path class="cls-6" d="M283.89,26.62,280,19.49a1.43,1.43,0,0,1,2.5-1.37l3.9,7.13a1.43,1.43,0,1,1-2.5,1.37Z"/><path class="cls-6" d="M275.36,43.87l-8.52-.75a1.43,1.43,0,0,1,.25-2.84l8.52.75a1.42,1.42,0,0,1,1.29,1.54A1.44,1.44,0,0,1,275.36,43.87Z"/><path class="cls-6" d="M266.91,70a1.42,1.42,0,0,1,0-2,46.49,46.49,0,0,1,6.84-5.59,1.42,1.42,0,0,1,1.58,2.37A43.71,43.71,0,0,0,268.93,70,1.43,1.43,0,0,1,266.91,70Z"/><path class="cls-6" d="M304.93,26.23a1.42,1.42,0,0,1-1-1.74,53.79,53.79,0,0,0,1.76-11.06,1.42,1.42,0,1,1,2.84.15,57.36,57.36,0,0,1-1.84,11.65A1.42,1.42,0,0,1,304.93,26.23Z"/><path class="cls-6" d="M313.7,37.18a1.43,1.43,0,0,1,.95-1.78l8.85-2.66a1.42,1.42,0,1,1,.83,2.72l-8.86,2.67A1.42,1.42,0,0,1,313.7,37.18Z"/><path class="cls-6" d="M328.24,60.73a1.31,1.31,0,0,1-.39,0A44.93,44.93,0,0,1,319,57.13a1.43,1.43,0,1,1,1.34-2.52,41.73,41.73,0,0,0,8.3,3.33,1.42,1.42,0,0,1-.39,2.79Z"/><path class="cls-5" d="M457.89,123.71l-4.47-10.56-11.23-2.31a1.57,1.57,0,0,1-.71-2.73l8.66-7.51-1.27-11.39a1.57,1.57,0,0,1,2.37-1.53l9.82,5.92,10.45-4.74a1.58,1.58,0,0,1,2.18,1.8l-2.59,11.16,7.73,8.47a1.57,1.57,0,0,1-1,2.63l-11.42,1-5.67,10A1.58,1.58,0,0,1,457.89,123.71Z"/><polygon class="cls-8" points="528.98 87.48 527.14 94.87 514.92 93.23 510.9 103.71 501.56 103.98 501.69 108.71 514.19 108.35 518 98.42 530.72 100.13 533.48 89 528.98 87.48"/><path class="cls-9" d="M420.09,441.86H205.27c-8.21,0-14.86-6.9-14.86-15.41v-9.16c0-8.51,6.65-15.41,14.86-15.41H420.09a30.44,30.44,0,0,0-.39,39.51Z"/><path class="cls-6" d="M416.78,406.46H297.62c-8.2,0-14.86,6.9-14.86,15.41h0c0,8.51,6.66,15.41,14.86,15.41H416.79A30.56,30.56,0,0,1,416.78,406.46Z"/><path class="cls-10" d="M344.62,374.11a.89.89,0,0,0-.88-1.26H230.06c-8.91,0-16.13,6.5-16.13,14.51h0c0,8,7.22,14.52,16.13,14.52H343.77a.89.89,0,0,0,.88-1.27h0A27.81,27.81,0,0,1,344.62,374.11Z"/><path class="cls-5" d="M343.9,375.55H287.57c-10.46,0-18.94,5.44-18.94,12.16s8.48,12.17,18.94,12.17h56.71A27.76,27.76,0,0,1,343.9,375.55Z"/><path class="cls-9" d="M329.36,381.31H322c-1.58,0-2.86.53-2.86,1.19v.1h10.2Z"/><path class="cls-11" d="M335.61,384.28c0-1.64-1.91-3-4.28-3h-9.41c1.79,0,3.24,1,3.24,2.26l0,31.81,5.2-4.1,5.3,4.1Z"/><path class="cls-6" d="M323.72,371.8H257.58c-5.86,0-10.62-5.65-10.62-12.61h0c0-7,4.76-12.6,10.62-12.6h66.14a22.18,22.18,0,0,0-.47,24.49Z"/><path class="cls-4" d="M247,359.19h0c0-7,4.86-12.6,10.87-12.6H325a.62.62,0,0,0,.57-.66h0a.62.62,0,0,0-.57-.65H218.47c-6.63,0-12,6.23-12,13.91h0c0,7.69,5.37,13.91,12,13.91H325a.62.62,0,0,0,.57-.64h0a.61.61,0,0,0-.57-.66H257.84C251.83,371.8,247,366.15,247,359.19Z"/><path class="cls-12" d="M312.17,352.78h-7.33c-1.58,0-2.86.52-2.86,1.16v.11h10.19Z"/><path class="cls-2" d="M318.43,355.69c0-1.6-1.91-2.91-4.28-2.91h-9.41c1.79,0,3.24,1,3.24,2.21l0,31.2,5.2-4,5.3,4Z"/><path class="cls-12" d="M429.11,160.09l9.76-2.57-6.62,88.27-11.71.39,5.91-82.88A3.57,3.57,0,0,1,429.11,160.09Z"/><path class="cls-5" d="M433.13,248.3a3.75,3.75,0,0,1-.67,0,3.92,3.92,0,0,1-3.21-4.31l6.5-83a3.57,3.57,0,0,1,3.82-3.48,3.91,3.91,0,0,1,3.2,4.31l-6.5,83A3.62,3.62,0,0,1,433.13,248.3Z"/><path class="cls-5" d="M343.26,252.73a1.09,1.09,0,0,1,0,.18h0c.31,3.38,2.93,5.9,5.85,5.64l82.46-7.38c2.92-.26,5-3.21,4.73-6.59,0-.14,0-.28-.05-.42Z"/><path class="cls-13" d="M400.68,341.88c-5.4,3-21.9-2.26-21.9-2.73-.24,4.51-18.48,48.66-18.48,48.66v13.58s37.6,1.79,37.05-1.53-2.56-1.16-10.06-7.43c-.66-.56-11.19-3-8.34-9.24C384.7,370.64,396.88,349.71,400.68,341.88Z"/><path class="cls-2" d="M359.08,401.88h41.15c1.48-.15,1.83-1.36,1.31-2.1-1.09-1.51-9-5.08-14.27-7.44-9.24,1.08-25.47-2.47-27-4.58C356.41,393,358.25,401.71,359.08,401.88Z"/><path class="cls-3" d="M350.05,310.18c-.56-1.67,35.43-16.94,37-15.2,2.85,3.09-19.47,61-19.47,61l25.64,7.84s26.66-66.94,25.55-79.18-14.47-26.15-43.41-17.25S350.05,310.18,350.05,310.18Z"/><path class="cls-13" d="M424.56,349.49A137.14,137.14,0,0,0,404.31,348c.74,5.61,4.35,34.39,3.69,36.16a21.62,21.62,0,0,1-8.6,10.52s27.94,25.21,29.63,22.3-1.24-2.52-3.07-12.13c-.16-.85-4.2-14.26-4.45-21.5C421,369.52,424.35,357.15,424.56,349.49Z"/><path class="cls-4" d="M415.59,255.34c-3.89-2.08-14-2.15-25.14-1.43a255.78,255.78,0,0,0-63.75,12.51L312.89,271l0-14.16s-43.93-7.35-45.46,3.54c-2.3,16.4.56,49.68,15.19,57.11,45.47,23.08,109.19-36.76,109.42-28.93.31,10.51,9.17,49.64,11.44,66.78,6.3.1,17.13.1,21.83-1C426.26,320.8,426.69,261.26,415.59,255.34Z"/><path class="cls-2" d="M398.55,395.23,430,420.32c1.25.82,2.28.11,2.34-.79.12-1.86-3.72-9.61-6.32-14.8-7.83-5-18.15-18.11-18-20.68C404.71,386.85,398,394.57,398.55,395.23Z"/><path class="cls-14" d="M327.45,118.48c-1.06-9.64-2.17-19.32-10.16-26.39-6.47-5.72-14.7-6.69-22.84-3.63-23.05,8.67-11.17,29.14-40.56,49.78-9.13,6.41-19.2,10.8-26.08,19.44-9.62,12.09-6,26.63,2.79,36.33,42,46.45,88.82-16.28,92.18-31.34C325.29,151.47,328.13,124.69,327.45,118.48Z"/><path class="cls-1" d="M318.93,172.72a127.92,127.92,0,0,0-7-11.33c-3.56-6.32-12.75-9.52-12.75-9.52s-3.07.06-6.6.24a2.91,2.91,0,0,1-.66,1.17c-1.33,1-8.93-.29-13.84,3-16.45,14.1-11.9,82.47-10.61,104.06l50.11.47s-6.32-46.46,3.86-58.39C328.57,194.15,324,182.1,318.93,172.72Z"/><path class="cls-13" d="M296.34,128.74s-2.75,19.67-4.68,24.45,10.58,15,21,18.11-3.18-10.56-2.75-15.67,2.32-29.3,2.32-29.3Z"/><path class="cls-11" d="M311.69,133.27l.52-6.94-15.87,2.41s-.4,2.31-.84,5.58C301.93,138.06,307.72,136.88,311.69,133.27Z"/><path class="cls-13" d="M301.32,92.81a18,18,0,0,0-10.12,7.31c-3.87,5.9-6.52,23.25,6.21,31.36s22.62-3.36,22.78-14.54S318,90.84,301.32,92.81Z"/><path class="cls-13" d="M323.11,113.44c-1.09,2.7-3.24,4.37-4.81,3.74s-2-3.33-.88-6,3.24-4.37,4.81-3.74S324.19,110.74,323.11,113.44Z"/><path class="cls-14" d="M303.2,92.45s-8,17.89-15,19.49-6.91,10.6-6.91,10.6S281.46,101.75,288,97,303.2,92.45,303.2,92.45Z"/><path class="cls-13" d="M291,115.66c.93,2.9.08,5.76-1.88,6.39s-4.31-1.23-5.23-4.13-.08-5.77,1.89-6.4S290.07,112.75,291,115.66Z"/><path class="cls-13" d="M380.62,244.84c-3-1.09-7.48-1.22-7.41-1.62.31-1.61,13.59,3.55,11.79,1.2-1-1.3-10.93-5.93-13.35-5.16s-17.74,5.06-17.74,5.06l-42.07-9.86s-10.62-24.13-11.65-44.86a57.64,57.64,0,0,0-22.39,7.59c3.68,19.82,12.62,52,22.51,58,4.16,2.54,53.81-3,53.81-3s10.94-.77,12.73-1.46c1.36-.52,4.85-2.49,6.75-3,4.31-1.23,12,1.84,12,1C385.64,248,383.69,246,380.62,244.84Z"/><path class="cls-7" d="M300.44,167.45c-.4-6.38-2.82-12.54-9.61-14.53a13.72,13.72,0,0,0-12.28,2.7c-4,3.26-5.12,8.5-5.1,13.46a192.16,192.16,0,0,0,2.87,34,72.72,72.72,0,0,1,25.31-8C301.62,195.07,301,175.88,300.44,167.45Z"/><path class="cls-5" d="M170.1,179.48l-65.22-12.14a2.42,2.42,0,0,1-1.93-2.82l8.17-43.87a2.4,2.4,0,0,1,2.81-1.93l65.22,12.14a2.42,2.42,0,0,1,1.93,2.82l-8.17,43.87A2.4,2.4,0,0,1,170.1,179.48Z"/><rect class="cls-5" x="124.38" y="109.25" width="11.62" height="25.02" rx="2.41" transform="translate(-13.35 227.46) rotate(-79.45)"/><path class="cls-6" d="M173.07,177.8a2.42,2.42,0,0,1-2.77,1.72L104.66,167.3a2.44,2.44,0,0,1-2-2.59l3.44-39.33a2.43,2.43,0,0,1,.94-1.71,2.46,2.46,0,0,1,1.91-.45L181.9,136.8a2.42,2.42,0,0,1,1.61,1.1,2.39,2.39,0,0,1,.27,1.93Z"/><polygon class="cls-1" points="472.22 34.09 461.05 37.14 458.64 23.61 462.3 22.96 463.99 32.49 471.24 30.51 472.22 34.09"/><path class="cls-3" d="M116.4,220a17.22,17.22,0,0,1,9,2.31,13.08,13.08,0,0,1,4.8,5l-.52.35a11.71,11.71,0,0,0-6-3.69,14.46,14.46,0,0,0-6.71-.07Z"/><path class="cls-11" d="M130,227.42s-17,2.85-15.45,16.16,19.57,23.67,35.61,15.44c21.59-11.08,13.06-39.24-2.3-41.42S130,227.42,130,227.42Z"/><path class="cls-8" d="M137.19,221.56s4.45-4.56,14.19-.41,10.44,23.52,1.76,22.39S130.24,224.36,137.19,221.56Z"/><path class="cls-10" d="M254.42,44.7l-70.08,25a4.34,4.34,0,0,1-5.55-2.63L165.85,30.81a4.34,4.34,0,0,1,2.63-5.55l70.09-25a4.35,4.35,0,0,1,5.55,2.64l12.94,36.26A4.35,4.35,0,0,1,254.42,44.7Z"/><path class="cls-15" d="M208,35.38A13.89,13.89,0,1,1,190.22,27,13.89,13.89,0,0,1,208,35.38Z"/><path class="cls-10" d="M196.88,33.43A4.1,4.1,0,1,1,191.64,31,4.1,4.1,0,0,1,196.88,33.43Z"/><path class="cls-10" d="M196.1,40.92h.45a6.32,6.32,0,0,1,6.32,6.32v0a0,0,0,0,1,0,0H189.78a0,0,0,0,1,0,0v0A6.32,6.32,0,0,1,196.1,40.92Z" transform="translate(-3.4 68.52) rotate(-19.63)"/><path class="cls-15" d="M209.7,27.8a1.77,1.77,0,0,1-.6-3.44l30.64-10.93a1.71,1.71,0,0,1,.59-.11A1.78,1.78,0,0,1,242,14.5a1.76,1.76,0,0,1-1.07,2.26L210.29,27.69A1.71,1.71,0,0,1,209.7,27.8Z"/><path class="cls-15" d="M218,35.44a1.78,1.78,0,0,1-1.67-1.18A1.76,1.76,0,0,1,217.37,32l23.93-8.54a1.72,1.72,0,0,1,.6-.1,1.78,1.78,0,0,1,1.6,2.53,1.81,1.81,0,0,1-1,.91l-23.93,8.53A1.71,1.71,0,0,1,218,35.44Z"/><path class="cls-11" d="M363.33,318.25H194.09a9.52,9.52,0,0,0-9.52,9.52v8a9.52,9.52,0,0,0,9.52,9.52H363.33l-.09-.1A19.37,19.37,0,0,1,363.33,318.25Z"/><path class="cls-6" d="M360.33,322.25H269.86a9.52,9.52,0,0,0-9.52,9.52h0a9.51,9.51,0,0,0,9.52,9.51h90.47A19.4,19.4,0,0,1,360.33,322.25Z"/><path class="cls-6" d="M501.84,319,489,286.84a3.15,3.15,0,0,1,1.76-4.1l46.16-18.4a3.18,3.18,0,0,1,4.11,1.77l12.82,32.18a3.15,3.15,0,0,1-1.76,4.1l-46.16,18.4A3.15,3.15,0,0,1,501.84,319Z"/><path class="cls-4" d="M545.38,300.42,533.86,271.5a.91.91,0,0,1,.5-1.18h0a.91.91,0,0,1,1.18.51l11.53,28.92a.9.9,0,0,1-.51,1.17h0A.91.91,0,0,1,545.38,300.42Z"/><path class="cls-4" d="M539.89,296.61l-9.46-23.75a.9.9,0,0,1,.5-1.17h0a.91.91,0,0,1,1.18.5l9.46,23.75a.91.91,0,0,1-.5,1.18h0A.92.92,0,0,1,539.89,296.61Z"/><path class="cls-4" d="M538.53,303.15,527,274.23a.91.91,0,0,1,.5-1.18h0a.92.92,0,0,1,1.18.51l11.53,28.92a.91.91,0,0,1-.51,1.18h0A.9.9,0,0,1,538.53,303.15Z"/><path class="cls-4" d="M532.47,297.92l-8.9-22.32a.9.9,0,0,1,.51-1.18h0a.9.9,0,0,1,1.17.51l8.9,22.32a.91.91,0,0,1-.51,1.18h0A.91.91,0,0,1,532.47,297.92Z"/><path class="cls-3" d="M545.07,268.41l-.23-.58a.41.41,0,0,0-.52-.24l-4.38,1.74a.42.42,0,0,0-.21.54l.23.58a.41.41,0,0,0,.52.24l4.38-1.74A.4.4,0,0,0,545.07,268.41Z"/><path class="cls-3" d="M546.07,270.9l-.23-.58a.41.41,0,0,0-.52-.24l-4.39,1.75a.41.41,0,0,0-.21.53l.24.58a.4.4,0,0,0,.52.24l4.38-1.74A.42.42,0,0,0,546.07,270.9Z"/><path class="cls-3" d="M547.06,273.39l-.23-.58a.41.41,0,0,0-.52-.24l-4.38,1.75a.4.4,0,0,0-.21.53l.23.58a.39.39,0,0,0,.52.24l4.38-1.74A.41.41,0,0,0,547.06,273.39Z"/><path class="cls-3" d="M548.05,275.89l-.23-.59a.41.41,0,0,0-.52-.24l-4.38,1.75a.4.4,0,0,0-.21.53l.23.58a.41.41,0,0,0,.52.25l4.38-1.75A.4.4,0,0,0,548.05,275.89Z"/><path class="cls-3" d="M549.05,278.38l-.24-.59a.4.4,0,0,0-.52-.24l-4.38,1.75a.41.41,0,0,0-.21.53l.23.58a.41.41,0,0,0,.52.25l4.39-1.75A.41.41,0,0,0,549.05,278.38Z"/><path class="cls-3" d="M550,280.87l-.23-.58a.41.41,0,0,0-.52-.25l-4.38,1.75a.39.39,0,0,0-.21.53l.23.59a.41.41,0,0,0,.52.24l4.38-1.75A.41.41,0,0,0,550,280.87Z"/><path class="cls-3" d="M551,283.36l-.23-.58a.41.41,0,0,0-.52-.25l-4.38,1.75a.4.4,0,0,0-.21.53l.23.59a.41.41,0,0,0,.52.24l4.38-1.75A.4.4,0,0,0,551,283.36Z"/><path class="cls-3" d="M552,285.85l-.23-.58a.39.39,0,0,0-.52-.24l-4.38,1.74a.42.42,0,0,0-.21.54l.23.58a.41.41,0,0,0,.52.24l4.38-1.75A.39.39,0,0,0,552,285.85Z"/><path class="cls-3" d="M553,288.34l-.23-.58a.4.4,0,0,0-.52-.24l-4.39,1.74a.42.42,0,0,0-.21.54l.24.58a.4.4,0,0,0,.52.24l4.38-1.75A.41.41,0,0,0,553,288.34Z"/><path class="cls-3" d="M554,290.83l-.23-.58a.41.41,0,0,0-.52-.24l-4.38,1.74a.41.41,0,0,0-.21.54l.23.58a.41.41,0,0,0,.52.24l4.38-1.74A.41.41,0,0,0,554,290.83Z"/><path class="cls-3" d="M555,293.32l-.23-.58a.41.41,0,0,0-.52-.24l-4.38,1.74a.41.41,0,0,0-.21.54l.23.58a.4.4,0,0,0,.52.24l4.38-1.74A.41.41,0,0,0,555,293.32Z"/><path class="cls-3" d="M556,295.81l-.24-.58a.4.4,0,0,0-.52-.24l-4.38,1.75a.41.41,0,0,0-.21.53l.23.58a.4.4,0,0,0,.52.24l4.39-1.74A.42.42,0,0,0,556,295.81Z"/><path class="cls-9" d="M568.1,293.25l-18.32,26.09a1.14,1.14,0,0,0-.1.19l-1.86,5.73a.72.72,0,0,0,1.11.8l4.9-3.7a.61.61,0,0,0,.16-.16L572.36,296a.72.72,0,0,0-.2-1l-3.09-2A.71.71,0,0,0,568.1,293.25Z"/><path class="cls-5" d="M554,322.23l0,.06-4.74,3.57L547.9,325l1.77-5.44A22.07,22.07,0,0,1,554,322.23Z"/><path class="cls-4" d="M382.49,10.82c2.64,2.11,7.23,8.88,13.08,13.63,3.42,2.79,6.06,2.08,10.43,2.61,20.74,2.5,15.12,6.74,17.61,7.16-.71,1.62-7.17,15.36-8.38,18.13a5.06,5.06,0,0,1-5.83,3.32c-4.29-.59-8.61-1-12.83-2C385.74,51.38,379.72,46,372,39.39A5.08,5.08,0,0,1,370.47,33,175.66,175.66,0,0,1,382.49,10.82Z"/><path class="cls-10" d="M425.85,50.74c-.09,4.52.25,5.42-1.69,4.74a27.14,27.14,0,0,1-3.4-1.52c-.78-.4-.81-.93-.18-1.57.93-.92,1.87-1.82,2.79-2.72a4,4,0,0,1,1.76-4.8c.34-.2.09.22,3-6.43-9.55-1.18-16.29-2-27.94-3.4a15.62,15.62,0,0,1-8.3-3.61l-25-20.9a2.3,2.3,0,0,1-.37-3.39,2.6,2.6,0,0,1,2.57-.74c2.66.34,28.73,3.58,31.37,3.89a17.09,17.09,0,0,1,9.23,4Q422,24.53,434.27,34.76c1.13.93,1.43,1.79,1,2.84A2.2,2.2,0,0,1,432.49,39a1.35,1.35,0,0,0-1.84,1c-1.61,4.33-2.73,5.28-2.34,6.86C428.61,48.1,427.16,50.21,425.85,50.74Z"/><path class="cls-4" d="M469.1,357.73l4.76,4.53a126.45,126.45,0,0,1,27,37.46l.73,1.54s12.44,1.1,14.18-10.15h0A187.46,187.46,0,0,1,488.48,351l-2.25-5.26Z"/><path class="cls-10" d="M486.22,345.72c.61.87-2.73,4.25-7.45,7.55s-9.08,5.3-9.69,4.43,2.75-4.3,7.47-7.6S485.61,344.84,486.22,345.72Z"/><path class="cls-3" d="M486.24,345.75l0,0s-9.47,8-13.37,8.84l1.2,1.64a50.37,50.37,0,0,0,4.72-2.94C483.44,350,486.75,346.67,486.24,345.75Z"/><path class="cls-9" d="M498.89,369c0,1.39-.51,7.35-10.43,9.84.65.89,1.29,1.79,1.92,2.69,6.28-1.86,9.11-5.08,10.38-7.54.2-.38.44-.91.6-1.31C500.52,371.48,499.7,370.26,498.89,369Z"/><polygon class="cls-9" points="489.35 377.1 474.74 376.57 478.2 379.51 476.14 383.26 489.96 379.74 489.35 377.1"/><polygon class="cls-9" points="490.68 380.49 485.49 389.53 489.14 388.14 490.54 391.01 492.98 381.5 490.68 380.49"/><path class="cls-11" d="M492.66,382.94a4.8,4.8,0,1,1,4.31-5.11A4.72,4.72,0,0,1,492.66,382.94Z"/><path class="cls-16" d="M523.66,177.85,492.9,150.4c-2-1.78-1.16-5.45,1.6-7L519,129.49a3.83,3.83,0,0,1,4.48.21l30.76,27.44c2,1.79,1.16,5.46-1.59,7l-24.55,13.9A3.85,3.85,0,0,1,523.66,177.85Z"/><path class="cls-15" d="M522.2,156l-2.56-21.08A1.89,1.89,0,0,1,521,133a1.22,1.22,0,0,1,1.67,1L525,153.4,548.3,159a1.3,1.3,0,0,1,.79,1.83,1.82,1.82,0,0,1-2,1.17Z"/><path class="cls-12" d="M3,441.61a3.24,3.24,0,0,0-3,3.45c0,1.9,1.33,3.45,3.34,1.13H609.09c.78,0,1.41-1,1.41-2.28h0c0-1.27-.62-2.3-1.41-2.3Z"/><polygon class="cls-5" points="120.58 59.43 123.76 65.72 130.94 65.49 134.01 72.79 141.58 70.18 145.41 78.29 152.68 76.75 157.64 83.94 154.92 85.82 151.21 80.44 143.54 82.06 139.85 74.27 132.15 76.92 128.77 68.87 121.76 69.09 118.81 63.27 114.24 64.38 113.45 61.16 120.58 59.43"/><polygon class="cls-1" points="505.21 220.31 511.74 222.96 517 218.07 524.11 221.56 528.11 214.62 536.32 218.22 540.79 212.28 549.26 214.44 548.44 217.65 542.11 216.03 537.39 222.29 529.5 218.84 525.43 225.9 517.59 222.04 512.45 226.82 506.4 224.36 503.68 228.21 500.98 226.3 505.21 220.31"/></g></g></svg>