<svg xmlns="http://www.w3.org/2000/svg" viewBox="0 0 525.84 381.65"><defs><style>.cls-1,.cls-13,.cls-14,.cls-15,.cls-18,.cls-23,.cls-3{fill:none;}.cls-1,.cls-3{stroke:#8ee4fd;}.cls-1,.cls-13,.cls-14,.cls-15,.cls-18,.cls-23,.cls-24{stroke-linecap:round;}.cls-1,.cls-13,.cls-14,.cls-18,.cls-23,.cls-24{stroke-linejoin:round;}.cls-1{stroke-width:2.47px;stroke-dasharray:8.63;}.cls-2{fill:#8ee4fd;}.cls-15,.cls-3{stroke-miterlimit:10;}.cls-3{stroke-width:1.23px;}.cls-4{fill:#1f5b99;}.cls-24,.cls-5{fill:#006a66;}.cls-6{fill:#fff;}.cls-7{fill:#0b334c;}.cls-8{fill:#50bfa5;}.cls-9{fill:#00a2dd;}.cls-10{fill:#f64652;}.cls-11{fill:#fcb13a;}.cls-12{fill:#2cd0d1;}.cls-13,.cls-14,.cls-18,.cls-23,.cls-24{stroke:#0b334c;}.cls-13,.cls-15{stroke-width:0.97px;}.cls-14{stroke-width:1.21px;}.cls-15{stroke:#fff;}.cls-16{fill:#ed8d5d;}.cls-17{fill:#fa8764;}.cls-18,.cls-24{stroke-width:0.73px;}.cls-19{fill:#fc9b3a;}.cls-20{fill:#fcc36a;}.cls-21{fill:#e6794e;}.cls-22{fill:#cc6f49;}.cls-23{stroke-width:0.63px;}</style></defs><g id="Capa_2" data-name="Capa 2"><g id="OBJECTS"><path class="cls-1" d="M88,362c-2.6,1.12-5.38-.94-7.44-2.87-21.46-20.11-42-42.26-53.57-69.29s-12.89-59.95,3-84.72c19.36-30.24,58.49-41.65,82.05-68.74,25.77-29.65,31.4-76.2,64.86-96.79,26.18-16.11,60.72-9.84,88,4.26S315.4,79,342.47,93.56A188.82,188.82,0,0,0,399,113.14c28.74,5.07,62.39,5.37,80.48,28.27,11.65,14.76,13.07,35,12.37,53.8s-3,38.14,2.95,56c4.8,14.44,14.67,26.84,19,41.44,6.42,21.88-1.64,47.28-19.5,61.45"/><circle class="cls-2" cx="98.68" cy="21.59" r="16.04"/><circle class="cls-2" cx="506.35" cy="103.61" r="12.95"/><circle class="cls-2" cx="391.02" cy="36.39" r="8.63"/><circle class="cls-2" cx="6.78" cy="173.92" r="6.78"/><circle class="cls-3" cx="115.95" cy="12.95" r="12.33"/><circle class="cls-3" cx="514.37" cy="114.1" r="9.87"/><circle class="cls-3" cx="45.64" cy="228.81" r="11.1" transform="translate(-84.09 34.88) rotate(-22.5)"/><path class="cls-4" d="M193.45,249.1V219.83H175.54a47.7,47.7,0,0,0-3-7.18L185.23,200l-20.7-20.7L151.84,192a47.11,47.11,0,0,0-7.17-3V171H115.39V189a47.11,47.11,0,0,0-7.17,3L95.53,179.27,74.84,200l12.68,12.68a47.7,47.7,0,0,0-3,7.18H66.61V249.1H84.52a47.7,47.7,0,0,0,3,7.18L74.84,269l20.69,20.7L108.22,277a47.11,47.11,0,0,0,7.17,3v17.92h29.28V280a47.11,47.11,0,0,0,7.17-3l12.69,12.68,20.7-20.7-12.69-12.68a47.7,47.7,0,0,0,3-7.18ZM130,256.42a22,22,0,1,1,21.95-22A22,22,0,0,1,130,256.42Z"/><circle class="cls-5" cx="137.47" cy="97.54" r="42.76" transform="translate(11.44 209.47) rotate(-76.97)"/><circle class="cls-6" cx="137.47" cy="97.54" r="34.54" transform="translate(11.35 209.37) rotate(-76.92)"/><circle class="cls-5" cx="137.47" cy="97.54" r="25.08" transform="translate(11.24 209.25) rotate(-76.87)"/><circle class="cls-6" cx="137.47" cy="97.54" r="13.16"/><path class="cls-7" d="M137.06,98.16a.62.62,0,0,1-.44-.18L97.46,58.81a.62.62,0,0,1,.87-.87L137.49,97.1a.63.63,0,0,1,0,.88A.61.61,0,0,1,137.06,98.16Z"/><path class="cls-7" d="M103,64.23h0l-6.5-.79a.4.4,0,0,1-.36-.45.39.39,0,0,1,.45-.36l6.1.73.73-6.09a.41.41,0,0,1,.46-.36.42.42,0,0,1,.36.46l-.79,6.5A.4.4,0,0,1,103,64.23Z"/><path class="cls-7" d="M105.7,66.7h0l-6.5-.78a.41.41,0,0,1-.36-.46.42.42,0,0,1,.46-.36l6.09.74.73-6.1a.41.41,0,0,1,.46-.35.4.4,0,0,1,.36.45l-.78,6.5A.43.43,0,0,1,105.7,66.7Z"/><path class="cls-8" d="M462.77,93.33H422.06V52.63h40.71Zm-37-3.7h33.3V56.33h-33.3Z"/><polygon class="cls-8" points="424.4 62.22 446.31 78.13 437.65 78.17 483.44 37.56 486.08 40.15 446.36 86.71 441.66 92.22 437.69 86.75 421.78 64.83 424.4 62.22"/><rect class="cls-9" x="26.73" y="130.13" width="76.64" height="27.24"/><rect class="cls-6" x="31.34" y="134.29" width="18.93" height="18.93"/><rect class="cls-6" x="53.04" y="136.6" width="42.48" height="2.77"/><rect class="cls-6" x="53.04" y="142.37" width="42.48" height="2.77"/><rect class="cls-6" x="53.04" y="148.14" width="17.31" height="2.77"/><path class="cls-10" d="M525.84,173.16a6.48,6.48,0,1,1-6.48-6.48A6.47,6.47,0,0,1,525.84,173.16Z"/><path class="cls-11" d="M525.84,192.89a6.48,6.48,0,1,1-6.48-6.47A6.48,6.48,0,0,1,525.84,192.89Z"/><path class="cls-9" d="M525.84,212.63a6.48,6.48,0,1,1-6.48-6.48A6.48,6.48,0,0,1,525.84,212.63Z"/><path class="cls-12" d="M88.17,372.41H234.5c-11-13.83-71.71-90.13-81.24-103.3-10.48-14.49-30.84-13.88-38.55-6.79s-4.62,20.05-4.62,20.05c-5.55-3.39-35.77-10.79-40.71,8.94s20.36,40.4,20.36,40.4S67.23,332.33,66,349q0,.7-.06,1.41C65.71,362.58,76,372.41,88.17,372.41Z"/><polyline class="cls-13" points="74.19 345.84 217.72 365.93 82.29 287.84"/><path class="cls-12" d="M327.36,368.61S377.7,242.39,435.63,206.76c13.59-8.35,30.66,3.4,27.46,19C456.23,259.25,428.84,317,327.36,368.61Z"/><path class="cls-12" d="M327.36,368.61s127.39-147,178.45-133.8S371.63,382.91,327.36,368.61Z"/><path class="cls-12" d="M333.52,368.36s124.66-82.18,182.07-86.17a8.44,8.44,0,0,1,8,12.57C511.2,316.21,469.41,360.14,333.52,368.36Z"/><line class="cls-14" x1="352.87" y1="357.56" x2="517.56" y2="290.05"/><line class="cls-14" x1="504.97" y1="241.64" x2="362.37" y2="336.42"/><line class="cls-14" x1="448.47" y1="210.77" x2="371.27" y2="323.92"/><path class="cls-14" d="M478.26,291.34s-73.5,28.2-147,76"/><path class="cls-14" d="M454.58,249.68s-74.14,58.45-98.09,88.13"/><circle class="cls-7" cx="275.27" cy="222.94" r="158.71"/><circle class="cls-6" cx="275.27" cy="222.94" r="143.91"/><rect class="cls-4" x="272.19" y="83.97" width="6.17" height="30.43"/><rect class="cls-4" x="272.19" y="331.49" width="6.17" height="30.43"/><rect class="cls-4" x="383.82" y="219.85" width="30.43" height="6.17"/><rect class="cls-4" x="136.3" y="219.85" width="30.43" height="6.17"/><rect class="cls-4" x="368.73" y="161.87" width="30.43" height="3.7" transform="translate(-31.53 203.73) rotate(-28.6)"/><rect class="cls-4" x="151.38" y="280.31" width="30.43" height="3.7" transform="translate(-114.67 114.06) rotate(-28.58)"/><rect class="cls-4" x="332.64" y="316.4" width="3.7" height="30.43" transform="translate(-117.9 200.49) rotate(-28.59)"/><rect class="cls-4" x="214.2" y="99.05" width="3.7" height="30.43" transform="translate(-28.34 117.31) rotate(-28.59)"/><rect class="cls-4" x="323.25" y="114.68" width="30.43" height="3.7" transform="translate(65.43 348.03) rotate(-59.29)"/><rect class="cls-4" x="196.86" y="327.5" width="30.43" height="3.7" transform="translate(-179.39 343.57) rotate(-59.3)"/><rect class="cls-4" x="379.83" y="270.92" width="3.7" height="30.43" transform="translate(-59.24 468.18) rotate(-59.29)"/><rect class="cls-4" x="167.01" y="144.53" width="3.7" height="30.43" transform="matrix(0.51, -0.86, 0.86, 0.51, -54.71, 223.36)"/><circle class="cls-4" cx="275.27" cy="222.94" r="14.44"/><polygon class="cls-4" points="323.88 169.9 280.14 230.01 268.03 219.16 322.96 169.08 323.88 169.9"/><path class="cls-7" d="M246.94,47H303.6a5.8,5.8,0,0,1,5.8,5.8V68.34a0,0,0,0,1,0,0H241.14a0,0,0,0,1,0,0V52.76A5.8,5.8,0,0,1,246.94,47Z"/><path class="cls-7" d="M174.3,73.37h16.61A8.06,8.06,0,0,1,199,81.43V94.75a0,0,0,0,1,0,0H166.24a0,0,0,0,1,0,0V81.43A8.06,8.06,0,0,1,174.3,73.37Z" transform="translate(-15.7 117) rotate(-34.15)"/><path class="cls-7" d="M351.57,73.37H384.3a0,0,0,0,1,0,0V86.69a8.06,8.06,0,0,1-8.06,8.06H359.63a8.06,8.06,0,0,1-8.06-8.06V73.37a0,0,0,0,1,0,0Z" transform="matrix(-0.83, -0.56, 0.56, -0.83, 625.25, 360.16)"/><path class="cls-15" d="M242.83,67.63s37.27-6.81,65.45,0"/><path class="cls-15" d="M175.28,100c.16-.49,17.66-14.09,25.27-17.17"/><path class="cls-15" d="M350.24,83.18S365,89,375.19,100"/><path class="cls-16" d="M415.46,357.32l-1.24,19.45,5.13.4s3.19-8.64,6.51-19.85Z"/><path class="cls-4" d="M414.27,375.33s2.86,2.46,5.48.7l.32,1.43a11,11,0,0,1,.18,3.8l-.05.39-16.36-2.09h0a2.82,2.82,0,0,1,2.18-2.4Z"/><path class="cls-16" d="M499.43,364c-1.34-4-6.4-18.8-12.73-32.86L476.81,341l1,1.48,16.74,24.08.89,1.28,4.3-2.81Z"/><path class="cls-4" d="M494.65,366.46s3.76.31,4.84-2.66l1.1,1a10.86,10.86,0,0,1,2.38,3l.19.34L488.7,376h0a2.81,2.81,0,0,1,.36-3.22Z"/><path class="cls-17" d="M393,223.45h-3.56c-1.29-.87-4.19-2.72-4.71-2.31s.93,2.82.93,2.82-6.23-.41-6.51.31,4.74,1.38,4.74,1.38-4.19.28-4.46,1.1,5.09.59,5.09.59-4.08,1.25-3.87,2.15,5.06-.87,5.06-.87-2.64,1.51-2.37,2.12c.21.46,4.1-.74,5.91-1.33h0c1.44.25,2.88.46,4.32.67C393.44,227.86,393.26,225.65,393,223.45Z"/><path class="cls-9" d="M426.48,220.13s6-27.75,6.48-33.15,6.32-8.63,9.09-7.86,6.48,4,5.86,7.86-6.32,38.09-12.49,44.1c-5.46,5.32-38.22,4.73-45.67,4.52a1.41,1.41,0,0,1-1.37-1.55c.32-3.42,1.17-11.52,2-11.76C391.48,222,426.48,220.13,426.48,220.13Z"/><path class="cls-9" d="M451.05,179.27s11,.3,10.26,9.33-6.46,21.51-3.07,28.91,11.57,14.5,14.8,36.7c2.22,15.16,2.2,34.14,2,44.65A30.4,30.4,0,0,0,478.65,314c5,9.22,13.12,24.45,14.23,27.94a.23.23,0,0,1-.12.27c-2.21,1.13-24.45,12.45-26.5,12.45s-5.76-2.87-5.76-2.87-35.26,15.12-47.81,14.1a.23.23,0,0,1-.22-.26c.41-5.89,8.53-120.9,11.23-130.82,2.78-10.18,9.72-21.43,8.48-27.44s-5.55-14.34-1.69-20.2,9.87-8.18,11.1-8.18S451.05,179.27,451.05,179.27Z"/><path class="cls-18" d="M430.84,201.63s2.19,5.59,1.21,9.4-3.07,9.72-3.07,9.72"/><path class="cls-18" d="M459.92,351.32s-7-9.56-10.05-26.08"/><path class="cls-18" d="M461.7,232.9s5,12,5.35,20.41-5.35,39.69.81,55.24S486.65,344,486.65,344"/><path class="cls-7" d="M429.71,286.68s12.39-8.75,16-20.41Z"/><polygon class="cls-11" points="402.53 251.02 377.86 245.68 377.86 221.01 402.53 219.36 404.6 236.06 402.53 251.02"/><polygon class="cls-19" points="402.53 251.02 432.55 245.68 432.55 221.01 402.53 219.36 402.53 251.02"/><polygon class="cls-20" points="402.53 219.36 398.21 231.08 372.1 231.08 377.86 221.01 402.53 219.36"/><polygon class="cls-20" points="402.53 219.36 407.88 231.08 437.27 231.08 432.55 221.01 402.53 219.36"/><rect class="cls-20" x="404.05" y="241.95" width="6.01" height="5.24"/><path class="cls-17" d="M425.79,233.27l-3.43,1-.1,0-.08,0c-1.48-.46-4.79-1.43-5.17-.89-.49.7,1.69,2.45,1.69,2.45s-6.1,1.35-6.16,2.11,4.93,0,4.93,0-3.94,1.45-4,2.31,5.05-.86,5.05-.86-3.57,2.35-3.11,3.15,4.61-2.25,4.61-2.25-2.11,2.18-1.68,2.69,3.76-1.88,5.33-2.94h0c1.22-.15,2.43-.32,3.64-.48C426.79,237.6,426.22,235.43,425.79,233.27Z"/><path class="cls-9" d="M449.15,184.05a12.63,12.63,0,0,0-.47,5.55c.47,2.93,7.71,31.46,7.71,31.46s-12,6.47-33.15,12.33c0,0,0,10.33,1.85,11.26S462.87,232.93,467,230s2.78-10.48,2.78-10.48-2.16-39.32-13-39.94Z"/><polyline class="cls-18" points="450 195.8 456.56 221.07 459.96 221.68"/><polyline class="cls-18" points="458.14 224.23 456.56 221.07 436.27 229.21"/><path class="cls-18" d="M433.05,242.82s26.46-8.22,32.78-12.11"/><path class="cls-16" d="M441.85,178V166.07h9.37V178a2.59,2.59,0,0,0,2.59,2.59h0c-8.25,12.24-14.64,0-14.64,0h.09A2.59,2.59,0,0,0,441.85,178Z"/><path class="cls-7" d="M441.85,173.57v2a4.86,4.86,0,0,0,1.37-.07c2-.39,4.9-1.32,6.69-3.52a11.68,11.68,0,0,0,1.31-2.2v-.3a7.54,7.54,0,0,1-.48.66c-1.78,2.21-4.66,3.14-6.68,3.52A5,5,0,0,1,441.85,173.57Z"/><path class="cls-16" d="M455.05,160l-.19,0a9.17,9.17,0,0,0-18-3.56,46.41,46.41,0,0,0-1.23,8.2,8.8,8.8,0,0,0,.09,1.61,7.94,7.94,0,0,0,.83,2.43,13.28,13.28,0,0,0,3.24,3.93,5,5,0,0,0,4.26,1.12c2-.38,4.9-1.31,6.68-3.52a17.69,17.69,0,0,0,2.25-4.4,4.23,4.23,0,0,0,3.47-2.41A2.58,2.58,0,0,0,455.05,160Z"/><path class="cls-21" d="M445.26,166.41a2.18,2.18,0,1,0,2.18-2.18A2.18,2.18,0,0,0,445.26,166.41Z"/><path class="cls-21" d="M435.64,164.54a8.8,8.8,0,0,0,.09,1.61,8.22,8.22,0,0,0,.83,2.43h.19a2.18,2.18,0,0,0,0-4.36A2.11,2.11,0,0,0,435.64,164.54Z"/><path class="cls-7" d="M442.43,161.47a2.66,2.66,0,0,1,.21,1.27,7.8,7.8,0,0,1-.17,1.22,4.63,4.63,0,0,0-.18,1,2,2,0,0,0,.48,1,1.38,1.38,0,0,1-1.09-.81,2.53,2.53,0,0,1,0-1.37C441.87,163,442.17,162.29,442.43,161.47Z"/><path class="cls-7" d="M444.55,158.9a2.16,2.16,0,0,1,.85-.23,2.45,2.45,0,0,1,.89.11,2,2,0,0,1,.79.45,1.88,1.88,0,0,1,.49.74.16.16,0,0,1-.27.18h0a2.09,2.09,0,0,0-1.18-.65,7,7,0,0,0-1.37,0h0a.31.31,0,0,1-.32-.3A.3.3,0,0,1,444.55,158.9Z"/><path class="cls-7" d="M440,159.48a7,7,0,0,0-1.37,0,2,2,0,0,0-1.17.65h0a.17.17,0,0,1-.24,0,.17.17,0,0,1,0-.19,1.88,1.88,0,0,1,.49-.74,2,2,0,0,1,.79-.45,2.48,2.48,0,0,1,.89-.11,2.25,2.25,0,0,1,.86.23.31.31,0,0,1,.13.42.32.32,0,0,1-.29.17Z"/><path class="cls-7" d="M438.23,162.66c0,.74.37,1.33.82,1.33s.83-.59.83-1.33-.37-1.32-.83-1.32S438.23,161.93,438.23,162.66Z"/><ellipse class="cls-7" cx="445.67" cy="162.66" rx="0.82" ry="1.32"/><path class="cls-7" d="M444.33,167.66c.4-.24.78-.35,1.19-.55a1.06,1.06,0,0,1-.52.44A1.55,1.55,0,0,1,444.33,167.66Z"/><path class="cls-7" d="M442.36,166.93a7.31,7.31,0,0,0,1,0,2.6,2.6,0,0,0,1-.18,1.81,1.81,0,0,0,.78-.54,4,4,0,0,0,.56-.85,2.05,2.05,0,0,1-.33,1,1.78,1.78,0,0,1-.88.72A2.55,2.55,0,0,1,442.36,166.93Z"/><path class="cls-10" d="M443,158.07a.7.7,0,0,1-1.4,0c0-.38.32-1.79.7-1.79S443,157.69,443,158.07Z"/><path class="cls-9" d="M437.27,155.3s7.79-4.55,13.8,1.92c0,0,1.61-5-5.77-6.5a6.81,6.81,0,0,0-3,0A7.28,7.28,0,0,0,437.27,155.3Z"/><path class="cls-4" d="M458.32,178.35a63.28,63.28,0,0,0,.69-6.71c.54-6.32-1.35-18.34-4.39-21.28-4.4-4.24-13.79-3.92-17.5,1.85S434.88,171.64,435,174a6.16,6.16,0,0,0,2.31,3.93,6.9,6.9,0,0,0-2.4,2,2.18,2.18,0,0,0,.35,2.15s1.51,7.33,5.21,7.87,5-3.85,7.4-3.85,11.77-1.15,12.86-3.51a1,1,0,0,0,.08-.48C461.19,179.26,458.32,178.35,458.32,178.35ZM437.2,155.21c0,.11-.08.21-.11.32C437.12,155.42,437.16,155.32,437.2,155.21Zm6,18.25a4.47,4.47,0,0,1-3.41-.93l0,0a13.15,13.15,0,0,1-3.24-3.93,8.51,8.51,0,0,1-.83-2.43,8.05,8.05,0,0,1-.09-1.62,38.52,38.52,0,0,1,.81-6.22l0,.23c0-.17.06-.32.08-.48.07-.31.13-.62.19-.92.42-1.61,1.38-4.26,3.82-5.39,4.82-2.23,10.72,1.54,10.56,5.47C450.9,161.45,455.79,172.06,443.23,173.46Z"/><path class="cls-18" d="M437.72,177.82s8.51,0,12.15-3.81,3.08-16.12,1-19.36"/><path class="cls-18" d="M447,185.75c0-.24,2.51-6.48,10.69-7.45"/><path class="cls-22" d="M157,361.82c1.31,9.06,2.56,15.55,2.56,15.55l5.13.38,1.59-15.93Z"/><path class="cls-11" d="M164.7,376.18s-3.14,2.07-5.51,0l-.5,1.36a10.71,10.71,0,0,0-.66,3.71v.39h16.49a2.79,2.79,0,0,0-1.86-2.63Z"/><path class="cls-22" d="M189.53,361.82c2.63,9.06,4.82,15.55,4.82,15.55l5.19.38-.86-15.93Z"/><path class="cls-11" d="M199.36,376.18s-2.84,2.07-5.51,0l-.3,1.36a10,10,0,0,0-.12,3.71l0,.39H210a3.37,3.37,0,0,0-2.25-2.63Z"/><path class="cls-9" d="M147.24,241.15a50.47,50.47,0,0,0-1.05,14.16c.92,12.52,7.09,59.25,7.09,59.25s1.23,42.16,3.39,57.74c0,0,8.33,1.22,10.18,0L173.32,295l5.55,18.63s3.4,41.54,11.41,55.9c0,0,6.17,1.22,9.56,0,0,0-3.4-95.1-7.62-128.4Z"/><polyline class="cls-18" points="173.34 295.24 166.53 271.67 161.67 265.59"/><line class="cls-18" x1="169.57" y1="282.48" x2="164.22" y2="371.78"/><path class="cls-23" d="M150.83,245.26l9.54,1.46s-.54,9.69-6.31,9.48S150.83,245.26,150.83,245.26Z"/><path class="cls-23" d="M173.35,247.69l9.54,1.46s-.54,9.69-6.31,9.48S173.35,247.69,173.35,247.69Z"/><path class="cls-23" d="M188.73,247.93s1.62,41.64,2.91,52.17,6.64,68.36,6.64,68.36"/><path class="cls-22" d="M216.74,172.91c1-1.57,3.23-5,2.84-5.28s-2.66,1.7-2.66,1.7,3-4.15,2.18-4.59-3.09,3.12-3.09,3.12,1.62-5.05.77-5-2.23,3.95-2.23,3.95.69-4.95-.07-4.87-2,6.1-2,6.1-1.77-2.12-2.46-1.63c-.53.38.48,3.63,1,5.09h0a.41.41,0,0,0,0,.08l0,.09C210,175,209,178.5,208,181.89s-2.13,6.75-3.31,10.08c-1.52,4.37-3.18,8.69-5,12.86-2.07-1.56-4.11-3.17-6.12-4.81-1.35-1.1-2.7-2.2-4-3.34l-2-1.71c-.64-.55-1.32-1.15-1.88-1.65l-.08-.08a6.58,6.58,0,0,0-9.21.36,6.44,6.44,0,0,0,.33,9.17c.79.72,1.47,1.32,2.19,2l2.16,1.83c1.46,1.19,2.91,2.38,4.4,3.52,2.76,2.1,5.56,4.13,8.45,6l.75.49c1,.67,2.08,1.33,3.13,2a6.07,6.07,0,0,0,8.79-2.77l0-.07c.63-1.56,1.24-3.13,1.8-4.71.72-2,1.38-3.94,2-5.92.57-1.78,1-3.56,1.53-5.35s.91-3.58,1.3-5.38a177,177,0,0,0,3.54-21.47Z"/><path class="cls-11" d="M176.11,193.09a5.68,5.68,0,0,0-1.62,2.94c-.36,1.65-.61,4.33.93,6.16,2.37,2.82,23,17.82,23,17.82l1-15.84L185.53,193a7.53,7.53,0,0,0-5.95-1.65A6.58,6.58,0,0,0,176.11,193.09Z"/><polygon class="cls-4" points="273.29 229.63 189.21 153.21 189.97 152.24 281.23 214.07 273.29 229.63"/><path class="cls-22" d="M186.89,192.73s-1.24,4.74-5.51,4.1c-2.14-.32-5-2-8.93-6.27a2.57,2.57,0,0,0,3-2.15l1.75-11.63,9.22,1.39-1.75,11.63a2.58,2.58,0,0,0,2.17,2.92Z"/><path class="cls-7" d="M185.21,185.78a12.12,12.12,0,0,1-5.83-3.2s1.62,6,5.29,6.92Z"/><path class="cls-5" d="M148.87,242.32a2.06,2.06,0,0,1-1.62-2.93c3-6.26,12.84-46.79,21-48.54s17.82.63,20.87,3,4.44,13.18,4.34,20c-.08,5.93,1.11,27,1.43,32.63a1.13,1.13,0,0,1-1.28,1.18Z"/><path class="cls-22" d="M247.29,185.55c-.51-.76-4.19,1.34-4.19,1.34s3.79-3.72,3-4.07-3.83,2.47-3.83,2.47,2.92-4.06,2.21-4.34-4.64,4.48-4.64,4.48-.58-2.7-1.42-2.57c-.65.09-1.27,3.43-1.52,4.94l-.07.06-.06.07c-2.37,2.57-4.84,5.2-7.36,7.7s-5,5-7.63,7.42c-3.89,3.62-7.9,7.12-12,10.31-1-.75-1.91-1.52-2.86-2.3-.18.37-.37.73-.55,1.09-1.66,3.32-3,6.85-4.85,10.09,1.5,1.06,3,2.09,4.58,3.08l.14.09a5.25,5.25,0,0,0,6.14-.42l0,0c2.07-1.76,4.07-3.54,6-5.39.77-.76,1.55-1.53,2.3-2.3,1.33-1.31,2.58-2.68,3.85-4s2.47-2.75,3.67-4.16a179,179,0,0,0,13.15-17.36v0c1.65-.9,5.2-2.91,5-3.38s-3.16.29-3.16.29S247.8,186.31,247.29,185.55Z"/><path class="cls-5" d="M179.77,194.26a7.65,7.65,0,0,0-2,7.42,9.4,9.4,0,0,0,2.1,4.25c2.67,2.87,25.55,21.48,25.55,21.48L210,212.19,190,194.6a8.57,8.57,0,0,0-4.93-2.16A6.81,6.81,0,0,0,179.77,194.26Z"/><polygon class="cls-5" points="193.49 217.66 183.38 209.38 193.6 221.56 193.49 217.66"/><line class="cls-24" x1="208.75" y1="211.64" x2="203.71" y2="225.25"/><path class="cls-22" d="M195.41,179a1.48,1.48,0,0,1-.35.25l-1.58.88a8.85,8.85,0,0,1-.75,1.39,13.07,13.07,0,0,1-3.64,3.49,5.06,5.06,0,0,1-3.84.75h0c-.16,0-.32-.07-.47-.12a11.37,11.37,0,0,1-6.24-4.2,14.68,14.68,0,0,1-1.51-3.74c-.49-1.68-.93-3.66-1.31-5.61a9,9,0,0,1,7.62-10.6,9.14,9.14,0,0,1,10.44,8c.09.74.15,1.49.21,2.22a41.52,41.52,0,0,1,.18,4.46,4.28,4.28,0,0,0,.79,1.53,3,3,0,0,1,.47.59A.71.71,0,0,1,195.41,179Z"/><path class="cls-7" d="M192.08,172.47a7.11,7.11,0,0,0-1.35-.2,2.1,2.1,0,0,0-1.25.46h0a.15.15,0,0,1-.23,0,.15.15,0,0,1,0-.19,2,2,0,0,1,1.44-1,2.42,2.42,0,0,1,.89,0,2.15,2.15,0,0,1,.81.35.3.3,0,0,1,.07.43.32.32,0,0,1-.31.12Z"/><path class="cls-7" d="M191.51,175.56c-.1.71-.55,1.23-1,1.17s-.72-.7-.62-1.42.56-1.23,1-1.16S191.62,174.85,191.51,175.56Z"/><path class="cls-7" d="M190,181.63a1.46,1.46,0,0,1-.64-.2,1.07,1.07,0,0,1-.45-.51C189.29,181.18,189.65,181.34,190,181.63Z"/><path class="cls-7" d="M192.06,181.22a2.6,2.6,0,0,1-2.13-.09,1.85,1.85,0,0,1-.76-.83,2.09,2.09,0,0,1-.18-1.07,3.91,3.91,0,0,0,.43.92,1.72,1.72,0,0,0,.7.64,2.6,2.6,0,0,0,.91.32A8.54,8.54,0,0,0,192.06,181.22Z"/><path class="cls-7" d="M196.91,162.36a6.12,6.12,0,0,0-7.7-4.42s-.44-2.79-4.41-3-4.58,3.69-4.58,3.69c-.81-2.19-4.62-3-6.64-.45a4.3,4.3,0,0,0-.41,5s-4.9.25-5,4.38a6.23,6.23,0,0,0,2.71,5.67s-2.26,3.64-.08,5.75,5.82,1.22,5.82,1.22l.31-2a2.94,2.94,0,0,0,2.38.2A10.15,10.15,0,0,0,181.1,177c-5.49-2.75-1.78-5.73-1.78-5.73,3.62-1.3,3.46,3.37,3.46,3.37a.78.78,0,0,0,.85-.33,2,2,0,0,0,.28-.92,10.84,10.84,0,0,0,0-2.73,8,8,0,0,0,3.22.51,5,5,0,0,0,3.26-1,3.16,3.16,0,0,1-1.76-2c.29.16,2,1.16,3.48,2.1.71.47,1.31.44,1.64,0l.26,1.43A8.2,8.2,0,0,0,196.91,162.36Z"/></g></g></svg>