<svg xmlns="http://www.w3.org/2000/svg" viewBox="0 0 1710.62 820.47"><defs><style>.cls-1{fill:#e1f5fe;}.cls-2{fill:#2e5bbf;}.cls-3{fill:#2a53ad;}.cls-4{fill:#ffc3a8;}.cls-5{fill:#fffffd;}.cls-6{fill:#99e7ff;}.cls-7{fill:#bf3426;}.cls-8{fill:#ebebeb;}.cls-9{fill:#fff;}.cls-10{fill:#ffae84;}.cls-11{fill:#ffa995;}.cls-12{fill:#ff9566;}.cls-13{fill:#00bffb;}.cls-14{fill:#002169;}.cls-15{fill:#fffbff;}.cls-16{fill:#203f85;}.cls-17{fill:#99e6fd;}.cls-18{fill:#21428a;}.cls-19{fill:#59d9fd;}.cls-20{fill:#ffd24c;}.cls-21{fill:#0a81d1;}.cls-22{fill:#58d7fc;}.cls-23{fill:#ff8570;}.cls-24{fill:#fdc242;}.cls-25{fill:#a66e6e;}.cls-26{fill:#ffe8e8;}.cls-27{fill:#fd7d42;}.cls-28{fill:#7964ff;}.cls-29{fill:#0057c2;}.cls-30{fill:#9e9e9e;}</style></defs><g id="Capa_2" data-name="Capa 2"><g id="Layer_2" data-name="Layer 2"><path class="cls-1" d="M1709.88,771.52c6.67-88.67-31.94-179.57-100.37-236.34-80.62-66.89-193.41-83.39-297.3-70S1110,518.41,1011.4,553.7s-201.35,66.65-306,61.87C579,609.78,459.55,551.65,333.2,544.09,251.74,539.21,167,557,101.28,605.44S-7.76,735.62,1.16,816.74c.14,1.25.29,2.49.45,3.73h1700A270.16,270.16,0,0,0,1709.88,771.52Z"/><path class="cls-2" d="M1170.45,387.17c-20.72-12.44-33.71-37-32.33-61.13l6.29.36c-1.25,21.85,10.52,44.1,29.28,55.37Z"/><path class="cls-3" d="M1091.12,750.12l-29.41-.11c1.88,12.75,9.91,60.89,11.33,70.46h29.4C1101,810.78,1093,762.71,1091.12,750.12Z"/><path class="cls-4" d="M1231.14,400a155,155,0,0,1-21.63-9.8A122.94,122.94,0,0,1,1178,365.88a19.55,19.55,0,0,0,12.68-2.34c4.73-2.87,7.76-8,9.08-13.38s1.09-11,.52-16.49c-1-9.94-3.22-19.93-8.18-28.61s-13-15.93-22.67-18.34c-8.38-2.08-16.8,1.57-22.66,7.31a255.45,255.45,0,0,1-2.5-30.44c-.47-18.31.48-36.65,1-55,.28-10.63.42-21.27,0-31.89a87.44,87.44,0,0,0,9.31-1c22.28-3.69,42.56-14.68,60.33-28.9a53.26,53.26,0,0,0,9.66,9.08c15.07,11,34.56,14.53,53.21,13.6a128,128,0,0,0,73.43-28.35c-.53,14.37,1.93,28.74,8.29,41.58A68.64,68.64,0,0,0,1381,207.88c4,2.87,7.33,5.19,8.69,10.14a99.09,99.09,0,0,0,5.78,16,88.92,88.92,0,0,0,8.89,14.86l.79.23a108.2,108.2,0,0,0-3.84,23.31c-.85,13.39.14,27.25,5.87,39.37,4.78,10.08,13.33,18.78,23.72,22.4v0A194,194,0,0,1,1407.14,364a160.32,160.32,0,0,1-47.67,34.23c-1.09.52-2.18,1-3.3,1.48-3.67,1.58-7.43,3-11.25,4.27-21.5,7.08-44.47,8.75-67,6.51q-8.49-.86-16.87-2.42A185.88,185.88,0,0,1,1231.14,400Zm159.62-60.6c6.56-7.93,10.34-18.56,8.46-28.69s-9.85-20.7-21.15-21.93c-9.94-1.08-20,3-27.6,9.43s-13.12,15.07-17.51,24.05c-2.43,5-4.57,10.18-5.18,15.67s.46,11.36,3.93,15.68c3.81,4.74,10.08,7.05,16.17,7.16s12-1.74,17.68-4C1375.07,352.81,1384.19,347.33,1390.76,339.4Zm-84,2.35a36.35,36.35,0,0,0,13-34.09c-20.41,3.74-70.48,10.83-70.48,10.83.37,3.52,3.07,10.25,4.83,13.24a35.37,35.37,0,0,0,52.63,10Zm-68.4-86a14.44,14.44,0,1,0-14.44,14.43A14.44,14.44,0,0,0,1238.32,255.76Z"/><path class="cls-5" d="M465.47,398.74a82.34,82.34,0,0,0-32.35,17.69C420,428.31,411.45,444.6,406.2,461.51c-4.77,15.32-7,31.27-9,47.21l-57,.27c0-.62-.07-1.23-.1-1.85l-2.55-43.08-3.12-52.7-3.44-57.93q-1.72-29.37-3.47-58.76-1.62-27.62-3.27-55.22l-2.79-47.26c-.39-6.52-2.47-14.93,3.28-19.71,5.13-4.27,13-3.53,19.15-3.56l20.61-.07q11.39,0,22.75-.09l24.6-.09,26.19-.09,27.49-.11,28.52-.1,29.26-.11q14.87-.06,29.75-.12l29.93-.1q14.94-.06,29.85-.12l29.51-.1q14.43-.06,28.85-.12l28-.1,26.76-.1,25.29-.09,23.57-.09,21.53-.08,19.24-.07c5.54,0,11.14.18,16.67-.06,3.15-.14,5.18,2.9,5.63,5.69.64,4,.55,8.18.79,12.19q.75,12.7,1.5,25.42c0,.75.09,1.52.14,2.28q.72,12.33,1.45,24.64.79,13.47,1.6,26.93.84,14.33,1.69,28.64l1.77,29.75q.88,15.12,1.78,30.26t1.79,30.19q.87,14.77,1.75,29.53.84,14.14,1.67,28.27l1.56,26.42q.72,12,1.42,24c.3,5.12.61,10.23.9,15.34l-179.28.81q4.13-15,7.69-30.17,3.75-15.87,6.9-31.87c.92-4.73,1.81-9.45,2.66-14.19.11-.61.23-1.23.33-1.84.93-5.23,1.47-10.64,2.67-15.83a6.83,6.83,0,0,1,2.5-3.5,21.75,21.75,0,0,0,3.21-3.64,21.31,21.31,0,0,0,3.61-9.08,11.71,11.71,0,0,0,8.36-8.63,11.3,11.3,0,0,0-4.45-11.37c2.77-2.84,4.46-7.2,3.5-11a9.84,9.84,0,0,0-8.48-7.17,10.6,10.6,0,0,0,.93-10.13,9.21,9.21,0,0,0-8.48-5c6.56-7.4,12.28-14.35,17.69-21.51,2.09-2.76,4.17-6.55,2.24-9.41a5.73,5.73,0,0,0-5.81-2,15.42,15.42,0,0,0-5.79,2.9c-11.09,7.83-20.75,17.47-30.15,27.29a42.71,42.71,0,0,0-21.06,53.55,41.38,41.38,0,0,1,1.64,3.84c.66,2.59-.64,5.52-1.44,7.94q-1.49,4.51-3,9l-.6,1.83c-1.78,5.41-3.58,10.83-5.36,16.25l-11.94,36.17q-2.94,8.92-5.87,17.81l-65.74-76A75,75,0,0,0,548.78,402a76.14,76.14,0,0,0-9.26-3.66,74.91,74.91,0,0,0-14.23-3.09l-.28,0a6.77,6.77,0,0,0-.22-1c-.06-1.14-.13-2.38-.22-3.66q-.06-1-.12-2h11.23c8.42,0,16.24.56,24.23-2.81,12.39-5.23,21.62-17.6,22.48-31A34.66,34.66,0,0,0,571.69,328c-1.12-1-2.6-1.87-3.58-3a8.9,8.9,0,0,1-1.8-4.91c-.14-1.58.52-2.55,1-4a29.87,29.87,0,0,0,1.33-4.95,29.27,29.27,0,0,1,.39-3.71c.91-2.58,5.1-3.93,7.24-5.15a46.54,46.54,0,0,0,7.9-5.61,40,40,0,0,0,11-15.54c4.79-12.47,1.81-28-8.48-36.53-6.91-5.71-16.27-7.84-25.21-7.36-2.87.15-6.27.28-9,1.24a20.73,20.73,0,0,1-6.51,1.49,25.07,25.07,0,0,1-14.26-4c-6.26-4.05-12.31-7.52-19.61-9.44-11.67-3.08-24.1-2.66-35.87,0-22.59,5.11-43.36,18.86-55.75,38.42a79.3,79.3,0,0,0-12,37.23c-.65,10.38.74,21.43-4.15,31-4.82,9.44-11.91,15.95-12.89,27.22-1.22,13.83,6.43,28.24,18.93,34.33,11.85,5.78,27.35,3.22,36.45-6.22h37c.21,2.2.43,4.38.64,6.58l-.16,0q-4.29.35-8.53,1.08A92.36,92.36,0,0,0,465.47,398.74Z"/><polygon class="cls-6" points="850.52 376.89 630.55 376.75 611.34 167.8 585.04 167.45 606.3 400.25 851.62 400.78 850.52 376.89"/><path class="cls-7" d="M1469,666.7a21.61,21.61,0,0,1-7.24-17.85c.18-2.13.39-4.24.64-6.35,13.5,9.6,27.21,19.09,42.12,26.1a40.68,40.68,0,0,1-9,3.74,31.76,31.76,0,0,1-11.31,1.06A26,26,0,0,1,1469,666.7Z"/><path class="cls-8" d="M1107.89,715v12.83l-239,.48-.07-34.38.88.08c18.33-20.39,48.25-29.39,74.85-23q14.74,6.71,29.88,12.53c23.17,9,46.88,16.48,70.78,23.27q9.3,2.65,18.67,5.16c13.78,3.71,28.37,7.24,42.17,3.59C1106.69,715.37,1107.29,715.19,1107.89,715Z"/><path class="cls-9" d="M523.45,339.08c1.66,1.54,1.32,4.28.37,6.33a14.56,14.56,0,0,1-25.86,1,7.63,7.63,0,0,1-1.16-3.85,4,4,0,0,1,1.86-3.42c2-1.13,5.3-.26,7.45-.09a38.51,38.51,0,0,0,11.34-.58C519.5,338,521.91,337.67,523.45,339.08Z"/><path class="cls-10" d="M482.71,376.38a110.06,110.06,0,0,1-26.79-9.22,49.37,49.37,0,0,0-.1-10.17,81.38,81.38,0,0,0-3.8-16.44c-.86-2.63-2.06-5.2-2.83-7.86-.64-2.22-.81-5.8.2-7.92a39.21,39.21,0,0,1,2.59-3.66c.86-1.33,1.67-2.7,2.41-4.11a54.58,54.58,0,0,0,5.79-17.53l0-.18c2.5-.56,5-1.16,7.48-1.81.23,6.61,0,13.71,2.16,20.3,2.26,7,7.75,13.34,15,14.45s14.56-3.46,18.25-9.81,4.24-14,3.41-21.26a14.22,14.22,0,0,1,12.25-.44c-.83,7.25-.23,14.91,3.43,21.22s11,10.93,18.24,9.81,12.72-7.51,15-14.45c.07-.22.14-.45.2-.67.05,1.52.08,3,.11,4.57,9,12.88,4.58,31.82-6.74,42.64-7,6.65-15.84,10.69-25.29,12.83a83.3,83.3,0,0,1-18.13,2A109.44,109.44,0,0,1,482.71,376.38Zm41.11-31c.95-2.05,1.29-4.79-.37-6.33s-4-1.07-6-.63a38.51,38.51,0,0,1-11.34.58c-2.15-.17-5.44-1-7.45.09a4,4,0,0,0-1.86,3.42,7.63,7.63,0,0,0,1.16,3.85,14.56,14.56,0,0,0,25.86-1Z"/><path class="cls-11" d="M1399.22,310.71c1.88,10.13-1.9,20.76-8.46,28.69s-15.69,13.41-25.2,17.32c-5.64,2.31-11.59,4.16-17.68,4s-12.36-2.42-16.17-7.16c-3.47-4.32-4.54-10.19-3.93-15.68s2.75-10.7,5.18-15.67c4.39-9,9.88-17.62,17.51-24.05s17.66-10.51,27.6-9.43C1389.37,290,1397.35,300.59,1399.22,310.71Z"/><path class="cls-4" d="M867.58,653.92c-.67.27-1.37.51-2.06.73-4.12,1.26-9.11,1-12.47-1.37a8.6,8.6,0,0,1-2.58-2.81,9.22,9.22,0,0,1-1.16-4.33,9.57,9.57,0,0,1-11.19,2.36c-4.44-2.13-6.88-7.25-7-12.17s1.86-9.66,4.28-14a61.43,61.43,0,0,1,74.4-27.68c11,3.87,21.85,7.73,33.22,10.06,6.52,1.33,14,.66,20.64.93q10.6.44,21.19.94c28.14,1.33,56.28,2.93,84.41,4.55l5.9.34c8.57-11.11,15.41-20.08,21.32-28q35,43.9,70,87.8l-28.69,24.43c-9.1,7.75-18.61,15.71-30,19.24-.6.18-1.2.36-1.81.52-13.8,3.65-28.39.12-42.17-3.59q-9.36-2.51-18.67-5.16c-23.9-6.79-47.61-14.32-70.78-23.27q-15.12-5.84-29.88-12.53c-1.44-.66-2.89-1.33-4.33-2q-8.43-3.93-16.68-8.2c-4.41-2.29-10.27-4.49-15.29-4.55a56,56,0,0,1-9.59-.67,45.49,45.49,0,0,1-6.27-1.63A42.3,42.3,0,0,1,880.9,648C876.2,649.27,872.1,652.11,867.58,653.92Z"/><path class="cls-6" d="M525.29,395.28a74.91,74.91,0,0,1,14.23,3.09,25.05,25.05,0,0,1-1.3,13.73c-2,4.76-6.37,8.71-11.5,9.35-6.83.86-13.5-4.61-15.07-11.31l0-.1a17.68,17.68,0,0,0,10.29-5.13,11.74,11.74,0,0,0,3.09-9.6Z"/><path class="cls-12" d="M524.45,388.64q.06,1,.12,2a60.93,60.93,0,0,1-41.45-10.09c-.14-1.41-.27-2.8-.41-4.21a109.44,109.44,0,0,0,22.76,2.28,83.3,83.3,0,0,0,18.13-2C523.71,378.19,524.1,383.5,524.45,388.64Z"/><path class="cls-2" d="M875.16,499.18c.15,2.46.28,4.92.43,7.38l-18,.08c-.29-5.11-.6-10.22-.9-15.34q-.71-12-1.42-24l-1.56-26.42q-.84-14.14-1.67-28.27-.89-14.76-1.75-29.53-.89-15.09-1.79-30.19t-1.78-30.26L845,292.9q-.86-14.32-1.69-28.64-.79-13.47-1.6-26.93Q841,225,840.24,212.69c0-.76-.1-1.53-.14-2.28q-.76-12.72-1.5-25.42c-.24-4-.15-8.22-.79-12.19-.45-2.79-2.48-5.83-5.63-5.69-5.53.24-11.13,0-16.67.06l-19.24.07-21.53.08-23.57.09-25.29.09-26.76.1-28,.1q-14.42.08-28.85.12l-29.51.1q-14.92.08-29.85.12l-29.93.1q-14.87.08-29.75.12l-29.26.11-28.52.1-27.49.11-26.19.09-24.6.09q-11.37.06-22.75.09l-20.61.07c-6.17,0-14-.71-19.15,3.56-5.75,4.78-3.67,13.19-3.28,19.71l2.79,47.26q1.64,27.62,3.27,55.22,1.74,29.37,3.47,58.76l3.44,57.93,3.12,52.7,2.55,43.08c0,.62.07,1.23.1,1.85l-18.5.08q-1.42-24.85-2.9-49.72-1.62-28-3.26-56-1.71-29.31-3.42-58.6-1.67-28.79-3.34-57.57l-3.09-52.93q-1.31-22.35-2.61-44.7c-.22-3.8-1.23-8.19-.72-11.87a29.1,29.1,0,0,1,8.89-17.08c10.05-9.3,23.3-7.5,35.91-7.55l33.25-.12,37.85-.15,41.44-.15,44-.16,45.59-.17,46.13-.18q22.83-.08,45.67-.17,22.1-.07,44.18-.17l41.7-.14,38.19-.15,33.66-.13,28.12-.1c2.6,0,5.35-.28,7.9-.13,5.62.34,11.42,3.9,15,8.06,5.68,6.51,6.27,15.17,6.75,23.39q.45,7.56.89,15.1,1,17.85,2.09,35.7L862,274.77q1.32,22.61,2.66,45.19,1.37,23.49,2.75,47l2.74,46.84q1.32,22.36,2.62,44.73Q874,478.86,875.16,499.18Z"/><path class="cls-9" d="M518.67,300.72c0-.05,0-.11,0-.16a28.51,28.51,0,0,1,18.79-9.83,30.06,30.06,0,0,1,17,3.37c.43,7.44.82,14.9,1,22.53-.06.22-.13.45-.2.67-2.26,6.94-7.76,13.32-15,14.45s-14.57-3.46-18.24-9.81S517.84,308,518.67,300.72Z"/><path class="cls-13" d="M448.47,508.49l-51.29.23c2-15.94,4.25-31.89,9-47.21,5.25-16.91,13.78-33.2,26.92-45.08a82.34,82.34,0,0,1,32.35-17.69c-3.2,5-2.88,11.9-.34,17.38,2.87,6.17,8,10.93,13.78,15.2a289.39,289.39,0,0,1,10.23,77Z"/><path class="cls-9" d="M506.42,301.16c.83,7.25.25,14.95-3.41,21.26s-11,10.94-18.25,9.81-12.72-7.5-15-14.45c-2.14-6.59-1.93-13.69-2.16-20.3a105.25,105.25,0,0,0,18.17-6.38c.61,0,1.23,0,1.83.12a28.49,28.49,0,0,1,18.79,9.83S506.42,301.13,506.42,301.16Z"/><path class="cls-10" d="M554.25,290.18c.07,1.31.15,2.61.23,3.92a30.06,30.06,0,0,0-17-3.37,28.51,28.51,0,0,0-18.79,9.83c0,.05,0,.11,0,.16a14.22,14.22,0,0,0-12.25.44s0-.07,0-.11a28.49,28.49,0,0,0-18.79-9.83c-.6-.07-1.22-.11-1.83-.12,1.12-.53,2.23-1.08,3.34-1.66,13-6.89,24.39-18.51,27.33-32.94l.07,0a33.12,33.12,0,0,1,26.19,8.16C549.72,271,553.74,280.51,554.25,290.18Z"/><path class="cls-9" d="M467.58,296.45a30,30,0,0,1,18.21-5.35,105.25,105.25,0,0,1-18.17,6.38C467.61,297.14,467.59,296.8,467.58,296.45Z"/><path class="cls-9" d="M557.52,296c-.3,6.68,0,13.9-2,20.66-.22-7.63-.61-15.09-1-22.53A29.49,29.49,0,0,1,557.52,296Z"/><path class="cls-14" d="M460.14,299.29l0,.18A54.58,54.58,0,0,1,454.39,317c-.74,1.41-1.55,2.78-2.41,4.11a39.21,39.21,0,0,0-2.59,3.66c-1,2.12-.84,5.7-.2,7.92.77,2.66,2,5.23,2.83,7.86a81.38,81.38,0,0,1,3.8,16.44,49.37,49.37,0,0,1,.1,10.17c-.65,7.28-3,14.33-7.63,19.91a21.16,21.16,0,0,1-1.42,1.57c-9.1,9.44-24.6,12-36.45,6.22-12.5-6.09-20.15-20.5-18.93-34.33,1-11.27,8.07-17.78,12.89-27.22,4.89-9.6,3.5-20.65,4.15-31a79.3,79.3,0,0,1,12-37.23c12.39-19.56,33.16-33.31,55.75-38.42,11.77-2.68,24.2-3.1,35.87,0,7.3,1.92,13.35,5.39,19.61,9.44a25.07,25.07,0,0,0,14.26,4,20.73,20.73,0,0,0,6.51-1.49c2.73-1,6.13-1.09,9-1.24,8.94-.48,18.3,1.65,25.21,7.36,10.29,8.49,13.27,24.06,8.48,36.53a40,40,0,0,1-11,15.54,46.54,46.54,0,0,1-7.9,5.61c-2.14,1.22-6.33,2.57-7.24,5.15a29.27,29.27,0,0,0-.39,3.71,29.87,29.87,0,0,1-1.33,4.95c-.52,1.45-1.18,2.42-1,4a8.9,8.9,0,0,0,1.8,4.91c1,1.1,2.46,1.92,3.58,3a34.66,34.66,0,0,1,10.7,26.79c-.86,13.42-10.09,25.79-22.48,31-8,3.37-15.81,2.81-24.23,2.81H524.45c-.35-5.14-.74-10.45-.85-12,9.45-2.14,18.33-6.18,25.29-12.83,11.32-10.82,15.69-29.76,6.74-42.64,0-1.53-.06-3.05-.11-4.57,2-6.76,1.7-14,2-20.66a29.49,29.49,0,0,0-3-1.87c-.08-1.31-.16-2.61-.23-3.92-.51-9.67-4.53-19.17-11.53-25.5a33.12,33.12,0,0,0-26.19-8.16l-.07,0c-2.94,14.43-14.29,26.05-27.33,32.94-1.11.58-2.22,1.13-3.34,1.66a30,30,0,0,0-18.21,5.35c0,.35,0,.69,0,1C465.14,298.13,462.64,298.73,460.14,299.29Z"/><path class="cls-10" d="M677.47,341.24c9.4-9.82,19.06-19.46,30.15-27.29a15.42,15.42,0,0,1,5.79-2.9,5.73,5.73,0,0,1,5.81,2c1.93,2.86-.15,6.65-2.24,9.41-5.41,7.16-11.13,14.11-17.69,21.51a9.21,9.21,0,0,1,8.48,5,10.6,10.6,0,0,1-.93,10.13,9.84,9.84,0,0,1,8.48,7.17c1,3.82-.73,8.18-3.5,11a11.3,11.3,0,0,1,4.45,11.37,11.71,11.71,0,0,1-8.36,8.63,21.31,21.31,0,0,1-3.61,9.08,21.75,21.75,0,0,1-3.21,3.64,6.83,6.83,0,0,0-2.5,3.5c-1.2,5.19-1.74,10.6-2.67,15.83-.1.61-.22,1.23-.33,1.84L653,417.44l.6-1.83q1.5-4.51,3-9c.8-2.42,2.1-5.35,1.44-7.94a41.38,41.38,0,0,0-1.64-3.84,42.71,42.71,0,0,1,21.06-53.55Z"/><path class="cls-14" d="M483.12,380.59c.26,2.69.51,5.37.78,8.05h-37a21.16,21.16,0,0,0,1.42-1.57c4.62-5.58,7-12.63,7.63-19.91a110.06,110.06,0,0,0,26.79,9.22C482.85,377.79,483,379.18,483.12,380.59Z"/><path class="cls-10" d="M483.9,388.64c-.27-2.68-.52-5.36-.78-8.05a60.93,60.93,0,0,0,41.45,10.09c.09,1.28.16,2.52.22,3.66a6.77,6.77,0,0,1,.22,1,11.74,11.74,0,0,1-3.09,9.6A17.68,17.68,0,0,1,511.63,410a3.73,3.73,0,0,1-.44.08,26,26,0,0,1-26.76-14.8l-.05-.06.16,0C484.33,393,484.11,390.84,483.9,388.64Z"/><path class="cls-6" d="M511.19,410.12a3.73,3.73,0,0,0,.44-.08l0,.1c-.39,6.49-6.25,12.56-13,13.74s-14-2.11-18.16-7.58-5.57-12.79-4.53-19.6l-.07-.36q4.25-.73,8.53-1.08l.05.06A26,26,0,0,0,511.19,410.12Z"/><path class="cls-15" d="M548.78,402c1.48,4.79.66,10.2-1.39,14.83-2.35,5.32-6.17,9.84-8.47,13.39a623.94,623.94,0,0,0,2.39,77.82l-52.17.24a289.39,289.39,0,0,0-10.23-77c-5.77-4.27-10.91-9-13.78-15.2-2.54-5.48-2.86-12.41.34-17.38a92.36,92.36,0,0,1,10.38-2.4l.07.36c-1,6.81.34,14.13,4.53,19.6s11.36,8.77,18.16,7.58,12.65-7.25,13-13.74c1.57,6.7,8.24,12.17,15.07,11.31,5.13-.64,9.47-4.59,11.5-9.35a25.05,25.05,0,0,0,1.3-13.73A76.14,76.14,0,0,1,548.78,402Z"/><path class="cls-13" d="M581.07,507.89l-39.76.18a623.94,623.94,0,0,1-2.39-77.82c2.3-3.55,6.12-8.07,8.47-13.39,2.05-4.63,2.87-10,1.39-14.83a75,75,0,0,1,15.34,9.62l65.74,76q2.92-8.9,5.87-17.81l11.94-36.17c1.78-5.42,3.58-10.84,5.36-16.25l42.56,13.78c-.85,4.74-1.74,9.46-2.66,14.19q-3.15,16-6.9,31.87-3.56,15.17-7.69,30.17Z"/><path class="cls-13" d="M448.47,508.49l40.67-.18,52.17-.24,39.76-.18,97.27-.44,179.28-.81,18-.08q.79,13.62,1.59,27.26c0,10,4,20.83-2.89,29.56-9.22,11.63-26.2,10.38-39.54,10.43l-32.62.13-38.36.13-42.85.17-46.13.17-45,.17h-3.16l-49,.18-35.78.13c-4.29,0-8.6,0-12.89.06l-47.06.16q-22.14.11-44.25.17l-40.2.15-34.95.14c-13.21,0-23.93-3.36-31.74-15.11-8.94-13.44-9-35.72-9-51.27a.53.53,0,0,0,0-.13l18.5-.08,57-.27Z"/><path class="cls-4" d="M1356.1,401.36q-.54,11.65-1.08,23.32a53.65,53.65,0,0,1-37,22.62c-15.29,1.91-38.83-4.07-42.35-15.3a.13.13,0,0,0,0-.06A124,124,0,0,0,1356.1,401.36Z"/><path class="cls-2" d="M1231.14,400a198,198,0,0,0-26.54,56.32c-4.92,3.29-9.71,6.86-14.42,10.71-5.32,4.34-10.4,9-15.25,13.79a224.39,224.39,0,0,1,34.58-90.62A155,155,0,0,0,1231.14,400Z"/><path class="cls-9" d="M542.31,727.06a24.6,24.6,0,0,1-21.14-12.95c-4.33-8.2-3.74-18.62,1-26.58a33.65,33.65,0,0,1,20.66-15.07q26.71.1,53.64.42,32.41.39,65.15,1.13l-.28,39.81-.11,14.92-119,.24Z"/><path class="cls-16" d="M238.86,549.12l3,6.84-4.66.59Z"/><path class="cls-17" d="M241.91,556l4.71,10.52-11.7.91,2.33-10.84Z"/><path class="cls-9" d="M868.85,693.94c-53.67-4.64-113-4.84-165.69-2.39,0-.22,0-.44,0-.65C715.39,668,741.27,654,767.87,649s54-1.93,80.66,3c1.74.33,2.66,1.12,4.38,1.51l.14-.2c3.36,2.38,8.35,2.63,12.47,1.37.69-.22,1.39-.46,2.06-.73h24.84a45.49,45.49,0,0,0,6.27,1.63,56,56,0,0,0,9.59.67c5,.06,10.88,2.26,15.29,4.55q8.26,4.28,16.68,8.2c1.44.68,2.89,1.35,4.33,2-26.6-6.35-56.52,2.65-74.85,23Z"/><polygon class="cls-16" points="317.39 550.08 318.72 556.81 313.92 555.99 317.39 550.08"/><path class="cls-18" d="M568.79,753.64q-2.81,18.87-5.6,37.76H188.34q2.72-18.21,5.4-36.45Z"/><path class="cls-3" d="M188.34,791.4l-4.29,29.07h-29.4q4.83-32.72,9.68-65.42l29.41-.1Q191,773.18,188.34,791.4Z"/><path class="cls-13" d="M510.3,672.4q16.24,0,32.56.06a33.65,33.65,0,0,0-20.66,15.07c-4.77,8-5.36,18.38-1,26.58a24.6,24.6,0,0,0,21.14,12.95V729l-121.2.24v-2.16A24.58,24.58,0,0,1,400,714.11c-4.34-8.2-3.74-18.62,1-26.58a31.94,31.94,0,0,1,22.54-14.69Q466.64,672.45,510.3,672.4Z"/><polygon class="cls-17" points="318.72 556.81 320.54 565.93 309.14 564.13 313.92 555.99 318.72 556.81"/><path class="cls-19" d="M206.63,559.87q5.7,25.56,11.43,51.11H206q-5.43-24.27-10.85-48.54Z"/><path class="cls-20" d="M703.43,728.66l-42.17.08.11-14.92h42C703.39,718.79,703.39,723.77,703.43,728.66Z"/><path class="cls-21" d="M246.62,566.48q1.66,22.26,3.35,44.5H238.2l-3.28-43.59Z"/><path class="cls-3" d="M563.19,791.4q2.8-18.89,5.6-37.76l29.41-.11q-2.82,19.13-5.66,38.23-2.12,14.36-4.24,28.71H558.9Z"/><path class="cls-22" d="M258.43,610.89c1.59-46.18,3-100.4,4.69-140.78h22.55c-1.26,29.71-2.35,66.9-3.47,102.87v.25l-4.57-.17q-.76,18.95-1.54,37.88v0H258.43Z"/><path class="cls-21" d="M289.34,573.52q-.75,18.72-1.53,37.46H276.08v0q.78-18.95,1.54-37.88l4.57.17Z"/><path class="cls-8" d="M703.39,713.82c0-7.63,0-15.22-.23-22.27,52.67-2.45,112-2.25,165.69,2.39l.07,34.38-165.49.34C703.39,723.77,703.39,718.79,703.39,713.82Z"/><path class="cls-19" d="M320.54,565.93q-4.1,22.41-8.18,44.83v.13c-.56,0-1.07.09-1.46.09H300.62v-.09q4.25-23.37,8.53-46.76Z"/><path class="cls-13" d="M218.06,611h92.85c.39,0,.9-.05,1.46-.09,1.53-.11,3.39-.11,3.74,1.44.22.94-.27,2.45-.37,3.42-.31,2.61-.61,5.23-.91,7.83q-1.12,9.78-2.25,19.56L310,665.69q-1.32,11.43-2.63,22.88-1.2,10.27-2.37,20.58-.92,7.8-1.81,15.62c-.19,1.57-.37,3.13-.54,4.69l-86.69.17-.16-1.38q-.79-6.76-1.57-13.53-1.11-9.65-2.22-19.31-1.29-11.22-2.6-22.45L206.74,650l-2.4-20.78c-.61-5.33-1.2-10.66-1.84-16-.26-2.16,1-2.28,2.71-2.28h12.85Z"/><path class="cls-11" d="M1200.28,333.67c.57,5.5.79,11.13-.52,16.49s-4.35,10.51-9.08,13.38a19.55,19.55,0,0,1-12.68,2.34,106.25,106.25,0,0,1-7.24-8.72,116.83,116.83,0,0,1-14.93-27.51,165.63,165.63,0,0,1-9.06-35.62c5.86-5.74,14.28-9.39,22.66-7.31,9.7,2.41,17.71,9.67,22.67,18.34S1199.25,323.73,1200.28,333.67Z"/><path class="cls-23" d="M1356.17,399.75c0,.54-.05,1.07-.07,1.61a124,124,0,0,1-80.45,30.58c.72-7,1.48-14.22,2.23-21.41,22.57,2.24,45.54.57,67-6.51C1348.74,402.76,1352.5,401.33,1356.17,399.75Z"/><path class="cls-24" d="M1629.22,314.67,1646.83,350a54.64,54.64,0,0,0-12.23,9l-18.8-37.69,0-.53a100.7,100.7,0,0,0,13.06-5.89Z"/><path class="cls-2" d="M1511.15,518.44l-59.94-47c-28.07-22-60.28-47.12-96-46.53l-.23-.17v0a53.65,53.65,0,0,1-37,22.62c-15.29,1.91-38.83-4.07-42.35-15.3,0,0,0,0,0-.06-.89,0-1.8,0-2.69,0-27.13,2.8-48.76,11.3-68.34,24.39-4.92,3.29-9.71,6.86-14.42,10.71-5.32,4.34-10.4,9-15.25,13.79-17.12,17.05-31.62,36.76-45.43,56.66-12,17.37-20.43,29.3-33,46.06q35,43.9,70,87.8c1.22,1.51,2.43,3,3.64,4.54q.71-4.44,1.42-8.86,5.54-34,11.76-67.86c7.58-57.53,40-112.25,87.53-147a63.06,63.06,0,0,0,43.18,15.68,62.36,62.36,0,0,0,27.1-7.29c17,80.87,67.24,148.38,105.21,186A258.76,258.76,0,0,0,1469,666.7a21.61,21.61,0,0,1-7.24-17.85c.18-2.13.39-4.24.64-6.35,2.43-20.79,8.28-41.24,18.21-59.65,10.92-20.27,28.34-38.83,48.14-50.58Q1520,525.36,1511.15,518.44Z"/><path class="cls-4" d="M1693.28,388.6a28.78,28.78,0,0,1,.72,10.75,7.56,7.56,0,0,0-1.36-.13,16.34,16.34,0,0,0-6.41,1.57,48.4,48.4,0,0,0-21.82,18.44c-.17.26-.32.53-.48.8-3.74,1.34-8.31-.27-10.77-3.47-2.68-3.46-3.1-8.31-1.88-12.51a19.47,19.47,0,0,1,1.21-3.13,30.87,30.87,0,0,1,5.76-7.84,49.61,49.61,0,0,1,16.89-11.35,18.41,18.41,0,0,1,9-1.67,9.84,9.84,0,0,1,2.13.5C1689.71,381.81,1692.17,385.07,1693.28,388.6Z"/><path class="cls-4" d="M1634.6,359a54.64,54.64,0,0,1,12.23-9c1.44-.78,2.91-1.52,4.4-2.18a30.07,30.07,0,0,1,11.41-3,15.14,15.14,0,0,1,10.9,3.83c2.83,2.75,4.14,7.2,2.64,10.85v.13a22.72,22.72,0,0,0-6.14,1.4,59.65,59.65,0,0,0-22.59,14.56,32.87,32.87,0,0,0-5.14,6.61,7.06,7.06,0,0,1-2.57-1.05,41.84,41.84,0,0,0,3.29-2.82c2.87-2.76,5.34-6.23,5.67-10.2s-2.1-8.33-6-9.07c-2.89-.55-5.72.88-8.36,2.17-1,.48-2,1-3,1.41l0-.13A46.21,46.21,0,0,1,1634.6,359Z"/><path class="cls-2" d="M1431.82,48.46a25,25,0,0,0-1.31-2.36c23.3,7.41,33.6,21.91,38.56,33.08a75.93,75.93,0,0,1,3.84,11c11.62,42,11.69,85.76,8.52,129.44q-.83,11.31-1.88,22.59c-5.13,44.63-23.79,34.65-26,28.62s-1.69-12.67-1.31-19.07q1.15-19.49,1-39c0-1.37,0-2.74,0-4.1-.63-47.88-6.68-95.71-15.73-142.79A69.42,69.42,0,0,0,1431.82,48.46Z"/><path class="cls-16" d="M1146.77,294a165.63,165.63,0,0,0,9.06,35.62l-.44.16c-11.15,2.09-23.44-1.45-31.19-9.82-8-8.63-10.83-20.77-12-32.45a149.28,149.28,0,0,1,2.76-46.85c2-9.11,5.09-18.42,11.68-25,4.83-4.82,12-7.74,18.59-7.06-.49,18.32-1.44,36.66-1,55A255.45,255.45,0,0,0,1146.77,294Z"/><circle cx="1223.88" cy="255.76" r="14.44"/><path class="cls-13" d="M1468.85,324.51a46,46,0,0,1-15.29,9.36h0c-13.24,1.64-23.32-9.54-28.53-20.54-5.74-12.13-6.72-26-5.87-39.37,1-16,4.78-32.41,14.53-45.16,5.29-6.88,12-12.7,19.6-16q.13,19.5-1,39c-.38,6.4-.84,13,1.31,19.07s20.82,16,26-28.62q1-11.26,1.88-22.59h.2a39.22,39.22,0,0,1,8.38,12,54.83,54.83,0,0,1,4.21,14.25c2,12.68-.4,25.66-3.84,38a133.93,133.93,0,0,1-6.44,18.59,70.44,70.44,0,0,1-10.89,17.7A47.22,47.22,0,0,1,1468.85,324.51Z"/><path class="cls-25" d="M1275.65,431.94a.13.13,0,0,1,0,.06s0,0,0-.06Z"/><path class="cls-4" d="M1642.32,382.25a32.87,32.87,0,0,1,5.14-6.61,59.65,59.65,0,0,1,22.59-14.56,22.72,22.72,0,0,1,6.14-1.4,9.67,9.67,0,0,1,6.48,1.59c2.65,1.91,3.8,5.38,3.75,8.63s-1.14,6.41-2.23,9.49l-.09.67a18.41,18.41,0,0,0-9,1.67,49.61,49.61,0,0,0-16.89,11.35,30.87,30.87,0,0,0-5.76,7.84c-3.58,1.58-8.14-.05-10.45-3.26s-2.62-7.91-1.34-11.82A19,19,0,0,1,1642.32,382.25Z"/><path class="cls-14" d="M1473.85,332.15c2.23,4,3.68,8.22,2.42,12.46-1.4,4.78-6.21,8.08-11.17,8.58a17.22,17.22,0,0,1-13.43-4.85c-1.21,9.55-10.5,16.44-20,18.08-8.09,1.39-16.3-.16-24.31-2.16l-.23-.22a194,194,0,0,0,23.71-29.76v0a31.84,31.84,0,0,0,6.51,1.55,34.93,34.93,0,0,0,16.18-1.92h0a46,46,0,0,0,15.29-9.36c.38.59.77,1.16,1.15,1.7A69.47,69.47,0,0,1,1473.85,332.15Z"/><path class="cls-9" d="M1319.74,307.66a35.49,35.49,0,0,1-65.65,24.07c-1.76-3-4.46-9.72-4.83-13.24C1249.26,318.49,1299.33,311.4,1319.74,307.66Z"/><path class="cls-16" d="M1495.51,672.34l0,.14-12.47,148h-50c4.18-56.78,9.21-117.4,13.34-174A258.76,258.76,0,0,0,1469,666.7a26,26,0,0,0,15.17,6.7A31.76,31.76,0,0,0,1495.51,672.34Z"/><path class="cls-2" d="M1522.67,675.48l-12.93,145h-26.66l12.47-148,0-.14a40.68,40.68,0,0,0,9-3.74c3.38,1.58,6.82,3,10.34,4.34C1517.44,673.89,1520,674.74,1522.67,675.48Z"/><path class="cls-25" d="M1359.47,398.27c-1.1,1.06-2.23,2.09-3.37,3.09,0-.54.05-1.07.07-1.61C1357.29,399.27,1358.38,398.79,1359.47,398.27Z"/><circle cx="1321.06" cy="256.21" r="14.44"/><path class="cls-25" d="M1275.63,431.94c-.89,0-1.8,0-2.69,0,.86-.11,1.73-.19,2.6-.27Z"/><path class="cls-16" d="M1453.24,208.7c0,1.36,0,2.73,0,4.1-7.56,3.3-14.31,9.12-19.6,16-9.75,12.75-13.51,29.15-14.53,45.16-.85,13.39.13,27.24,5.87,39.37,5.21,11,15.29,22.18,28.53,20.54a34.93,34.93,0,0,1-16.18,1.92,31.84,31.84,0,0,1-6.51-1.55c-10.39-3.62-18.94-12.32-23.72-22.4-5.73-12.12-6.72-26-5.87-39.37a108.2,108.2,0,0,1,3.84-23.31,66.2,66.2,0,0,1,10.69-21.85C1425,215.32,1438.65,206.57,1453.24,208.7Z"/><path class="cls-2" d="M1126.65,215.68c-6.59,6.59-9.68,15.9-11.68,25a148.27,148.27,0,0,0-3.15,22h-.08a225.48,225.48,0,0,1,23.66-85.94,87.65,87.65,0,0,0,9.86,0c.4,10.62.26,21.26,0,31.89C1138.63,207.94,1131.48,210.86,1126.65,215.68Z"/><path class="cls-16" d="M1272.94,431.93c-27.13,2.8-48.76,11.3-68.34,24.39A198,198,0,0,1,1231.14,400a185.88,185.88,0,0,0,29.87,8.11q8.37,1.56,16.87,2.42c-.75,7.19-1.51,14.41-2.23,21.41h0l-.09-.28C1274.67,431.74,1273.8,431.82,1272.94,431.93Z"/><path class="cls-16" d="M1451.21,471.4c-28.07-22-60.28-47.12-96-46.53l-.23-.17v0q.56-11.65,1.08-23.32c1.14-1,2.27-2,3.37-3.09A160.32,160.32,0,0,0,1407.14,364l.23.22c8,2,16.22,3.55,24.31,2.16,9.49-1.64,18.78-8.53,20-18.08a17.22,17.22,0,0,0,13.43,4.85c5-.5,9.77-3.8,11.17-8.58,1.26-4.24-.19-8.49-2.42-12.46,9.85-1.93,19.79-3.08,29.71-1.91,15,1.79,30.1,10,35.86,23.93,5.95,14.41.81,30.71-3.73,45.62-11.8,38.73-19.21,78.49-24.54,118.65Z"/><path class="cls-4" d="M1504.55,668.6c-14.91-7-28.62-16.5-42.12-26.1,2.43-20.79,8.28-41.24,18.21-59.65,10.92-20.27,28.34-38.83,48.14-50.58l8,6.31q4.51,3.55,9,7.1l.21.12c21-38.65,42.22-77.55,64.4-117.92-5.55-13.55-10.73-28.87-5.31-42.48a38,38,0,0,1,11.5-15c2.47-2,4.09-3.46,7.13-4.6,2.55-1,5.08-2,7.57-3.14,1-.45,2-.93,3-1.41,2.64-1.29,5.47-2.72,8.36-2.17,3.9.74,6.34,5.11,6,9.07s-2.8,7.44-5.67,10.2a41.84,41.84,0,0,1-3.29,2.82,7.06,7.06,0,0,0,2.57,1.05,19,19,0,0,0-1.62,3.59c-1.28,3.91-1.07,8.47,1.34,11.82s6.87,4.84,10.45,3.26a19.47,19.47,0,0,0-1.21,3.13c-1.22,4.2-.8,9.05,1.88,12.51,2.46,3.2,7,4.81,10.77,3.47.16-.27.31-.54.48-.8a48.4,48.4,0,0,1,21.82-18.44,16.34,16.34,0,0,1,6.41-1.57,7.56,7.56,0,0,1,1.36.13c4.17.88,6.38,5.59,6.45,9.73a26.07,26.07,0,0,1-1.9,9.09c-4.58,12.94-11.85,26.27-21.09,36.47-5.55,6.12-8.6,13.09-10.2,21.21-1.35,6.79-2.71,13.57-4.14,20.34-2.82,13.37-5.85,26.71-9.29,39.94-7.86,30.24-17.89,60-32.21,87.88-10.18,19.81-23.49,39.45-43.62,49-17.08,8.07-37,7.71-55.33,2.48-2.63-.74-5.23-1.59-7.78-2.54C1511.37,671.64,1507.93,670.18,1504.55,668.6Z"/><path class="cls-2" d="M1528.78,532.27q-8.82-6.91-17.63-13.83c5.33-40.16,12.74-79.92,24.54-118.65,4.54-14.91,9.68-31.21,3.73-45.62-5.76-13.92-20.9-22.14-35.86-23.93-9.92-1.17-19.86,0-29.71,1.91a69.47,69.47,0,0,0-3.85-5.94c-.38-.54-.77-1.11-1.15-1.7a47.22,47.22,0,0,0,4.2-4.29,70.44,70.44,0,0,0,10.89-17.7l.49.21c13.44-1.56,26.91-2,40.15.5,21.85,4.08,43.31,17.78,50.2,38.91s-2,44-9.25,65.17c-14.56,42.14-23.22,87-28.7,131.27Z"/><path class="cls-15" d="M1341.17,460.55a62.36,62.36,0,0,1-27.1,7.29,63.06,63.06,0,0,1-43.18-15.68c-47.51,34.75-80,89.47-87.53,147Q1177.14,633,1171.6,667q-.72,4.43-1.42,8.86-4.15,25.89-7.87,51.84-1.71,11.92-3.33,23.85-2.73,20.07-5.22,40.19-1.77,14.36-3.42,28.71h228l27.84-220.66C1378.73,562.64,1352.52,514.58,1341.17,460.55Z"/><path class="cls-26" d="M1446.38,646.52a404.82,404.82,0,0,1-40.19-46.71l-27.84,220.66H1433C1437.22,763.69,1442.25,703.07,1446.38,646.52Z"/><path class="cls-14" d="M1507.52,146.25c0-.12,0-.24,0-.37-1.71-26.73-15.42-54.32-38.43-66.7a75.93,75.93,0,0,1,3.84,11,290.29,290.29,0,0,1,9.59,60.22c1.38,22.91.61,46.08-1.07,69.22h.2a39.22,39.22,0,0,1,8.38,12C1499.84,204,1509.31,175.45,1507.52,146.25Z"/><path class="cls-14" d="M1437.51,65.91a69.42,69.42,0,0,0-5.69-17.45,25,25,0,0,0-1.31-2.36c-13.15-21-77.69-64.22-188-37.8a375.2,375.2,0,0,0-43.4,13.31,121.47,121.47,0,0,1-30.1,7c-19.5,2-39.08,3.66-56.87,11.57-19.22,8.55-35.3,24.54-42.69,44.24s-5.63,42.92,5.81,60.58c12.85,19.86,36.31,30.54,60.15,31.8a90.7,90.7,0,0,0,19.17-1c22.28-3.69,42.56-14.68,60.33-28.9a53.26,53.26,0,0,0,9.66,9.08c15.07,11,34.56,14.53,53.21,13.6a128,128,0,0,0,73.43-28.35c-.53,14.37,1.93,28.74,8.29,41.58A68.64,68.64,0,0,0,1381,207.88c4,2.87,7.33,5.19,8.69,10.14a99.09,99.09,0,0,0,5.78,16,88.92,88.92,0,0,0,8.89,14.86l.79.23a66.2,66.2,0,0,1,10.69-21.85c9.19-12,22.85-20.73,37.44-18.61-.31-23-1.88-46.06-4.42-69C1446.08,115,1442.2,90.34,1437.51,65.91Z"/><path class="cls-27" d="M1629.07,314.38l-7.68-7.35-6.37,2.86.74,10.87a100.22,100.22,0,0,0,13.07-5.89l.39-.2Z"/><polygon class="cls-14" points="1614.38 300.32 1615.02 309.87 1615.02 309.89 1621.39 307.02 1614.38 300.32"/><path class="cls-2" d="M629.74,574.82v-.24h-3.16l-49,.18-35.78.13v.52l-10.37,32H618.7Z"/><path class="cls-13" d="M531.39,607.38l-21.09,65q16.24,0,32.56.06,26.71.1,53.64.42l22.2-65.5Z"/><path class="cls-18" d="M598.2,753.53q-2.82,19.13-5.66,38.23h505.22l-6.38-40Z"/><polygon class="cls-2" points="1111.56 727.83 1107.89 727.84 868.92 728.32 703.43 728.66 661.26 728.74 542.31 728.98 421.11 729.22 302.63 729.46 215.93 729.63 124.24 729.82 124.24 755.19 164.33 755.05 193.74 754.95 568.79 753.63 598.2 753.53 1111.56 751.73 1111.56 727.83"/><path class="cls-13" d="M1466.8,80.8c1.19.61,2.52,1.31,3.8.9,2.17-.69,2.24-3.74,1.69-6-4.17-17-19.23-30.84-36.55-33.52-2.34-.37-5.35-.18-6.24,2s1.23,4.48,2.73,6.42c2.79,3.6,3.67,8.28,4.46,12.76.55,3.1.42,9.33,2.11,11.92s4.85.91,8.1.85A41.69,41.69,0,0,1,1466.8,80.8Z"/><path class="cls-2" d="M1165,387.34a30.08,30.08,0,0,0,15.74,13,12.77,12.77,0,0,0,7.6.73c2.5-.7,4.7-2.94,4.65-5.52-.06-2.28-1.77-4.21-3.69-5.43s-4.12-2-6-3.19c-4.73-3-8-10-14-10.94C1162.38,374.9,1162.55,383.19,1165,387.34Z"/><path class="cls-28" d="M548.6,148v.21h2.69A16.94,16.94,0,0,1,548.6,148Z"/><path class="cls-9" d="M551.29,117.88a12.54,12.54,0,0,0,0,25.07h32.27a12.54,12.54,0,0,0,0-25.07Z"/><path class="cls-2" d="M533.5,112.62a17.79,17.79,0,1,0,0,35.58h15.1V148a17.79,17.79,0,0,1,2.69-35.37Z"/><path class="cls-13" d="M596.09,130.41a12.58,12.58,0,0,0-12.53-12.53H551.29a12.54,12.54,0,0,0,0,25.07h32.27A12.58,12.58,0,0,0,596.09,130.41ZM558.85,148.2h-7.56a16.94,16.94,0,0,1-2.69-.21,17.79,17.79,0,0,1,2.69-35.37h32.27a17.79,17.79,0,1,1,0,35.58H558.85Z"/><path class="cls-2" d="M548.6,148.2v4.44h21V148.2h-21Z"/><path class="cls-2" d="M579.41,130.4a3.49,3.49,0,1,0,3.48-3.48A3.48,3.48,0,0,0,579.41,130.4Z"/><circle class="cls-13" cx="558.23" cy="130.4" r="9.14" transform="translate(98.31 472.6) rotate(-49.8)"/><path class="cls-2" d="M554.77,130.4a3.46,3.46,0,1,0,3.46-3.46A3.46,3.46,0,0,0,554.77,130.4Z"/></g><g id="Layer_5" data-name="Layer 5"><path class="cls-14" d="M1336.23,206.43a4.15,4.15,0,0,1-2.67-1c-5.92-4.9-15.11-10.58-25.22-9.79a4.2,4.2,0,0,1-.64-8.38c12.92-1,24.1,5.81,31.21,11.7a4.2,4.2,0,0,1-2.68,7.43Z"/><path class="cls-14" d="M1195.25,210.39a4.2,4.2,0,0,1-3.11-7,40.16,40.16,0,0,1,25.93-12.92,4.2,4.2,0,1,1,.75,8.36A31.7,31.7,0,0,0,1198.37,209,4.19,4.19,0,0,1,1195.25,210.39Z"/><path class="cls-23" d="M1246.36,304.53a2.08,2.08,0,0,1-1.09-.31c-3.72-2.28-9-5.94-12.29-11.37-3.38-5.64-3.8-12.24-1.09-17.24,2.18-4,6.47-7.08,11.78-8.43,4.4-1.12,8.81-1.05,13.71-.84a2.1,2.1,0,1,1-.18,4.19c-4.56-.19-8.64-.26-12.5.72-4.17,1.06-7.49,3.38-9.12,6.37-2,3.64-1.58,8.77,1,13.07,2.78,4.64,7.54,7.9,10.88,9.95a2.1,2.1,0,0,1-1.1,3.89Z"/><path class="cls-23" d="M1635.57,421.62a2,2,0,0,1-.72-.13,2.1,2.1,0,0,1-1.25-2.69,30.11,30.11,0,0,0-.79-22.07,29.5,29.5,0,0,0-2.69-4.87c-.21-.31-.42-.58-.6-.83-.73-1-1.55-2.06-1.26-3.52a4.6,4.6,0,0,1,2.46-2.87,60.39,60.39,0,0,0,10.87-7.77c3.1-3,4.79-6,5-8.86s-1.48-6.3-4.31-6.84c-2.15-.4-4.57.78-6.91,1.93l-.14.07a2.1,2.1,0,0,1-1.85-3.77l.14-.07c2.82-1.38,6-2.95,9.54-2.28,5.27,1,8.1,6.65,7.71,11.31-.33,3.95-2.46,7.83-6.31,11.53a63.07,63.07,0,0,1-11.62,8.34l-.14.09.14.19c.22.29.46.62.71,1a32.77,32.77,0,0,1,3.07,5.58,34.32,34.32,0,0,1,.89,25.17A2.12,2.12,0,0,1,1635.57,421.62Z"/><path class="cls-23" d="M1649.55,403.61a11.58,11.58,0,0,1-9.22-4.72c-2.63-3.66-3.24-8.78-1.62-13.71,1.2-3.66,3.51-7.16,7.24-11a61.81,61.81,0,0,1,23.39-15.06,23.78,23.78,0,0,1,7.24-1.55,2.06,2.06,0,0,1,2.17,2,2.09,2.09,0,0,1-2,2.17,20.16,20.16,0,0,0-6,1.31,57.54,57.54,0,0,0-21.79,14c-3.28,3.38-5.27,6.37-6.27,9.41-1.18,3.59-.78,7.4,1,9.93s5.67,3.76,8.22,2.43a2.1,2.1,0,1,1,2,3.71A9.22,9.22,0,0,1,1649.55,403.61Z"/><path class="cls-23" d="M1669.74,433.59c-3.85,0-7.66-1.54-9.13-5.07-1.22-2.93-.56-6.34,2-10.41a50.51,50.51,0,0,1,22.78-19.25,18.36,18.36,0,0,1,7.16-1.74h.07a2.1,2.1,0,0,1,0,4.2h0a14.71,14.71,0,0,0-5.53,1.41,46.25,46.25,0,0,0-20.86,17.63c-1.8,2.83-2.36,5-1.7,6.54,1,2.38,4.66,2.92,7.62,2.22,7.07-1.67,12.73-7.71,17.28-12.56a2.1,2.1,0,0,1,3.06,2.87c-4.93,5.27-11.07,11.82-19.38,13.78A14.72,14.72,0,0,1,1669.74,433.59Z"/><path class="cls-29" d="M445.07,450.86a28.9,28.9,0,0,0-18.16-12.77l.66-3.08a32.12,32.12,0,0,1,20.18,14.19Z"/><rect class="cls-29" x="434.63" y="489.3" width="34.48" height="3.15" transform="translate(-99.78 866.14) rotate(-81.6)"/><rect class="cls-29" x="575.82" y="455.68" width="3.15" height="51.4" transform="translate(-69.96 99.23) rotate(-9.26)"/><path class="cls-23" d="M676.05,380.26a2.1,2.1,0,0,1-1.85-3.09,21.73,21.73,0,0,0,1.08-18,2.09,2.09,0,0,1,.9-2.58,33.75,33.75,0,0,0,12.4-12.85c1-1.8,1-2.63.76-3-.45-.86-2.46-.79-4.2-.29a40.16,40.16,0,0,0-6.32,2.43,2.1,2.1,0,1,1-1.83-3.77,44.31,44.31,0,0,1,7-2.7c4.26-1.22,7.66-.34,9.08,2.37s-.23,6-.79,7a38.16,38.16,0,0,1-12.49,13.53,26.06,26.06,0,0,1-1.86,19.81A2.11,2.11,0,0,1,676.05,380.26Z"/><path class="cls-14" d="M538.18,333.49c-6.71,0-13.63-4.18-17.45-10.76-3.44-5.92-4.65-13.44-3.61-22.35l.06-.48.32-.37a30.22,30.22,0,0,1,19.82-10.37,31.74,31.74,0,0,1,21.11,5.52l.7.5,0,.86c-.07,1.42-.1,2.86-.14,4.32-.14,5.75-.29,11.7-2.15,17.42-2.7,8.32-9.07,14.41-16.22,15.52A15,15,0,0,1,538.18,333.49Zm-18-32.26c-.87,8,.23,14.71,3.25,19.92,3.65,6.28,10.49,10,16.65,9,6-.93,11.37-6.18,13.72-13.38,1.72-5.29,1.86-11,2-16.52,0-1.18.06-2.35.1-3.51a28.56,28.56,0,0,0-18.27-4.48A27,27,0,0,0,520.2,301.23Z"/><path class="cls-14" d="M486.92,334a16.19,16.19,0,0,1-2.41-.18c-7.15-1.11-13.52-7.2-16.23-15.52-1.86-5.72-2-11.67-2.14-17.42,0-1.46-.07-2.9-.14-4.32l0-.86.71-.5a31.74,31.74,0,0,1,21.11-5.52A30.13,30.13,0,0,1,507.6,300l.32.37.05.48c1,8.91-.17,16.43-3.6,22.34C500.55,329.8,493.63,334,486.92,334Zm-17.74-36.7c.05,1.15.08,2.32.11,3.5.13,5.53.27,11.24,2,16.53,2.34,7.19,7.72,12.45,13.71,13.38,6.17,1,13-2.77,16.65-9.05,3-5.21,4.12-11.91,3.26-19.91a27,27,0,0,0-17.44-8.94A28.67,28.67,0,0,0,469.18,297.27Z"/><path class="cls-14" d="M506.82,302.73,505.26,300a15.87,15.87,0,0,1,14.22-.64l-1.31,2.86A12.68,12.68,0,0,0,506.82,302.73Z"/><path class="cls-23" d="M1661.13,422.6a12.36,12.36,0,0,1-9.63-4.75,16.18,16.18,0,0,1-2.24-14.39c1.17-4,3.61-7.88,7.48-11.85a52.1,52.1,0,0,1,17.62-11.83c3.2-1.3,8-2.84,12.58-1.2a2.1,2.1,0,0,1-1.42,4c-2.46-.89-5.51-.52-9.59,1.13a48.12,48.12,0,0,0-16.18,10.87c-3.38,3.46-5.49,6.77-6.45,10.1-1.13,3.88-.55,8,1.52,10.64,2.19,2.83,6.25,3.94,9.07,2.48a2.1,2.1,0,0,1,1.94,3.73A10.19,10.19,0,0,1,1661.13,422.6Z"/><rect class="cls-30" x="866.84" y="694.6" width="4.2" height="33.56" transform="translate(-4.87 5.99) rotate(-0.39)"/><path class="cls-23" d="M849.3,647.76h0a2.09,2.09,0,0,1-2.07-2.12,14.65,14.65,0,0,1,1.28-5.76,25.61,25.61,0,0,1,6.83-8.54,56.06,56.06,0,0,1,38.14-13.58,2.1,2.1,0,0,1-.14,4.2,51.9,51.9,0,0,0-35.25,12.55,20.73,20.73,0,0,0-5.74,7.08,10.3,10.3,0,0,0-.92,4.09A2.1,2.1,0,0,1,849.3,647.76Z"/><path class="cls-6" d="M690,270.42a2.1,2.1,0,0,1-1.87-1.14l-12.38-24a2.1,2.1,0,0,1,3.73-1.93l9,17.48,2.27-29.12a2.1,2.1,0,0,1,2.06-1.93l59.2-.9a2.1,2.1,0,0,1,.07,4.2l-57.29.87-2.7,34.59a2.08,2.08,0,0,1-1.68,1.89A1.84,1.84,0,0,1,690,270.42Z"/><path class="cls-6" d="M716.55,266.93a2.07,2.07,0,0,1-1.55-.69,102.05,102.05,0,0,1-14-19.61,2.1,2.1,0,1,1,3.69-2,97.36,97.36,0,0,0,13.37,18.8,2.1,2.1,0,0,1-1.56,3.51Z"/><path class="cls-6" d="M702.89,270.6a2.09,2.09,0,0,1-1.72-3.29c2.21-3.22,4.75-7.58,7.21-11.8s5.08-8.73,7.39-12.07a2.1,2.1,0,0,1,3.46,2.38c-2.22,3.21-4.76,7.58-7.22,11.8s-5.08,8.73-7.39,12.07A2.09,2.09,0,0,1,702.89,270.6Z"/><path class="cls-6" d="M736.75,256.18h-.06l-12.25-.35a2.1,2.1,0,0,1,.12-4.2l12.25.35a2.1,2.1,0,0,1-.06,4.2Z"/><path class="cls-6" d="M753.09,267.3a13.43,13.43,0,1,1,10.19-21.84,10.6,10.6,0,0,1,2.5,6.63,7.83,7.83,0,0,1-3.65,6.67,6.56,6.56,0,0,1-5.84.39,5.63,5.63,0,0,1-7.18.05,5.84,5.84,0,0,1-1.94-4.06,6.62,6.62,0,0,1,1.59-4.77,8,8,0,0,1,8.17-2.08,2.1,2.1,0,1,1-1.21,4,3.76,3.76,0,0,0-3.81.85,2.4,2.4,0,0,0-.55,1.71,1.71,1.71,0,0,0,.51,1.17,1.4,1.4,0,0,0,1.24.15.92.92,0,0,0,.64-.5,2.14,2.14,0,0,1,1.56-1.49,2.12,2.12,0,0,1,2.05.67,2.23,2.23,0,0,0,2.64.27,3.61,3.61,0,0,0,1.58-3.07,6.45,6.45,0,0,0-1.56-4,9.28,9.28,0,1,0-3.34,14.24,2.1,2.1,0,1,1,1.76,3.82A12.74,12.74,0,0,1,753.09,267.3Z"/><path class="cls-6" d="M784.7,306.8H747.5a2.1,2.1,0,0,1,0-4.2h37.2a2.1,2.1,0,0,1,0,4.2Z"/><path class="cls-6" d="M758.67,291.23a2.11,2.11,0,0,1-1.79-3.21l8.1-13a2.1,2.1,0,1,1,3.57,2.22l-6.09,9.8,10-.07h0a2.1,2.1,0,0,1,0,4.2l-13.81.1Z"/><path class="cls-6" d="M773.58,297.36a2.1,2.1,0,0,1-2.1-2.1V283.05a2.1,2.1,0,1,1,4.2,0v12.21A2.1,2.1,0,0,1,773.58,297.36Z"/><path class="cls-6" d="M766.94,335.42h-.76c-4.81,0-7.75-1.51-8.73-4.38a2.1,2.1,0,1,1,4-1.36c.45,1.31,3.2,1.53,4.79,1.54a11.89,11.89,0,0,0,5.17-.68c1-.48,2-1.64,1.72-2.59a2.62,2.62,0,0,0-1.9-1.58,12,12,0,0,0-4-.13,2.1,2.1,0,0,1-1-4,12.31,12.31,0,0,0,4.28-2.76,2.76,2.76,0,0,0,.55-3,2.72,2.72,0,0,0-2.66-.75,12.47,12.47,0,0,0-4.06,1.94,2.1,2.1,0,0,1-2.24-3.56,16,16,0,0,1,5.55-2.52,6.32,6.32,0,0,1,6.08,10.62l-.4.45a6.49,6.49,0,0,1,4,4.33c.79,3.21-1.4,6.14-4,7.37A14.31,14.31,0,0,1,766.94,335.42Z"/><path class="cls-6" d="M670.7,305.35a2.16,2.16,0,0,1-.66-.1,43.84,43.84,0,0,1-18.58-12.1,2.1,2.1,0,1,1,3.11-2.82,39.55,39.55,0,0,0,16.79,10.93,2.1,2.1,0,0,1-.66,4.09Z"/><path class="cls-6" d="M652.91,311.05a2.1,2.1,0,0,1-1.73-3.28l13.06-19.27a2.1,2.1,0,0,1,3.48,2.36l-13.07,19.27A2.09,2.09,0,0,1,652.91,311.05Z"/></g></g></svg>