<svg xmlns="http://www.w3.org/2000/svg" viewBox="0 0 1000 1000"><defs><style>.cls-1,.cls-2{fill:#494d96;}.cls-2{stroke:#fefefe;}.cls-2,.cls-3{stroke-miterlimit:10;stroke-width:4px;}.cls-3{fill:none;stroke:#fff;}.cls-4{fill:#fff;}</style></defs><title>eduhack1</title><g id="Capa_5" data-name="Capa 5"><rect class="cls-1" width="1000" height="1000"/></g><g id="gorro"><path class="cls-2" d="M454.19,485.27H417.87s-46.61.79-36.78-40.85c0,0,27.14-72.66,112-74,0,0,107.51-3.14,122.74,91.92,0,0,14.62,60.75-49.35,37.18l-56.35,20.16S458.69,532,462,490.32Z"/><path class="cls-3" d="M505.6,384.26s-15.54-5.76-24.37,6c0,0-19.19-8.12-30.16,7.33,0,0-23.76-4.45-25.28,17.81,0,0-25.29,3.67-20.11,25.14,0,0-12.49,9.43-8.83,19.12a14,14,0,0,0,4.13,6.39c9.85,8.27,24-2.08,32.73,6.44"/><path class="cls-3" d="M458.33,487.93c4-10.59,16.3-13.56,27.16-17.1,12.18-4,25.72-8.14,36.66-14.31,7.9-4.45,15.09-12,15.43-20.41"/><path class="cls-3" d="M426.7,433.75s22.24.53,20.41-17.28c0,0,16.76,0,25-11"/><path class="cls-3" d="M472.09,457.32s-18.28-19.9-4.87-33.26c0,0-2.64-9.13-1.32-12.94"/><path class="cls-3" d="M417.56,453.13s30.16-3.93,35,13.88"/><path class="cls-3" d="M463.76,443.48s-19.69-.45-28.68,10.23"/><path class="cls-3" d="M492.17,448.59s-14.29-17.72,2.46-25.57c0,0-4.26-21.22,23.46-17.55,0,0,12.18-18.33,31.07-5.5"/><path class="cls-3" d="M510.47,440.56s-10.05-19.11,14-20.95c0,0,11-14.66,26.19-2.62"/><path class="cls-3" d="M563.78,416.21s25.28-1.31,20.72,21.47c0,0,24.06,6.55,10.35,26.45,0,0,16.45,15.19-.61,25.92"/><path class="cls-3" d="M478.49,494.51l13.68-1.31s10.16-16.5,25.65-10.48c-1.56-.61,7.94-9.81,8.59-10.26,8.28-5.67,19.51-5.63,26.5-13,6.71-7.1,9.78-16.22,10.87-25.19"/><path class="cls-3" d="M490.37,508.91s10.05,4.71,21-7.07c0,0,16.75,3.93,23.15-7.33,0,0,11-16.82,27.72-6.58"/><path class="cls-3" d="M581.14,477s-14.88-7.74-26,8"/><path class="cls-3" d="M577.49,453.12s-10,6.51-21,1.82"/><path class="cls-3" d="M504.89,520.58c5.53,41.93,7.2,93.63-16.34,130.58-11.41,17.91-34.5,29-53.62,36.8-21.35,8.67-44.43,12.79-67.35,14.1-8.93.51-20.21-2.61-27.94-6.76-5.82-3.12-10.88-7.7-12.12-14.45-.63-3.38-.4-8.23,1.15-11.35,2.07-4.2,8.88-6.52,9-11.75.15-5.53-5.93-7.65-10.42-8.89-7.4-2.05-7.45-7.68-3.42-13,9.88-13-8.8-7.61-8.45-19,.16-5.23,6.85-8.25,7.3-14.53.67-9.3-6.51-15.47-14.42-18.89-5.67-2.45-10.95-8.7-10.94-15.39,0-8.51,8.28-13.85,13.47-19.47,5.76-6.22,11-13.06,16.42-19.56,9.44-11.27,5.73-21.12,3.39-34.39C327,474,334.88,447,343.36,428.45c29.34-64.35,103.51-76.64,167.05-76,24.45.24,49,1.6,72.09,10.37,25.49,9.67,47.41,26.77,62.2,49.76,13.26,20.62,20.43,44.6,23.74,68.74,0,0,7.95,86.22-63,149.2-26.6,23.63-55.72,47.41-64.21,84.32-8.93,38.81,16.84,67,48.92,84.46"/><path class="cls-3" d="M373.21,257.46h.08C375.53,244.44,431,234,499.14,234c69.55,0,125.93,10.86,125.93,24.26a9.12,9.12,0,0,1-.2,2.44,4.89,4.89,0,0,1,.2,1.8v12L707.2,245.1,499.39,168.36,292.8,245.1l80.41,28.76Z"/><path class="cls-4" d="M613.41,828.53l14.06-24.11a6.26,6.26,0,0,0-3.75-9.2l-24.59-6.78a6.27,6.27,0,0,0-7.08,2.88l-7.91,13.56a6.26,6.26,0,0,0,1.12,7.73l18.44,17.33A6.27,6.27,0,0,0,613.41,828.53Z"/><rect class="cls-4" x="615.65" y="813.45" width="3.67" height="17.73" rx="1.83" transform="translate(-403.95 941.29) rotate(-59.74)"/><rect class="cls-4" x="622.84" y="801.14" width="3.67" height="17.73" rx="1.83" transform="translate(-389.76 941.38) rotate(-59.74)"/><path class="cls-4" d="M421.38,321.54V198.94l-8.87,3.29V321.46a11.76,11.76,0,1,0,8.87.08Z"/><path class="cls-3" d="M619.94,262.29c0-12.82-54-23.21-120.51-23.21-65.2,0-118.3,10-120.44,22.43h-.07V377.66c0-1.31,6.31-4.84,7.22-5.45a135.82,135.82,0,0,1,22.41-12c29.2-12.5,60.43-15.78,91.91-15.87,24.75-.06,49.48,1.6,73.41,8.44a134.87,134.87,0,0,1,25.24,9.83,92.72,92.72,0,0,1,11.12,6.78c1.63,1.16,9.71,6.19,9.71,8.25V266.35a4.68,4.68,0,0,0-.19-1.72A8.75,8.75,0,0,0,619.94,262.29Z"/></g></svg>